<svg xmlns="http://www.w3.org/2000/svg" xmlns:xlink="http://www.w3.org/1999/xlink" width="60" height="55" viewBox="0 0 60 55">
  <defs>
    <clipPath id="clip-path">
      <rect id="長方形_602" data-name="長方形 602" width="60" height="55" transform="translate(153 1339)" fill="#fff" stroke="#707070" stroke-width="1"/>
    </clipPath>
    <clipPath id="clip-path-2">
      <rect id="長方形_601" data-name="長方形 601" width="51.822" height="43.959" transform="translate(0 0)" fill="none"/>
    </clipPath>
  </defs>
  <g id="mail" transform="translate(-153 -1339)" clip-path="url(#clip-path)">
    <g id="グループ_743" data-name="グループ 743" transform="translate(157.089 1347)">
      <g id="グループ_742" data-name="グループ 742">
        <g id="グループ_741" data-name="グループ 741" clip-path="url(#clip-path-2)">
          <rect id="長方形_600" data-name="長方形 600" width="41.323" height="24.556" rx="3.247" transform="translate(5.739 2)" fill="none" stroke="#fff" stroke-linecap="round" stroke-linejoin="round" stroke-width="4"/>
          <path id="パス_4139" data-name="パス 4139" d="M26.58,17.676,46.938,4.659A3.528,3.528,0,0,0,43.524,2H9.277A3.526,3.526,0,0,0,5.771,5.219Z" fill="none" stroke="#fff" stroke-linecap="round" stroke-linejoin="round" stroke-width="4"/>
          <path id="パス_4140" data-name="パス 4140" d="M43.815,26.556H8.986a3.247,3.247,0,0,1-3.247-3.247V5.247A3.247,3.247,0,0,1,8.986,2H43.815a3.247,3.247,0,0,1,3.247,3.247V23.309a3.247,3.247,0,0,1-3.247,3.247" fill="#e9f8ff"/>
          <path id="パス_4141" data-name="パス 4141" d="M26.58,17.676,46.938,4.659A3.528,3.528,0,0,0,43.524,2H9.277A3.526,3.526,0,0,0,5.771,5.219Z" fill="#8fdfff"/>
          <path id="パス_4142" data-name="パス 4142" d="M4.543,35.076a3.271,3.271,0,0,1,.817-.837A4.729,4.729,0,0,1,6.575,33.6v.209q0,.51-.045,1.027a3.764,3.764,0,0,1-.2.947,1.634,1.634,0,0,1-.458.693,1.187,1.187,0,0,1-.81.262.8.8,0,0,1-.589-.223.777.777,0,0,1-.222-.575A1.591,1.591,0,0,1,4.543,35.076Zm.3-4.288q.751-.125,1.549-.216.052.563.092,1.1a5.987,5.987,0,0,0-2.249,1.014,4.987,4.987,0,0,0-1.412,1.588,3.72,3.72,0,0,0-.483,1.791,2.755,2.755,0,0,0,.15.87,2.571,2.571,0,0,0,.471.836,2.342,2.342,0,0,0,.849.627,3.078,3.078,0,0,0,1.288.243,3.215,3.215,0,0,0,1.477-.308,2.642,2.642,0,0,0,.975-.836,4.164,4.164,0,0,0,.575-1.216A7.67,7.67,0,0,0,8.4,34.828q.072-.765.085-1.523a4.321,4.321,0,0,1,1.51.3,2.786,2.786,0,0,1,1.072.732,1.514,1.514,0,0,1,.4,1.02,1.959,1.959,0,0,1-.314,1.078,3.353,3.353,0,0,1-.765.844,3.96,3.96,0,0,1-.882.536l1.647,1.307a4.234,4.234,0,0,0,1.334-1.02,4.122,4.122,0,0,0,.751-1.274,3.881,3.881,0,0,0,.242-1.314,3.481,3.481,0,0,0-.294-1.353,4.062,4.062,0,0,0-.909-1.308,4.631,4.631,0,0,0-1.568-.986,6.521,6.521,0,0,0-2.275-.406q-.027-.522-.079-1.046.51-.026.981-.026c.305,0,.592.009.863.026s.514.04.732.066l.026-.667q.575.68,1.157,1.392a16.1,16.1,0,0,1,1.091,1.51l1.556-1.046a14.217,14.217,0,0,0-1.189-1.758q-.642-.8-1.216-1.405l-1.4,1.281.039-1.15q-.236-.027-.588-.04c-.235-.008-.5-.013-.8-.013q-.695,0-1.478.026-.064-.5-.137-.876c-.048-.252-.089-.453-.124-.6l-1.909.222c.035.227.069.456.105.686s.069.465.1.7q-.9.091-1.725.222a8.679,8.679,0,0,0-1.4.327l.4,1.791Q4.092,30.912,4.843,30.788Z" fill="none" stroke="#69c6fd" stroke-linecap="round" stroke-linejoin="round" stroke-width="4"/>
          <path id="パス_4143" data-name="パス 4143" d="M21.93,38.462a5.478,5.478,0,0,0,1.51-.9,6.83,6.83,0,0,0,1.137-1.229,12.964,12.964,0,0,0,.837-1.314l-1.961-1.085a5.632,5.632,0,0,1-.5.994,4.853,4.853,0,0,1-.758.928,3.9,3.9,0,0,1-.968.68,2.494,2.494,0,0,1-1.118.261,2.936,2.936,0,0,1-1.228-.261,2.126,2.126,0,0,1-.935-.837,2.826,2.826,0,0,1-.36-1.516,8.743,8.743,0,0,1,.2-1.674,16.239,16.239,0,0,1,.6-2.144,20.952,20.952,0,0,1,1.02-2.405l-2.079-.732a26.444,26.444,0,0,0-1.4,3.765,11.805,11.805,0,0,0-.484,3.138,5.988,5.988,0,0,0,.268,1.8,4.211,4.211,0,0,0,.824,1.5,3.784,3.784,0,0,0,1.405,1.013,5.051,5.051,0,0,0,2.014.367A5.251,5.251,0,0,0,21.93,38.462Z" fill="none" stroke="#69c6fd" stroke-linecap="round" stroke-linejoin="round" stroke-width="4"/>
          <path id="パス_4144" data-name="パス 4144" d="M33.859,38.521a6.634,6.634,0,0,0,1.53-.922,4.274,4.274,0,0,0,1.059-1.248,3.155,3.155,0,0,0,.392-1.556,2.734,2.734,0,0,0-.346-1.412,2.9,2.9,0,0,0-.929-.967,4.306,4.306,0,0,0-1.287-.562,5.71,5.71,0,0,0-1.438-.183,8.023,8.023,0,0,0-1.621.169,7.84,7.84,0,0,0-1.53.477,4.218,4.218,0,0,0-1.164.726,12.094,12.094,0,0,1,1.229-3.255l-1.882-.81a21.355,21.355,0,0,0-.83,2.085,17.722,17.722,0,0,0-.569,2.1q-.222,1.077-.379,2.307l1.817.209a8.667,8.667,0,0,1,1.791-1.32,7.869,7.869,0,0,1,1.732-.713,5.626,5.626,0,0,1,1.406-.215,2.354,2.354,0,0,1,1.346.353,1.153,1.153,0,0,1,.523,1.019,1.362,1.362,0,0,1-.327.883,3.109,3.109,0,0,1-.9.719,7.244,7.244,0,0,1-1.288.555,11.311,11.311,0,0,1-1.5.379L32.055,39.1A9.055,9.055,0,0,0,33.859,38.521Zm.517-8.746a1.414,1.414,0,0,0,.2-.013l.209-1.961h-.275a11.124,11.124,0,0,1-1.2-.072c-.441-.048-.88-.116-1.32-.2s-.842-.183-1.2-.287a4.475,4.475,0,0,1-.855-.327l-.824,1.8a7.317,7.317,0,0,0,.9.34q.574.183,1.288.346t1.457.269a10.2,10.2,0,0,0,1.4.1Z" fill="none" stroke="#69c6fd" stroke-linecap="round" stroke-linejoin="round" stroke-width="4"/>
          <path id="パス_4145" data-name="パス 4145" d="M38.782,32.939q.5-.13,1.039-.248c-.009.227-.018.457-.026.693s-.013.47-.013.705a7.609,7.609,0,0,0,.255,2.138,3.759,3.759,0,0,0,.686,1.366,2.866,2.866,0,0,0,.981.765,3.905,3.905,0,0,0,1.15.333,8.883,8.883,0,0,0,1.164.079,11.793,11.793,0,0,0,2.268-.216,10.958,10.958,0,0,0,2.438-.83L48.4,35.645a16.457,16.457,0,0,1-2.261.817,8.418,8.418,0,0,1-2.236.294,2.986,2.986,0,0,1-1.2-.241,1.482,1.482,0,0,1-.641-.556,2.024,2.024,0,0,1-.261-.771,6.551,6.551,0,0,1-.059-.9,19.567,19.567,0,0,1,.118-1.961q1.476-.236,3.006-.353v.2q0,.812.027,1.529t.078,1.19l1.909-.131c-.026-.253-.046-.542-.059-.869s-.019-.665-.019-1.013q0-.485.012-1.02.511-.014.994-.013c.305,0,.6.007.876.019s.54.029.785.046l.012-2q-.261-.026-.588-.039t-.706-.013c-.384,0-.81.009-1.281.026q.052-.706.118-1.3c.043-.392.091-.709.143-.954l-2-.039a9.84,9.84,0,0,0-.157,1.053q-.065.633-.091,1.379-1.4.117-2.8.313c.07-.409.146-.815.229-1.215s.172-.776.268-1.124l-2-.236c-.062.209-.15.571-.268,1.085s-.225,1.12-.32,1.818c-.5.095-.959.191-1.386.287s-.8.2-1.125.3l.314,1.961Q38.278,33.07,38.782,32.939Z" fill="none" stroke="#69c6fd" stroke-linecap="round" stroke-linejoin="round" stroke-width="4"/>
        </g>
      </g>
      <text id="おしらせ" transform="translate(2 38.103)" font-size="13.073" font-family="MochiyPopPOne-Regular, Mochiy Pop P One"><tspan x="0" y="0">おしらせ</tspan></text>
      <text id="おしらせ-2" data-name="おしらせ" transform="translate(2 38.103)" fill="#fff" font-size="13.073" font-family="MochiyPopPOne-Regular, Mochiy Pop P One"><tspan x="0" y="0">おしらせ</tspan></text>
    </g>
  </g>
</svg>
