<svg xmlns="http://www.w3.org/2000/svg" xmlns:xlink="http://www.w3.org/1999/xlink" width="124" height="31" viewBox="0 0 124 31">
  <defs>
    <clipPath id="clip-path">
      <rect id="長方形_305" data-name="長方形 305" width="124" height="31" fill="none"/>
    </clipPath>
  </defs>
  <g id="グループ_287" data-name="グループ 287" transform="translate(0 0)">
    <g id="グループ_286" data-name="グループ 286" transform="translate(0 0)" clip-path="url(#clip-path)">
      <g id="グループ_285" data-name="グループ 285" transform="translate(0 0)" style="isolation: isolate">
        <g id="グループ_284" data-name="グループ 284">
          <g id="グループ_283" data-name="グループ 283" clip-path="url(#clip-path)">
            <path id="パス_59" data-name="パス 59" d="M123.432,16.509q.035-1.494.107-3.144l.145-3.323q.071-1.616.154-2.97t.153-2.22a3.066,3.066,0,0,0-.738-2.254,3,3,0,0,0-2.116-1.035l-3.813-.195c-.052,0-.1,0-.155,0a3.028,3.028,0,0,0-3,2.765c-.133,1.443-.245,2.994-.334,4.608v0a8.334,8.334,0,0,0-1.794-1.284c-.256-.138-.521-.264-.793-.381l.055-.287a3.067,3.067,0,0,0-.577-2.439,3.011,3.011,0,0,0-2.193-1.176,11.149,11.149,0,0,1-2.412-.444,19.739,19.739,0,0,1-2.671-1.006c-.932-.428-1.823-.881-2.65-1.343A3,3,0,0,0,99.336,0a2.963,2.963,0,0,0-.89.136,3.019,3.019,0,0,0-1.805,1.541l-1.81,3.631a3.072,3.072,0,0,0,.189,3.066c-.149.063-.3.127-.442.192q-1.05.465-1.987.986l.034-1.28a3.042,3.042,0,0,0-2.238-3.027A13.493,13.493,0,0,0,88.3,4.867a20.3,20.3,0,0,0-2.193-.116c-.524,0-1.052.017-1.575.051-.17-.68-.355-1.332-.551-1.94A3.02,3.02,0,0,0,81.116.755a2.958,2.958,0,0,0-.42.03l-3.958.559A3.015,3.015,0,0,0,74.61,2.729a3.07,3.07,0,0,0-.335,2.533,50.317,50.317,0,0,1,1.273,5.028c.08.409.157.81.227,1.2A10.391,10.391,0,0,0,73.4,12.3a9.17,9.17,0,0,0-3.369,2.769l-2.13-1.19a2.989,2.989,0,0,0-2.5-.194A3.032,3.032,0,0,0,63.62,15.47a7.486,7.486,0,0,1-.662,1.307,5.959,5.959,0,0,1-.929,1.149,4.141,4.141,0,0,1-1.04.739,1.57,1.57,0,0,1-.726.172,2.381,2.381,0,0,1-1.02-.213.937.937,0,0,1-.417-.4,2.634,2.634,0,0,1-.2-1.212,13.569,13.569,0,0,1,.3-2.521,27.687,27.687,0,0,1,1-3.592A36.452,36.452,0,0,1,61.664,6.76a3.074,3.074,0,0,0,.091-2.5,3.035,3.035,0,0,0-1.793-1.725L56.124,1.173a2.976,2.976,0,0,0-1-.174,3.017,3.017,0,0,0-2.75,1.793c-.184.412-.35.814-.522,1.22-.386-.682-.772-1.333-1.149-1.92a3,3,0,0,0-3.878-1.064A2.978,2.978,0,0,0,45.179.537H41.873a2.994,2.994,0,0,0-1.681.516L38.439.605A2.977,2.977,0,0,0,36.22.9,3,3,0,0,0,34.584.414,2.947,2.947,0,0,0,33.892.5l-2.661.632a2.984,2.984,0,0,0-1.854-.011l-2.823.9c-.044.013-.081.039-.125.055A3,3,0,0,0,23.772.44H20.3A3.031,3.031,0,0,0,17.28,3.486V4.731a2.987,2.987,0,0,0-1.907-.685H14.118V3.509A3.031,3.031,0,0,0,11.1.463H7.747A3.031,3.031,0,0,0,4.73,3.509v.537H3.741A3.031,3.031,0,0,0,.724,7.092v3.264A3.055,3.055,0,0,0,1.4,12.278a3.069,3.069,0,0,0,.388,3.528c.8.9,1.608,1.867,2.407,2.892q-.282.358-.587.681a9.614,9.614,0,0,1-2.114,1.677,3.062,3.062,0,0,0-.455,4.929,6.039,6.039,0,0,1,.537.557q.416.475.8.953a4.887,4.887,0,0,1,.389.53,3.014,3.014,0,0,0,1.938,1.41,2.957,2.957,0,0,0,.653.073,3,3,0,0,0,1.693-.526,19.582,19.582,0,0,0,2.623-2.154,2.994,2.994,0,0,0,3.7-.17l1.2-1.039q.074.254.136.507a5.139,5.139,0,0,1,.14.758,3.028,3.028,0,0,0,3,2.768,24.341,24.341,0,0,0,3.031-.17,7.914,7.914,0,0,0,3.094-1.012,5.379,5.379,0,0,0,2.364-2.912h0a2.983,2.983,0,0,0,1.116.221h1.979v.827a3.031,3.031,0,0,0,3.017,3.046h3.355A3,3,0,0,0,38.179,28.5l.036.048a3,3,0,0,0,3.863.822,18.835,18.835,0,0,0,1.862-1.194,5.943,5.943,0,0,0,3.542,1.352c.044,0,.151,0,.2,0a4.892,4.892,0,0,0,2.714-.863,6.43,6.43,0,0,0,2.094-2.533,10.31,10.31,0,0,0,2.579,1.612,12.27,12.27,0,0,0,4.908.93,12.631,12.631,0,0,0,4.788-.867,13.177,13.177,0,0,0,3.61-2.185c.384-.329.735-.687,1.083-1.048a7.992,7.992,0,0,0,2.071,2.28,9.723,9.723,0,0,0,2.9,1.466,10.428,10.428,0,0,0,3.094.475,10,10,0,0,0,2.74-.407,8.809,8.809,0,0,0,2.968-1.524,8.039,8.039,0,0,0,2.153-2.6q.532.568,1.068,1.234a3.006,3.006,0,0,0,2.206,1.123c.045,0,.089,0,.135,0a3,3,0,0,0,2.162-.923l2.631-2.729a3.057,3.057,0,0,0,.587-3.348,2.709,2.709,0,0,0,2.169-.481,16.412,16.412,0,0,1,2.294-1.314,22.655,22.655,0,0,1,2.688-1.078,21.426,21.426,0,0,1,2.661-.694A12.235,12.235,0,0,1,106,15.841a8.05,8.05,0,0,1-1.1,1.113,15.034,15.034,0,0,1-2.492,1.679,20.467,20.467,0,0,1-3.241,1.41,3.059,3.059,0,0,0-1.022,5.181l3.234,2.852a2.992,2.992,0,0,0,3.3.444c1.239-.609,2.5-1.307,3.75-2.075a24.786,24.786,0,0,0,3.671-2.751,15.348,15.348,0,0,0,1.341-1.4,5.469,5.469,0,0,0-.285,1.732,5.333,5.333,0,0,0,1.484,3.758,5.068,5.068,0,0,0,3.753,1.6,5.263,5.263,0,0,0,3.754-1.459,5.166,5.166,0,0,0,1.556-3.805,5.61,5.61,0,0,0-.6-2.563,3.088,3.088,0,0,0,.288-1.676,1.472,1.472,0,0,1-.006-.172v-.608q0-1.115.035-2.6" transform="translate(0 0)" fill="#000333"/>
            <text id="対戦しよう_" data-name="対戦しよう!" transform="translate(2.751 23.382)" fill="#fff" font-size="24" font-family="MochiyPopPOne-Regular, Mochiy Pop P One"><tspan x="0" y="0">対戦しよう!</tspan></text>
          </g>
        </g>
      </g>
    </g>
  </g>
</svg>
