<svg xmlns="http://www.w3.org/2000/svg" xmlns:xlink="http://www.w3.org/1999/xlink" width="86" height="100" viewBox="0 0 86 100">
  <defs>
    <clipPath id="clip-path">
      <rect id="長方形_550" data-name="長方形 550" width="86" height="100" fill="none"/>
    </clipPath>
    <clipPath id="clip-path-3">
      <rect id="長方形_545" data-name="長方形 545" width="86" height="90.306" transform="translate(0 9.694)" fill="none"/>
    </clipPath>
    <clipPath id="clip-path-4">
      <rect id="長方形_546" data-name="長方形 546" width="78.09" height="100" fill="none"/>
    </clipPath>
    <clipPath id="clip-path-5">
      <rect id="長方形_547" data-name="長方形 547" width="25.741" height="26.226" transform="translate(6.191 6.785)" fill="none"/>
    </clipPath>
    <clipPath id="clip-path-6">
      <rect id="長方形_548" data-name="長方形 548" width="2.939" height="2.939" transform="translate(4.752 33.829)" fill="none"/>
    </clipPath>
  </defs>
  <g id="グループ_850" data-name="グループ 850" transform="translate(-242 -796)">
    <g id="グループ_695" data-name="グループ 695" transform="translate(242 796)" clip-path="url(#clip-path)">
      <g id="グループ_694" data-name="グループ 694">
        <g id="グループ_693" data-name="グループ 693" clip-path="url(#clip-path)">
          <path id="パス_3913" data-name="パス 3913" d="M43,0h0A43,43,0,0,1,86,43v57H0V43A43,43,0,0,1,43,0" fill="#fdd154"/>
          <g id="グループ_683" data-name="グループ 683" opacity="0.55">
            <g id="グループ_682" data-name="グループ 682">
              <g id="グループ_681" data-name="グループ 681" clip-path="url(#clip-path-3)">
                <path id="パス_3914" data-name="パス 3914" d="M70.193,9.694A42.88,42.88,0,0,1,84.108,41.359v57H0V100H86V43A42.912,42.912,0,0,0,70.193,9.694" fill="#997e3a"/>
              </g>
            </g>
          </g>
          <g id="グループ_686" data-name="グループ 686" opacity="0.55">
            <g id="グループ_685" data-name="グループ 685">
              <g id="グループ_684" data-name="グループ 684" clip-path="url(#clip-path-4)">
                <path id="パス_3915" data-name="パス 3915" d="M1.391,44.855a42.991,42.991,0,0,1,76.7-26.693A42.993,42.993,0,0,0,0,43v57H1.391Z" fill="#fff"/>
              </g>
            </g>
          </g>
          <g id="グループ_689" data-name="グループ 689" opacity="0.46">
            <g id="グループ_688" data-name="グループ 688">
              <g id="グループ_687" data-name="グループ 687" clip-path="url(#clip-path-5)">
                <path id="パス_3916" data-name="パス 3916" d="M7.69,33.011A1.5,1.5,0,0,1,6.3,30.944C13.288,13.83,29.192,7.171,29.865,6.9A1.5,1.5,0,0,1,31,9.673c-.154.063-15.425,6.49-21.921,22.4a1.5,1.5,0,0,1-1.39.934" fill="#fff"/>
              </g>
            </g>
          </g>
          <g id="グループ_692" data-name="グループ 692" opacity="0.46">
            <g id="グループ_691" data-name="グループ 691">
              <g id="グループ_690" data-name="グループ 690" clip-path="url(#clip-path-6)">
                <path id="パス_3917" data-name="パス 3917" d="M7.692,35.3a1.47,1.47,0,1,1-1.47-1.47,1.47,1.47,0,0,1,1.47,1.47" fill="#fff"/>
              </g>
            </g>
          </g>
        </g>
      </g>
    </g>
    <g id="レイヤー_2" data-name="レイヤー 2" transform="translate(259.716 809.769)">
      <g id="レイヤー_1" data-name="レイヤー 1">
        <path id="パス_3830" data-name="パス 3830" d="M25.284,52.479C11.342,52.479,0,41.927,0,28.956S11.342,5.434,25.284,5.434,50.568,15.986,50.568,28.956,39.226,52.479,25.284,52.479Z" transform="translate(0 0.956)" fill="#fff"/>
        <path id="パス_3831" data-name="パス 3831" d="M11.578,12.392A3.528,3.528,0,0,1,8.772,6.759C11.874,2.586,15.48,0,23.863,0c8.436,0,12.23,2.776,15.33,6.944a3.528,3.528,0,0,1-2.831,5.634Z" transform="translate(1.421)" fill="#fff"/>
        <path id="パス_3832" data-name="パス 3832" d="M11.006,4.537H37.4A4.183,4.183,0,0,1,41.585,8.72v2.626A4.184,4.184,0,0,1,37.4,15.531h-26.4a4.184,4.184,0,0,1-4.184-4.184V8.721a4.184,4.184,0,0,1,4.184-4.184Z" transform="translate(1.201 0.799)" fill="#fff"/>
        <path id="パス_3833" data-name="パス 3833" d="M11.756,38.884H36.275a4.16,4.16,0,0,1,4.16,4.16v2.672a4.161,4.161,0,0,1-4.161,4.161H11.756a4.16,4.16,0,0,1-4.16-4.16V43.045a4.161,4.161,0,0,1,4.161-4.161Z" transform="translate(1.337 6.844)" fill="#fff"/>
        <path id="パス_3834" data-name="パス 3834" d="M11.5,69.186a5.3,5.3,0,0,1-5.246-5.332,3.549,3.549,0,0,1,.075-.722L9.982,45.682a4.825,4.825,0,0,1,4.794-4.34H34.422a4.825,4.825,0,0,1,4.794,4.34l3.649,17.449a3.55,3.55,0,0,1,.075.722,5.3,5.3,0,0,1-5.246,5.332Z" transform="translate(1.102 7.276)" fill="#fff"/>
        <rect id="長方形_533" data-name="長方形 533" width="17.614" height="17.614" rx="3.838" transform="translate(16.546 49.665)" fill="#fff"/>
        <path id="パス_3835" data-name="パス 3835" d="M22.574,57.52a6.784,6.784,0,1,1,6.784-6.784,6.784,6.784,0,0,1-6.784,6.784Z" transform="translate(2.779 7.736)" fill="#fff"/>
        <path id="パス_3836" data-name="パス 3836" d="M20.007,46.268h4.954a3.705,3.705,0,0,1,3.705,3.705v.71a3.705,3.705,0,0,1-3.705,3.705H20.006A3.705,3.705,0,0,1,16.3,50.683v-.709a3.706,3.706,0,0,1,3.706-3.706Z" transform="translate(2.869 8.143)" fill="#fff"/>
        <path id="パス_3837" data-name="パス 3837" d="M26.912,42.251a7.065,7.065,0,1,1,1.522-.165,7.064,7.064,0,0,1-1.522.165Z" transform="translate(3.494 4.949)" fill="#fff"/>
        <path id="パス_3838" data-name="パス 3838" d="M26.978,42.758a7.508,7.508,0,1,1,5.85-2.8,7.505,7.505,0,0,1-5.85,2.8Z" transform="translate(3.428 4.883)" fill="#fff"/>
        <path id="パス_3839" data-name="パス 3839" d="M34.826,37.05a7.064,7.064,0,1,1,6.887-5.512A7.064,7.064,0,0,1,34.826,37.05Z" transform="translate(4.885 4.034)" fill="#fff"/>
        <path id="パス_3840" data-name="パス 3840" d="M34.891,37.556A7.5,7.5,0,1,1,42.209,31.7a7.506,7.506,0,0,1-7.318,5.856Z" transform="translate(4.819 3.968)" fill="#fff"/>
        <path id="パス_3841" data-name="パス 3841" d="M19.662,23.3a7.072,7.072,0,1,1,2.626-.509A7.072,7.072,0,0,1,19.662,23.3Z" transform="translate(2.215 1.611)" fill="#fff"/>
        <path id="パス_3842" data-name="パス 3842" d="M19.727,23.8a7.509,7.509,0,1,1,2.791-.54,7.509,7.509,0,0,1-2.791.54Z" transform="translate(2.149 1.546)" fill="#fff"/>
        <path id="パス_3843" data-name="パス 3843" d="M26.177,34.367a9.567,9.567,0,1,1,8.749-5.688A9.567,9.567,0,0,1,26.177,34.367Z" transform="translate(2.924 2.681)" fill="#fff"/>
        <path id="パス_3844" data-name="パス 3844" d="M26.266,35.044a10.159,10.159,0,1,1,9.284-6.036A10.159,10.159,0,0,1,26.266,35.044Zm.007-12.082a1.925,1.925,0,0,0-.784,3.682,1.88,1.88,0,0,0,.778.167,1.925,1.925,0,0,0,.007-3.85Z" transform="translate(2.835 2.592)" fill="#fff"/>
        <path id="パス_3845" data-name="パス 3845" d="M15.722,43.4a9.567,9.567,0,0,1-.54-19.119c.2-.01.376-.016.555-.016a9.567,9.567,0,0,1,.54,19.119C16.081,43.392,15.9,43.4,15.722,43.4Z" transform="translate(1.084 4.27)" fill="#fff"/>
        <path id="パス_3846" data-name="パス 3846" d="M15.811,44.074a10.155,10.155,0,0,1-.573-20.294c.194-.011.39-.017.586-.017A10.155,10.155,0,0,1,16.4,44.057C16.2,44.068,16.006,44.074,15.811,44.074ZM15.695,32a1.924,1.924,0,0,0,.116,3.843l.129,0A1.923,1.923,0,0,0,15.824,32Z" transform="translate(0.996 4.182)" fill="#fff"/>
        <path id="パス_3847" data-name="パス 3847" d="M13.1,30.057A7.064,7.064,0,1,1,19.929,24.8,7.064,7.064,0,0,1,13.1,30.057Z" transform="translate(1.062 2.804)" fill="#fff"/>
        <path id="パス_3848" data-name="パス 3848" d="M13.169,30.564a7.506,7.506,0,1,1,6.5-3.763A7.5,7.5,0,0,1,13.169,30.564Z" transform="translate(0.996 2.737)" fill="#fff"/>
        <path id="パス_3849" data-name="パス 3849" d="M9.2,37.755a3.528,3.528,0,0,1-3.473-4.148c.557-3.122,3.272-9.112,9.56-9.43.169-.009.335-.013.5-.013,5.935,0,9.093,5.207,10.024,8.284a3.528,3.528,0,0,1-3.175,4.543L9.4,37.749C9.333,37.753,9.265,37.755,9.2,37.755Z" transform="translate(0.998 4.253)" fill="#fff"/>
        <path id="パス_3850" data-name="パス 3850" d="M10.854,36.163a4.138,4.138,0,0,1-1-.134,3.823,3.823,0,0,1-2.686-4.684A8.5,8.5,0,0,1,12.9,25.11v0c.087-.016.181-.03.276-.04l.064-.007c.116-.01.233-.016.341-.016a3.825,3.825,0,0,1,2.652,6.572,3.718,3.718,0,0,1-1.148.766,1.856,1.856,0,0,0-.539.941,3.818,3.818,0,0,1-3.693,2.84Z" transform="translate(1.238 4.408)" fill="#fff"/>
        <path id="パス_3851" data-name="パス 3851" d="M10.65,36.286a3.849,3.849,0,0,1-.21-7.693c.064,0,.147-.006.211-.006a3.849,3.849,0,0,1,.212,7.693C10.8,36.284,10.716,36.286,10.65,36.286Z" transform="translate(1.197 5.031)" fill="#fff"/>
        <path id="パス_3852" data-name="パス 3852" d="M32.241,31.031a3.522,3.522,0,0,1-1.431-.3L18.695,25.351a3.528,3.528,0,0,1-1.375-5.364c.379-.5,3.846-4.848,9.011-4.848a9.185,9.185,0,0,1,3.8.831c5.694,2.572,6.185,8.859,5.579,12.169a3.528,3.528,0,0,1-3.471,2.892Z" transform="translate(2.921 2.664)" fill="#fff"/>
        <path id="パス_3853" data-name="パス 3853" d="M22.274,25.18a3.822,3.822,0,0,1-2.834-6.386,9.141,9.141,0,0,1,6.641-3.11,4.211,4.211,0,0,1,1.673.3,3.822,3.822,0,0,1-.338,7.18,4.112,4.112,0,0,1-1.132.172c-.067,0-.132,0-.2,0a1.693,1.693,0,0,0-.978.588A3.837,3.837,0,0,1,22.274,25.18Z" transform="translate(3.248 2.76)" fill="#fff"/>
        <path id="パス_3854" data-name="パス 3854" d="M21.814,25.383a3.849,3.849,0,1,1,3.527-2.3A3.849,3.849,0,0,1,21.814,25.383Z" transform="translate(3.162 3.113)" fill="#fff"/>
        <path id="パス_3855" data-name="パス 3855" d="M16.971,27.538a3.527,3.527,0,0,1-.9-.118l-7.556-2A3.527,3.527,0,0,1,6,21.108a8.82,8.82,0,0,1,7.341-5.174,5.727,5.727,0,0,1,1.787.283c3.844,1.257,5.078,6.086,5.286,7.041a3.527,3.527,0,0,1-3.446,4.28Z" transform="translate(1.036 2.804)" fill="#fff"/>
        <path id="パス_3856" data-name="パス 3856" d="M10.886,24.971a3.675,3.675,0,0,1-3.066-5.7,6.487,6.487,0,0,1,5.129-3.031,3.821,3.821,0,0,1,.844.1h0a3.676,3.676,0,0,1,.748,6.892h0a3.731,3.731,0,0,1-.691.247,3.644,3.644,0,0,1-2.962,1.5Z" transform="translate(1.269 2.858)" fill="#fff"/>
        <path id="パス_3857" data-name="パス 3857" d="M10.659,25.091a3.877,3.877,0,0,1-.97-.13,3.7,3.7,0,0,1,.969-7.27,3.873,3.873,0,0,1,.96.127,3.7,3.7,0,0,1-.959,7.273Z" transform="translate(1.225 3.114)" fill="#fff"/>
        <path id="パス_3858" data-name="パス 3858" d="M16.1,21.169a3.529,3.529,0,0,1-3.277-2.222c-.7-1.768.163-4.7.692-5.842a6.3,6.3,0,0,1,3.711-3.524,6.078,6.078,0,0,1,1.936-.309c3.132,0,5.972,2.331,6.509,2.8a3.529,3.529,0,0,1-1,5.937l-7.256,2.909A3.53,3.53,0,0,1,16.1,21.169Z" transform="translate(2.21 1.632)" fill="#fff"/>
        <path id="パス_3859" data-name="パス 3859" d="M16.951,19.649a3.69,3.69,0,0,1-3.666-3.4,6.2,6.2,0,0,1,3.035-5.985,3.826,3.826,0,0,1,1.46-.3,3.674,3.674,0,0,1,3.267,5.359,3.6,3.6,0,0,1-.423.636,3.69,3.69,0,0,1-3.441,3.689C17.106,19.646,17.028,19.649,16.951,19.649Z" transform="translate(2.332 1.753)" fill="#fff"/>
        <path id="パス_3860" data-name="パス 3860" d="M16.945,19.7a3.7,3.7,0,0,1-1.382-7.132,3.868,3.868,0,0,1,1.382-.268,3.7,3.7,0,0,1,1.4,7.126A3.875,3.875,0,0,1,16.945,19.7Z" transform="translate(2.331 2.166)" fill="#fff"/>
        <path id="パス_3861" data-name="パス 3861" d="M23.193,39.532a3.529,3.529,0,0,1-3.441-2.765c-.411-1.852.919-4.6,1.627-5.647a6.3,6.3,0,0,1,4.249-2.882,5.86,5.86,0,0,1,.934-.074c3.487,0,6.231,3,6.989,3.914a3.529,3.529,0,0,1-1.963,5.692L23.954,39.45a3.572,3.572,0,0,1-.761.083Z" transform="translate(3.463 4.957)" fill="#fff"/>
        <path id="パス_3862" data-name="パス 3862" d="M24.251,38.219c-.117,0-.25-.006-.366-.018a3.69,3.69,0,0,1-3.29-4.02A6.1,6.1,0,0,1,24.562,28.8a3.855,3.855,0,0,1,.891-.11,3.677,3.677,0,0,1,2.962,5.855,3.611,3.611,0,0,1-.534.574,3.648,3.648,0,0,1-3.63,3.1Z" transform="translate(3.622 5.05)" fill="#fff"/>
        <path id="パス_3863" data-name="パス 3863" d="M24.188,38.294a3.7,3.7,0,0,1-.782-7.316,3.85,3.85,0,0,1,.782-.084,3.7,3.7,0,0,1,.8,7.312,3.873,3.873,0,0,1-.8.088Z" transform="translate(3.606 5.437)" fill="#fff"/>
        <path id="パス_3864" data-name="パス 3864" d="M38.733,34.387a3.521,3.521,0,0,1-.775-.086l-7.627-1.718a3.527,3.527,0,0,1-2.666-4.222,8.715,8.715,0,0,1,7.361-5.441,5.7,5.7,0,0,1,1.576.221c3.887,1.113,5.3,5.891,5.547,6.838a3.529,3.529,0,0,1-3.417,4.409Z" transform="translate(4.854 4.034)" fill="#fff"/>
        <path id="パス_3865" data-name="パス 3865" d="M32.554,32.039a3.83,3.83,0,0,1-1.826-.486A3.706,3.706,0,0,1,29.4,26.485a6.492,6.492,0,0,1,5.178-3.254,3.722,3.722,0,0,1,.722.072,3.669,3.669,0,0,1,.3,7.127A3.69,3.69,0,0,1,32.554,32.039Z" transform="translate(5.085 4.089)" fill="#fff"/>
        <path id="パス_3866" data-name="パス 3866" d="M32.311,32.255a3.7,3.7,0,1,1,3.7-3.7,3.7,3.7,0,0,1-3.7,3.7Z" transform="translate(5.035 4.375)" fill="#fff"/>
        <path id="パス_3867" data-name="パス 3867" d="M32.722,24.65a6.473,6.473,0,1,1,1.233-.118A6.473,6.473,0,0,1,32.722,24.65Z" transform="translate(4.62 2.06)" fill="#fff"/>
        <path id="パス_3868" data-name="パス 3868" d="M32.789,25.158a6.917,6.917,0,1,1,1.317-.126A6.916,6.916,0,0,1,32.789,25.158Z" transform="translate(4.554 1.993)" fill="#fff"/>
        <path id="パス_3869" data-name="パス 3869" d="M29.554,22.332a3.527,3.527,0,0,1-3.464-2.858c-.366-1.9,1.069-4.436,1.6-5.177a5.877,5.877,0,0,1,4.03-2.569,5.458,5.458,0,0,1,.737-.049c3.263,0,5.727,2.82,6.4,3.684A3.527,3.527,0,0,1,36.758,21l-6.533,1.264a3.529,3.529,0,0,1-.671.064Z" transform="translate(4.581 2.055)" fill="#fff"/>
        <path id="パス_3870" data-name="パス 3870" d="M30.48,21.269c-.115,0-.248-.007-.363-.018a3.676,3.676,0,0,1-3.282-4.126,5.794,5.794,0,0,1,3.8-4.914l.13-.032a3.822,3.822,0,0,1,.79-.086,3.675,3.675,0,0,1,2.9,5.931,3.369,3.369,0,0,1-.4.432,3.678,3.678,0,0,1-3.573,2.811Z" transform="translate(4.718 2.129)" fill="#fff"/>
        <path id="パス_3871" data-name="パス 3871" d="M30.422,21.4a3.672,3.672,0,0,1-3.37-2.212,3.816,3.816,0,0,1-.063-2.773,3.654,3.654,0,0,1,1.939-2.047,3.828,3.828,0,0,1,1.494-.317,3.673,3.673,0,0,1,3.366,2.2,3.818,3.818,0,0,1,.05,2.826A3.653,3.653,0,0,1,31.876,21.1,3.834,3.834,0,0,1,30.422,21.4Z" transform="translate(4.71 2.473)" fill="#fff"/>
        <ellipse id="楕円形_116" data-name="楕円形 116" cx="21.756" cy="19.995" rx="21.756" ry="19.995" transform="translate(3.529 9.918)" fill="#e3f3fe" stroke="#f78733" stroke-miterlimit="10" stroke-width="2"/>
        <path id="パス_3872" data-name="パス 3872" d="M11.076,8.336C13.684,4.829,16.391,3,23.335,3c7.033,0,9.919,2.054,12.5,5.522Z" transform="translate(1.949 0.528)" fill="#f78733"/>
        <rect id="長方形_534" data-name="長方形 534" width="27.707" height="3.938" rx="0.557" transform="translate(11.551 8.863)" fill="#f78733"/>
        <rect id="長方形_535" data-name="長方形 535" width="25.783" height="3.938" rx="0.538" transform="translate(12.461 49.255)" fill="#f78733"/>
        <path id="パス_3873" data-name="パス 3873" d="M37.165,65.13H10.977a1.763,1.763,0,0,1-1.718-1.8l3.7-17.695a1.289,1.289,0,0,1,1.289-1.289H33.894a1.289,1.289,0,0,1,1.289,1.289l3.7,17.695A1.763,1.763,0,0,1,37.165,65.13Z" transform="translate(1.63 7.804)" fill="#f78733"/>
        <rect id="長方形_536" data-name="長方形 536" width="10.558" height="10.558" rx="0.838" transform="translate(20.073 53.193)" fill="#ccc"/>
        <circle id="楕円形_117" data-name="楕円形 117" cx="3.256" cy="3.256" r="3.256" transform="translate(22.096 55.215)" fill="#999"/>
        <rect id="長方形_537" data-name="長方形 537" width="5.309" height="1.065" rx="0.151" transform="translate(22.698 57.939)" fill="#666"/>
        <path id="パス_3874" data-name="パス 3874" d="M26.384,38.195a3.538,3.538,0,1,1,.764-.083A3.576,3.576,0,0,1,26.384,38.195Z" transform="translate(4.022 5.478)" fill="#fff"/>
        <path id="パス_3875" data-name="パス 3875" d="M26.458,31.629h0a3.1,3.1,0,1,1-.668.073,3.1,3.1,0,0,1,.668-.073m0-.882a3.977,3.977,0,1,0,3.88,3.123,3.977,3.977,0,0,0-3.88-3.123Z" transform="translate(3.956 5.412)" fill="#bb94f2"/>
        <path id="パス_3876" data-name="パス 3876" d="M34.3,32.993a3.536,3.536,0,1,1,3.445-2.76,3.536,3.536,0,0,1-3.445,2.76Z" transform="translate(5.413 4.562)" fill="#fff"/>
        <path id="パス_3877" data-name="パス 3877" d="M34.357,25.546v.882a3.095,3.095,0,1,1-3.015,2.415,3.1,3.1,0,0,1,3.015-2.415v-.882m0,0a3.98,3.98,0,1,0,.878.1A3.98,3.98,0,0,0,34.357,25.546Z" transform="translate(5.346 4.496)" fill="#ef93bb"/>
        <path id="パス_3878" data-name="パス 3878" d="M19.133,19.24a3.541,3.541,0,1,1,1.314-.255,3.541,3.541,0,0,1-1.314.255Z" transform="translate(2.743 2.14)" fill="#fff"/>
        <path id="パス_3879" data-name="パス 3879" d="M19.2,12.673h0a3.1,3.1,0,1,1-1.15.223,3.1,3.1,0,0,1,1.15-.223m0-.882a3.977,3.977,0,1,0,3.692,2.5,3.977,3.977,0,0,0-3.692-2.5Z" transform="translate(2.678 2.075)" fill="#04b2d9"/>
        <path id="パス_3880" data-name="パス 3880" d="M25.649,30.311a6.04,6.04,0,1,1,5.524-3.591A6.04,6.04,0,0,1,25.649,30.311Z" transform="translate(3.452 3.209)" fill="#fff"/>
        <path id="パス_3881" data-name="パス 3881" d="M25.745,18.906h0a5.452,5.452,0,1,1-4.986,3.241,5.452,5.452,0,0,1,4.986-3.241m0-1.176a6.631,6.631,0,1,0,2.685.572A6.631,6.631,0,0,0,25.745,17.73Z" transform="translate(3.363 3.12)" fill="#f27d16"/>
        <path id="パス_3882" data-name="パス 3882" d="M15.194,39.341a6.039,6.039,0,0,1-.338-12.068c.118-.006.235-.01.353-.01a6.039,6.039,0,0,1,.338,12.068C15.428,39.338,15.311,39.341,15.194,39.341Z" transform="translate(1.612 4.798)" fill="#fff"/>
        <path id="パス_3883" data-name="パス 3883" d="M15.3,27.939A5.451,5.451,0,0,1,15.6,38.833q-.16.009-.318.009a5.451,5.451,0,0,1-.305-10.894q.16-.009.318-.009m0-1.176q-.191,0-.385.011a6.627,6.627,0,0,0,.373,13.244q.191,0,.385-.011A6.627,6.627,0,0,0,15.3,26.763Z" transform="translate(1.525 4.71)" fill="#f2b705"/>
        <path id="パス_3884" data-name="パス 3884" d="M12.575,26a3.536,3.536,0,1,1,3.5-3.08A3.536,3.536,0,0,1,12.575,26Z" transform="translate(1.59 3.331)" fill="#fff"/>
        <path id="パス_3885" data-name="パス 3885" d="M12.637,19.436h0m0-.882a3.98,3.98,0,1,0,1.021.134,3.98,3.98,0,0,0-1.021-.134Z" transform="translate(1.523 3.265)" fill="#fff" stroke="#6bc8e9" stroke-width="1"/>
        <path id="パス_3886" data-name="パス 3886" d="M8.671,33.7,21.9,32.941s-1.822-6.03-6.968-5.769S8.671,33.7,8.671,33.7Z" transform="translate(1.526 4.781)" fill="#f2b705"/>
        <path id="パス_3887" data-name="パス 3887" d="M10.326,32.107a.286.286,0,0,1-.076-.01.294.294,0,0,1-.208-.36,5.3,5.3,0,0,1,2.979-3.691.3.3,0,0,1,.3.172.3.3,0,0,1-.064.335.29.29,0,0,1-.149.078,4.981,4.981,0,0,0-2.493,3.257.293.293,0,0,1-.284.219Z" transform="translate(1.766 4.936)" fill="#fff" opacity="0.55"/>
        <circle id="楕円形_118" data-name="楕円形 118" cx="0.321" cy="0.321" r="0.321" transform="translate(11.527 37.147)" fill="#fff" opacity="0.55"/>
        <path id="パス_3888" data-name="パス 3888" d="M19.6,21.6l12.115,5.377s1.137-6.2-3.559-8.317S19.6,21.6,19.6,21.6Z" transform="translate(3.449 3.192)" fill="#f27d16"/>
        <path id="パス_3889" data-name="パス 3889" d="M21.747,21.12a.294.294,0,0,1-.218-.491,5.31,5.31,0,0,1,4.339-1.92.295.295,0,0,1-.024.556.286.286,0,0,1-.17,0,5.01,5.01,0,0,0-3.708,1.757A.294.294,0,0,1,21.747,21.12Z" transform="translate(3.776 3.292)" fill="#fff" opacity="0.55"/>
        <circle id="楕円形_119" data-name="楕円形 119" cx="0.321" cy="0.321" r="0.321" transform="translate(24.656 24.324)" fill="#fff" opacity="0.55"/>
        <path id="パス_3890" data-name="パス 3890" d="M8.886,21.7,16.9,23.879s-.867-4.074-3.115-4.828S8.959,21.418,8.886,21.7Z" transform="translate(1.474 3.134)" fill="#6bc8e9"/>
        <path id="パス_3891" data-name="パス 3891" d="M10.358,20.914a.148.148,0,0,1-.08-.024.147.147,0,0,1-.043-.2,2.957,2.957,0,0,1,2.22-1.446.148.148,0,0,1,.031.277.128.128,0,0,1-.085.013,2.806,2.806,0,0,0-1.92,1.316.145.145,0,0,1-.123.067Z" transform="translate(1.797 3.387)" fill="#fff" opacity="0.55"/>
        <circle id="楕円形_120" data-name="楕円形 120" cx="0.172" cy="0.172" r="0.172" transform="translate(11.712 24.333)" fill="#fff" opacity="0.55"/>
        <path id="パス_3892" data-name="パス 3892" d="M15.572,17.113,22.828,14.2S19.934,11.688,17.82,12.4,15.472,16.862,15.572,17.113Z" transform="translate(2.737 2.16)" fill="#04b2d9"/>
        <path id="パス_3893" data-name="パス 3893" d="M16.422,15.592a.148.148,0,0,1-.147-.137,2.969,2.969,0,0,1,.918-2.486A.15.15,0,0,1,17.36,13a.148.148,0,0,1,.024.169.146.146,0,0,1-.061.063,2.8,2.8,0,0,0-.753,2.2.147.147,0,0,1-.138.156Z" transform="translate(2.861 2.28)" fill="#fff" opacity="0.55"/>
        <circle id="楕円形_121" data-name="楕円形 121" cx="0.172" cy="0.172" r="0.172" transform="translate(19.104 17.998)" fill="#fff" opacity="0.55"/>
        <path id="パス_3894" data-name="パス 3894" d="M22.669,35.476,30.3,33.8s-2.442-2.957-4.644-2.6S22.611,35.212,22.669,35.476Z" transform="translate(3.989 5.485)" fill="#bb94f2"/>
        <path id="パス_3895" data-name="パス 3895" d="M23.723,34.163h-.015A.147.147,0,0,1,23.578,34a2.966,2.966,0,0,1,1.313-2.3.148.148,0,0,1,.085.283,2.807,2.807,0,0,0-1.106,2.049A.146.146,0,0,1,23.723,34.163Z" transform="translate(4.15 5.578)" fill="#fff" opacity="0.55"/>
        <circle id="楕円形_122" data-name="楕円形 122" cx="0.172" cy="0.172" r="0.172" transform="translate(27.621 39.859)" fill="#fff" opacity="0.55"/>
        <path id="パス_3896" data-name="パス 3896" d="M30.578,28.613,38.2,30.331S37.247,26.617,35.1,26,30.638,28.349,30.578,28.613Z" transform="translate(5.382 4.562)" fill="#ef93bb"/>
        <path id="パス_3897" data-name="パス 3897" d="M32.028,27.983a.154.154,0,0,1-.076-.021.148.148,0,0,1-.051-.2,2.972,2.972,0,0,1,2.166-1.528.148.148,0,0,1,.042.275.144.144,0,0,1-.085.017,2.806,2.806,0,0,0-1.871,1.386A.147.147,0,0,1,32.028,27.983Z" transform="translate(5.611 4.617)" fill="#fff" opacity="0.55"/>
        <circle id="楕円形_123" data-name="楕円形 123" cx="0.172" cy="0.172" r="0.172" transform="translate(37.174 32.758)" fill="#fff" opacity="0.55"/>
        <path id="パス_3898" data-name="パス 3898" d="M32.194,20.594a2.945,2.945,0,1,1,.563-.054A2.945,2.945,0,0,1,32.194,20.594Z" transform="translate(5.148 2.588)" fill="#fff"/>
        <path id="パス_3899" data-name="パス 3899" d="M32.267,15.212a2.506,2.506,0,1,1-.48.046,2.534,2.534,0,0,1,.48-.046m0-.882a3.385,3.385,0,1,0,3.319,2.742,3.385,3.385,0,0,0-3.319-2.742Z" transform="translate(5.082 2.522)" fill="#ff5685"/>
        <path id="パス_3900" data-name="パス 3900" d="M29.027,18.276l6.533-1.264s-2.014-2.569-3.9-2.316S28.983,18.05,29.027,18.276Z" transform="translate(5.108 2.583)" fill="#ff5685"/>
        <path id="パス_3901" data-name="パス 3901" d="M29.952,17.213h-.018a.147.147,0,0,1-.127-.164A2.546,2.546,0,0,1,30.991,15.1a.146.146,0,0,1,.157.065.149.149,0,0,1-.009.17.143.143,0,0,1-.069.048,2.39,2.39,0,0,0-.973,1.7.146.146,0,0,1-.146.129Z" transform="translate(5.246 2.657)" fill="#fff" opacity="0.55"/>
        <circle id="楕円形_124" data-name="楕円形 124" cx="0.146" cy="0.146" r="0.146" transform="translate(34.986 20.049)" fill="#fff" opacity="0.55"/>
      </g>
    </g>
    <text id="ガチャ" transform="translate(285 882)" fill="#fff" stroke="#05c7f2" stroke-linecap="round" stroke-linejoin="round" stroke-width="3" font-size="14" font-family="MochiyPopPOne-Regular, Mochiy Pop P One"><tspan x="-19.474" y="0">ガチャ</tspan></text>
    <text id="ガチャ-2" data-name="ガチャ" transform="translate(285 882)" fill="#fff" font-size="14" font-family="MochiyPopPOne-Regular, Mochiy Pop P One"><tspan x="-19.474" y="0">ガチャ</tspan></text>
  </g>
</svg>
