<svg xmlns="http://www.w3.org/2000/svg" xmlns:xlink="http://www.w3.org/1999/xlink" width="65" height="70" viewBox="0 0 65 70">
  <defs>
    <clipPath id="clip-path">
      <rect id="長方形_490" data-name="長方形 490" width="65" height="70" transform="translate(-399 1878)" fill="#fff" stroke="#707070" stroke-width="1"/>
    </clipPath>
    <clipPath id="clip-path-2">
      <rect id="長方形_489" data-name="長方形 489" width="51.773" height="64.918" transform="translate(0 0)" fill="none"/>
    </clipPath>
  </defs>
  <g id="goods" transform="translate(399 -1878)" clip-path="url(#clip-path)">
    <g id="グループ_611" data-name="グループ 611" transform="translate(-392.387 1880.541)">
      <g id="グループ_610" data-name="グループ 610">
        <g id="グループ_609" data-name="グループ 609" clip-path="url(#clip-path-2)">
          <path id="パス_3342" data-name="パス 3342" d="M28.462,19.121c-3.406-1.174-8.333-8.779-6.719-10.81,1.236-1.558,5.549-4.674,7.594-5.161s6.915,0,7.109,4.675c.585-.585,1.182-1.728,3.9-1.072,2.874.7,7.138,3.191,5.551,6.72-2.14,4.754-4.772,6.232-6.817,6.817.876,1.558,5.356,10.42,5.843,16.165s3.7,18.5-13.829,17.334S4.993,49.212,3.726,44.83s-2.532-10.907,11.588-18.7S28.462,19.121,28.462,19.121Z" fill="none" stroke="#fff" stroke-linecap="round" stroke-linejoin="round" stroke-width="6"/>
          <path id="パス_3343" data-name="パス 3343" d="M40.836,19.7a30.852,30.852,0,0,1,3.31-4.057c1.317-1.175,2.313-2.064,3.843-1.21s.912,6.461-2.669,6.655S42.117,21.264,40.836,19.7Z" fill="none" stroke="#fff" stroke-linecap="round" stroke-linejoin="round" stroke-width="6"/>
          <path id="パス_3344" data-name="パス 3344" d="M45.892,19.487c-3.442.186-3.627-.15-4.421-.676-.383.522-.635.886-.635.886,1.281,1.566.9,1.582,4.484,1.388a3.608,3.608,0,0,0,3.143-2.726C47.9,19.271,47.1,19.421,45.892,19.487Z" fill="none" stroke="#fff" stroke-linecap="round" stroke-linejoin="round" stroke-width="6"/>
          <path id="パス_3345" data-name="パス 3345" d="M41.655,19.624A30.868,30.868,0,0,1,46.4,21.845c1.46.991,2.565,1.74,2.11,3.432s-6.044,2.46-7.1-.966S40.449,21.248,41.655,19.624Z" fill="none" stroke="#fff" stroke-linecap="round" stroke-linejoin="round" stroke-width="6"/>
          <path id="パス_3346" data-name="パス 3346" d="M41.988,20.354a2.462,2.462,0,1,1-2.461-2.461A2.461,2.461,0,0,1,41.988,20.354Z" fill="none" stroke="#fff" stroke-linecap="round" stroke-linejoin="round" stroke-width="6"/>
          <path id="パス_3347" data-name="パス 3347" d="M41.861,19.578A3.362,3.362,0,0,1,38.017,22.3a2.458,2.458,0,0,0,3.844-2.717Z" fill="none" stroke="#fff" stroke-linecap="round" stroke-linejoin="round" stroke-width="6"/>
          <path id="パス_3348" data-name="パス 3348" d="M25.479,28.645c-6.029,0-10.917,3.948-10.917,8.818S19.45,46.28,25.479,46.28,36.4,42.333,36.4,37.463,31.508,28.645,25.479,28.645Zm0,14.99c-4.221,0-7.642-2.763-7.642-6.172s3.651-7.108,7.872-7.108a7.53,7.53,0,0,1,7.412,7.108C33.121,40.872,29.7,43.635,25.479,43.635Z" fill="none" stroke="#fff" stroke-linecap="round" stroke-linejoin="round" stroke-width="6"/>
          <path id="パス_3349" data-name="パス 3349" d="M26.819,37.914c-.672.67,1.865,8.2,3.018,9.607.535.649,4.575-.64,4.484-1.281s-2.837-8.234-3.752-8.875A3.561,3.561,0,0,0,26.819,37.914Z" fill="none" stroke="#fff" stroke-linecap="round" stroke-linejoin="round" stroke-width="6"/>
          <path id="パス_3350" data-name="パス 3350" d="M37.715,49.14c-5.536,3.075-10.994.846-16.607,1.307-3.533.29-6.121.581-7.554.756a90.307,90.307,0,0,0,17.537,2.586c11,.733,13.83-4.016,14.294-9.075C43.421,45.648,41.121,47.248,37.715,49.14Z" fill="none" stroke="#fff" stroke-linecap="round" stroke-linejoin="round" stroke-width="6"/>
          <path id="パス_3351" data-name="パス 3351" d="M28.462,19.121c-3.406-1.174-8.333-8.779-6.719-10.81,1.236-1.558,5.549-4.674,7.594-5.161s6.915,0,7.109,4.675c.585-.585,1.182-1.728,3.9-1.072,2.874.7,7.138,3.191,5.551,6.72-2.14,4.754-4.772,6.232-6.817,6.817.876,1.558,5.356,10.42,5.843,16.165s3.7,18.5-13.829,17.334S4.993,49.212,3.726,44.83s-2.532-10.907,11.588-18.7,13.148-7.012,13.148-7.012" fill="#cc986d"/>
          <path id="パス_3352" data-name="パス 3352" d="M40.836,19.7a30.852,30.852,0,0,1,3.31-4.057c1.317-1.175,2.313-2.064,3.843-1.21s.912,6.461-2.669,6.655-3.2.178-4.484-1.388" fill="#69c6ff"/>
          <path id="パス_3353" data-name="パス 3353" d="M45.892,19.487c-3.442.186-3.627-.15-4.421-.676-.383.522-.635.886-.635.886,1.281,1.566.9,1.582,4.484,1.388a3.608,3.608,0,0,0,3.143-2.726c-.564.912-1.358,1.062-2.571,1.128" fill="#469bc6"/>
          <path id="パス_3354" data-name="パス 3354" d="M41.655,19.624A30.868,30.868,0,0,1,46.4,21.845c1.46.991,2.565,1.74,2.11,3.432s-6.044,2.46-7.1-.966-.953-3.063.253-4.687" fill="#69c6ff"/>
          <path id="パス_3355" data-name="パス 3355" d="M41.988,20.354a2.462,2.462,0,1,1-2.461-2.461,2.461,2.461,0,0,1,2.461,2.461" fill="#69c6ff"/>
          <path id="パス_3356" data-name="パス 3356" d="M41.861,19.578A3.362,3.362,0,0,1,38.017,22.3a2.458,2.458,0,0,0,3.844-2.717" fill="#469bc6"/>
          <path id="パス_3357" data-name="パス 3357" d="M25.479,28.645c-6.029,0-10.917,3.948-10.917,8.818S19.45,46.28,25.479,46.28,36.4,42.333,36.4,37.463s-4.888-8.818-10.917-8.818m0,14.99c-4.221,0-7.642-2.763-7.642-6.172s3.651-7.108,7.872-7.108a7.53,7.53,0,0,1,7.412,7.108c0,3.409-3.421,6.172-7.642,6.172" fill="#af7e5a"/>
          <path id="パス_3358" data-name="パス 3358" d="M26.819,37.914c-.672.67,1.865,8.2,3.018,9.607.535.649,4.575-.64,4.484-1.281s-2.837-8.234-3.752-8.875a3.561,3.561,0,0,0-3.75.549" fill="#af7e5a"/>
          <path id="パス_3359" data-name="パス 3359" d="M37.715,49.14c-5.536,3.075-10.994.846-16.607,1.307-3.533.29-6.121.581-7.554.756a90.307,90.307,0,0,0,17.537,2.586c11,.733,13.83-4.016,14.294-9.075-1.964.934-4.264,2.534-7.67,4.426" fill="#af7e5a"/>
          <path id="パス_3360" data-name="パス 3360" d="M4.377,56.727q.359,0,.785-.036t.907-.084a5.422,5.422,0,0,0,.647,1.74,3.289,3.289,0,0,0,1.236,1.206,3.926,3.926,0,0,0,1.944.438,4.926,4.926,0,0,0,1.861-.318,3.988,3.988,0,0,0,1.314-.846,5,5,0,0,0,.887-1.182,8.69,8.69,0,0,0,.582-1.314L12.957,55.4a6.15,6.15,0,0,1-1.188,2.088,2.328,2.328,0,0,1-1.776.744,2.252,2.252,0,0,1-.865-.168,1.717,1.717,0,0,1-.72-.588,2.954,2.954,0,0,1-.468-1.164q1.092-.2,2.112-.45t1.681-.45l-.42-1.632q-.649.2-1.584.414T7.8,54.567q.012-.4.042-.81t.09-.834c.408-.024.811-.042,1.212-.054s.779-.018,1.139-.018c.288,0,.559.006.81.018s.478.026.679.042l.071-1.644a9.03,9.03,0,0,0-1-.108c-.391-.024-.82-.036-1.283-.036-.417,0-.844.008-1.285.024a15.311,15.311,0,0,1,.516-1.62l-1.823-.384q-.181.5-.336,1.044c-.1.36-.2.724-.288,1.092q-.78.084-1.465.2a8.115,8.115,0,0,0-1.163.27l.072,1.56q.395-.06.977-.126c.389-.044.81-.086,1.266-.126-.04.3-.069.606-.089.906s-.031.594-.031.882v.024q-.564.084-1.044.132c-.319.032-.6.056-.839.072l.107,1.656Z" fill="none" stroke="#ff9239" stroke-linecap="round" stroke-linejoin="round" stroke-width="4"/>
          <path id="パス_3361" data-name="パス 3361" d="M17.648,56.762a7.338,7.338,0,0,1,1.188-.936,4.837,4.837,0,0,1,1.02-.486,3.855,3.855,0,0,1,.828-.18q.36-.03.588-.03a2.945,2.945,0,0,1,.888.132,1.527,1.527,0,0,1,.684.42,1.058,1.058,0,0,1,.264.744,1.2,1.2,0,0,1-.276.75,3.154,3.154,0,0,1-.714.654,6.256,6.256,0,0,1-.954.534,7.183,7.183,0,0,1-1,.372,5.031,5.031,0,0,1-.834.174l1.392,1.44a6.448,6.448,0,0,0,1.68-.57,5.647,5.647,0,0,0,1.338-.93,4.188,4.188,0,0,0,.882-1.164,2.816,2.816,0,0,0,.312-1.272A2.757,2.757,0,0,0,24.5,54.89a2.984,2.984,0,0,0-1.254-1.068,4.513,4.513,0,0,0-1.974-.4,5.489,5.489,0,0,0-1.194.132,7.65,7.65,0,0,0-1.092.324,4.532,4.532,0,0,0-.8.384q.084-.324.2-.768t.282-.984c.5-.048,1-.085,1.524-.114s1.036-.042,1.548-.042q.672,0,1.326.036t1.242.12l.18-1.776q-.408-.048-.936-.072t-1.128-.024q-.732,0-1.536.036t-1.608.1q.144-.348.3-.708t.336-.744l-1.9-.012q-.18.408-.348.822t-.324.846q-.66.084-1.224.2t-.96.234l.012,1.7a14.946,14.946,0,0,1,1.6-.348q-.252.888-.462,1.848t-.378,2.028Z" fill="none" stroke="#ff9239" stroke-linecap="round" stroke-linejoin="round" stroke-width="4"/>
          <path id="パス_3362" data-name="パス 3362" d="M26.216,56.727q.36,0,.786-.036t.906-.084a5.446,5.446,0,0,0,.648,1.74,3.282,3.282,0,0,0,1.236,1.206,3.926,3.926,0,0,0,1.944.438,4.917,4.917,0,0,0,1.86-.318,3.978,3.978,0,0,0,1.314-.846,5,5,0,0,0,.888-1.182,8.791,8.791,0,0,0,.582-1.314L34.8,55.4a6.134,6.134,0,0,1-1.188,2.088,2.325,2.325,0,0,1-1.776.744,2.247,2.247,0,0,1-.864-.168,1.717,1.717,0,0,1-.72-.588,2.954,2.954,0,0,1-.468-1.164q1.092-.2,2.112-.45t1.68-.45l-.42-1.632q-.648.2-1.584.414t-1.932.378q.012-.4.042-.81t.09-.834q.612-.036,1.212-.054t1.14-.018q.432,0,.81.018t.678.042l.072-1.644a9.03,9.03,0,0,0-1-.108q-.588-.036-1.284-.036-.624,0-1.284.024a14.862,14.862,0,0,1,.516-1.62l-1.824-.384q-.18.5-.336,1.044t-.288,1.092q-.78.084-1.464.2a8.164,8.164,0,0,0-1.164.27l.072,1.56c.264-.04.589-.082.978-.126s.81-.086,1.266-.126q-.06.456-.09.906t-.03.882v.024q-.564.084-1.044.132t-.84.072l.108,1.656Z" fill="none" stroke="#ff9239" stroke-linecap="round" stroke-linejoin="round" stroke-width="4"/>
          <path id="パス_3363" data-name="パス 3363" d="M38.972,55a3.987,3.987,0,0,1,.6-1.278,4.379,4.379,0,0,1,.948-1.038,3.475,3.475,0,0,1,1.272-.642q.012.18.012.372a7.6,7.6,0,0,1-.174,1.512,6.871,6.871,0,0,1-.594,1.68,4.133,4.133,0,0,1-.7,1.056,1.787,1.787,0,0,1-.6.432,1.3,1.3,0,0,1-.408.1.427.427,0,0,1-.408-.342,2.29,2.29,0,0,1-.12-.762A4.531,4.531,0,0,1,38.972,55Zm7.794,3.684a5.964,5.964,0,0,0,.954-1.6,4.615,4.615,0,0,0,.336-1.7,5.428,5.428,0,0,0-.672-2.79A4.4,4.4,0,0,0,45.5,50.846a6.31,6.31,0,0,0-2.832-.6,5.434,5.434,0,0,0-2.2.414,5.134,5.134,0,0,0-1.6,1.08,6.092,6.092,0,0,0-1.074,1.452,6.777,6.777,0,0,0-.6,1.548A5.738,5.738,0,0,0,37,56.078a4.635,4.635,0,0,0,.246,1.542A2.489,2.489,0,0,0,38,58.742a1.884,1.884,0,0,0,1.248.42,2.6,2.6,0,0,0,1.182-.3,4.58,4.58,0,0,0,1.116-.8,5.376,5.376,0,0,0,.882-1.1,9.466,9.466,0,0,0,.894-2.076,8.452,8.452,0,0,0,.354-2.472q0-.192-.012-.384a3.05,3.05,0,0,1,1.818,1.08,3.225,3.225,0,0,1,.666,2.028,3.29,3.29,0,0,1-.342,1.458,4.469,4.469,0,0,1-.936,1.272,5.69,5.69,0,0,1-1.338.954L45.3,60A6.633,6.633,0,0,0,46.766,58.688Z" fill="none" stroke="#ff9239" stroke-linecap="round" stroke-linejoin="round" stroke-width="4"/>
        </g>
      </g>
      <text id="もちもの" transform="translate(3.404 59.378)" font-size="12" font-family="MochiyPopPOne-Regular, Mochiy Pop P One"><tspan x="0" y="0">もちもの</tspan></text>
      <text id="もちもの-2" data-name="もちもの" transform="translate(3.404 59.378)" fill="#fff" font-size="12" font-family="MochiyPopPOne-Regular, Mochiy Pop P One"><tspan x="0" y="0">もちもの</tspan></text>
    </g>
  </g>
</svg>
