<svg xmlns="http://www.w3.org/2000/svg" xmlns:xlink="http://www.w3.org/1999/xlink" width="216" height="63" viewBox="0 0 216 63">
  <defs>
    <clipPath id="clip-path">
      <rect id="長方形_442" data-name="長方形 442" width="216" height="63" fill="none"/>
    </clipPath>
  </defs>
  <g id="グループ_493" data-name="グループ 493" transform="translate(0 0)">
    <g id="グループ_492" data-name="グループ 492" transform="translate(0 0)" clip-path="url(#clip-path)">
      <path id="パス_2425" data-name="パス 2425" d="M215.678,18.862a2.97,2.97,0,0,0-1.5-2.349,3.019,3.019,0,0,0-2.8-.1l-.232.111a2.924,2.924,0,0,0,0-.449q.475-.092.809-.152a3,3,0,0,0,2.087-1.479,2.947,2.947,0,0,0,.17-2.536l-.221-.555a2.962,2.962,0,0,0,1.19-1.959l.48-3.209A2.953,2.953,0,0,0,215.03,3.9a3.009,3.009,0,0,0-2.12-1.107q-.7-.052-1.574-.079c-.556-.015-1.154-.025-1.793-.025-1.194,0-2.505.033-3.9.1l-.325.016a3,3,0,0,0-2.17-1.658L199.389.455a3.12,3.12,0,0,0-.547-.05A3,3,0,0,0,196.1,2.17c-.276.618-.518,1.215-.718,1.775-.289.06-.575.122-.853.186-.871.2-1.678.42-2.4.652a2.967,2.967,0,0,0-2.015,3.4l.624,3.138a2.968,2.968,0,0,0,1.384,1.964,3.029,3.029,0,0,0,1.559.433c.073,0,.145,0,.218-.008-.136.166-.262.335-.382.5a8.549,8.549,0,0,0-1.3,2.685,9.028,9.028,0,0,0-.285,1.845,37.682,37.682,0,0,1-1.911-3.249,23.788,23.788,0,0,1-1.678-3.942,3,3,0,0,0-2.87-2.117,3.092,3.092,0,0,0-.712.085l-3.647.879a3.018,3.018,0,0,0-.723.276c.684-1.209,1.455-2.453,2.3-3.705a2.945,2.945,0,0,0,.334-2.632,2.988,2.988,0,0,0-1.922-1.847l-4.15-1.307a3.061,3.061,0,0,0-.908-.139,3.005,3.005,0,0,0-2.538,1.388,59.7,59.7,0,0,0-3.4,6.03c-.3.625-.578,1.227-.843,1.818a3.037,3.037,0,0,0-.234-.42,3,3,0,0,0-1.958-1.238l-.325-.054.469-2.751A2.97,2.97,0,0,0,165.1,2.472a24.38,24.38,0,0,0-4.1-.754,43.7,43.7,0,0,0-4.655-.244,44.183,44.183,0,0,0-4.9.268,23.986,23.986,0,0,0-4.4.867A2.972,2.972,0,0,0,145.1,4.569L142.59,1.7a3.02,3.02,0,0,0-3.233-.872,22.5,22.5,0,0,0-3.494,1.548c-1.146.618-2.327,1.326-3.513,2.108s-2.344,1.609-3.463,2.476c-1.1.853-2.16,1.721-3.147,2.583q-1.389,1.214-2.493,2.345a7.551,7.551,0,0,0,.566-2.85,7.052,7.052,0,0,0-1.1-3.956A7.253,7.253,0,0,0,119.9,2.595a11.466,11.466,0,0,0-3.276-1.043,20.415,20.415,0,0,0-3.342-.267,32.208,32.208,0,0,0-4.213.288c-1.393.184-2.782.433-4.129.737-1.318.3-2.57.623-3.723.971-.908.273-1.7.535-2.394.794a2.979,2.979,0,0,0-1.7-.879C96.394,3.088,95.546,3,94.6,2.944q-.621-.04-1.3-.062a6.633,6.633,0,0,0-.4-.843A3.005,3.005,0,0,0,90.292.524l-3.75.1A3,3,0,0,0,84.09,1.995a2.951,2.951,0,0,0-.451,1.265q-.42.042-.84.088c-1.5.163-2.982.372-4.412.62-1.454.254-2.825.554-4.078.893a2.984,2.984,0,0,0-1.343.8V5.23a2.985,2.985,0,0,0-3-2.971H66.273a3.081,3.081,0,0,0-.721.086A3,3,0,0,0,62.721.358H59.1a3,3,0,0,0-2.823,1.966,2.939,2.939,0,0,0-.488-.04h-3.5a2.985,2.985,0,0,0-3,2.971v7.9a2.95,2.95,0,0,0-.931,1.909l-3.47-1.9a3.025,3.025,0,0,0-2.486-.189,2.987,2.987,0,0,0-1.772,1.739,7.249,7.249,0,0,1-.658,1.275,5.867,5.867,0,0,1-.923,1.121,4.14,4.14,0,0,1-1.035.721,1.583,1.583,0,0,1-.722.167,2.406,2.406,0,0,1-1.014-.208.92.92,0,0,1-.414-.392,2.51,2.51,0,0,1-.2-1.183,13.081,13.081,0,0,1,.3-2.459,26.61,26.61,0,0,1,1-3.5A35.371,35.371,0,0,1,38.68,6.215a2.945,2.945,0,0,0,.09-2.436,2.989,2.989,0,0,0-1.782-1.684L33.174.765a3.012,3.012,0,0,0-3.73,1.58c-.733,1.606-1.35,3.15-1.874,4.632V5.611a2.984,2.984,0,0,0-2.9-2.969A2.993,2.993,0,0,0,22.607.958L18.768.077A3.006,3.006,0,0,0,15.2,2.169c-.04.144-.092.3-.155.47h-.78a11.151,11.151,0,0,0-1.111-1.52A3.022,3.022,0,0,0,9.819.294l-3,1.14A2.993,2.993,0,0,0,5.347,2.639H4.895a2.985,2.985,0,0,0-3,2.971V8.559a2.941,2.941,0,0,0,.584,1.762A2.966,2.966,0,0,0,.912,12.933v2.994a2.979,2.979,0,0,0,2.421,2.916A6.816,6.816,0,0,1,1.4,20.664a2.957,2.957,0,0,0,.039,5.049,8.815,8.815,0,0,1,.741.519c.337.258.663.522.983.8a8.276,8.276,0,0,1,.618.572,3.02,3.02,0,0,0,4.029.329.133.133,0,0,1,.019-.014,3.042,3.042,0,0,0,1.1.206h16.22a2.985,2.985,0,0,0,3-2.971V23.665c.1.129.2.264.3.389a9.976,9.976,0,0,0,3.67,2.637A12.4,12.4,0,0,0,37,27.6a12.772,12.772,0,0,0,4.76-.846,13.151,13.151,0,0,0,3.589-2.131,15.589,15.589,0,0,0,2.581-2.765c.14-.193.261-.384.394-.576V25.6a2.986,2.986,0,0,0,3,2.971h3.552a3,3,0,0,0,2.5-1.332h7.4a3,3,0,0,0,2.5,1.332h3.647a2.985,2.985,0,0,0,3-2.971V15.333a2.948,2.948,0,0,0-.96-2.178v-1.7l.094.362A2.971,2.971,0,0,0,74.5,13.669a3.017,3.017,0,0,0,1.469.381,3.089,3.089,0,0,0,.7-.081c-.017.069-.031.14-.045.209a8.284,8.284,0,0,0-.174,1.56,6.92,6.92,0,0,0,1.21,3.968,7.925,7.925,0,0,0,3,2.607c.065.034.13.065.2.1a2.865,2.865,0,0,0-.152.621,2.96,2.96,0,0,0,1.388,2.907l3.311,2.043a3.022,3.022,0,0,0,2.715.231,11.61,11.61,0,0,0,3.684-2.368,11.472,11.472,0,0,0,2.557-3.618,11.039,11.039,0,0,0,.956-4.563,11.431,11.431,0,0,0-.433-3.224,9.83,9.83,0,0,0-.619-1.588q.033-.273.059-.548.814.068,1.454.18a3.035,3.035,0,0,0,2.319-.548c.047-.036.084-.081.129-.119l.092.2a3.015,3.015,0,0,0,3.934,1.5c.761-.33,1.539-.634,2.325-.908a2.52,2.52,0,0,1,.216,1.109,5.994,5.994,0,0,1-.433,2.083,7.652,7.652,0,0,1-1.376,2.258,7.448,7.448,0,0,1-2.317,1.762,2.956,2.956,0,0,0-.621,4.869l3.143,2.757a3.02,3.02,0,0,0,3.605.277,17.363,17.363,0,0,0,4.538-4.057,16.755,16.755,0,0,0,2.186-3.735c.091.009.183.013.275.013a3,3,0,0,0,1.338-.314c.429-.212.957-.507,1.618-.908a21.9,21.9,0,0,0,2.131-1.487,18.93,18.93,0,0,0,1.646-1.473,2.941,2.941,0,0,0,.935,2.592l2.855,2.591a3.014,3.014,0,0,0,2.026.781c.077,0,.154,0,.232-.009a3.015,3.015,0,0,0,2.111-1.106c.42-.52.937-1.1,1.545-1.718v.148q0,1.48-.057,2.821-.055,1.312-.145,2.245a2.954,2.954,0,0,0,.714,2.222,3.012,3.012,0,0,0,2.115,1.027l4.127.215c.053,0,.106,0,.159,0a2.989,2.989,0,0,0,2.977-2.631c.1-.892.183-1.9.233-3,.05-1.078.075-2.207.075-3.356,0-1.132-.025-2.272-.075-3.387-.05-1.138-.137-2.233-.257-3.256q-.039-.336-.083-.656c.4-.229.795-.449,1.193-.66A22.488,22.488,0,0,1,143.952,9.4a2.973,2.973,0,0,0,1.368-1.05l.142,1.036c-.206.048-.408.094-.609.144A3,3,0,0,0,143,10.894a2.947,2.947,0,0,0-.322,2.271l.985,3.708a2.979,2.979,0,0,0,1.426,1.832,3.021,3.021,0,0,0,1.37.382,2.951,2.951,0,0,0-.377,3.426l2.04,3.612a3,3,0,0,0,2.617,1.52,3.047,3.047,0,0,0,.637-.067,19.374,19.374,0,0,0,6.07-2.294,12,12,0,0,0,4.179-4.263,14.288,14.288,0,0,0,1.289-3.052l.077.007c.819.088,1.593.2,2.3.327a3.073,3.073,0,0,0,.543.049,3.009,3.009,0,0,0,.695-.091,10.543,10.543,0,0,0-.29,2.111,6.661,6.661,0,0,0,1.874,4.762,7.062,7.062,0,0,0,5.277,1.965h.288a4.521,4.521,0,0,0,.624-.042,21.6,21.6,0,0,0,5.886-1.339c1.072-.4,2.22-.876,3.433-1.412.3.465.594.911.891,1.333a3.019,3.019,0,0,0,4.057.813l3.431-2.138a2.966,2.966,0,0,0,.971-1.008,7.468,7.468,0,0,0,2.116,2.324,9.829,9.829,0,0,0,2.886,1.392,15.925,15.925,0,0,0,2.882.571,25.432,25.432,0,0,0,2.7.15,31.919,31.919,0,0,0,3.69-.2,27.86,27.86,0,0,0,3.334-.6c1.054-.257,2.2-.592,3.4-1A2.969,2.969,0,0,0,215.99,22.9Z" transform="translate(0 0)" fill="#000333"/>
      <path id="パス_2426" data-name="パス 2426" d="M11.758,15.456q-.048.238-.12.487t-.144.487H23.443v2.948H18.669v2.33h6.479V24.68H8.927V21.946a16.55,16.55,0,0,1-1.38,1.722,12.094,12.094,0,0,1-1.572,1.438,11.375,11.375,0,0,0-.852-.8q-.54-.464-1.116-.9A11.67,11.67,0,0,0,3,22.706a9.958,9.958,0,0,0,3.059-3.019,14.756,14.756,0,0,0,1.884-4.231H3.912V12.462h8.926v-.784H6.191v-2.8h6.647V8.088H4.9V5.139H8.735a5.467,5.467,0,0,0-.4-.737c-.152-.237-.3-.46-.444-.666l3-1.14a8.283,8.283,0,0,1,.9,1.259,6.091,6.091,0,0,1,.588,1.261l-.048.023h4.655q.312-.593.624-1.319a10.787,10.787,0,0,0,.48-1.319l3.839.88q-.336.475-.66.914c-.216.293-.42.575-.612.844h3.911V8.088H16.437v.784h6.838v2.8H16.437v.784h8.974v2.994Zm-.528,3.922V17.239a23.2,23.2,0,0,1-.972,2.366,17.332,17.332,0,0,1-1.188,2.1h6.023v-2.33Z" transform="translate(-0.001 -0.024)" fill="#fff"/>
      <path id="パス_2427" data-name="パス 2427" d="M37.006,24.161a9.39,9.39,0,0,1-3.7-.666,6.973,6.973,0,0,1-2.579-1.842,7.639,7.639,0,0,1-1.512-2.722,10.746,10.746,0,0,1-.492-3.28,21.317,21.317,0,0,1,.888-5.7A47.948,47.948,0,0,1,32.183,3.1L36,4.432a38.2,38.2,0,0,0-1.872,4.374,29.4,29.4,0,0,0-1.1,3.9,15.761,15.761,0,0,0-.36,3.043,5.108,5.108,0,0,0,.66,2.757,3.9,3.9,0,0,0,1.716,1.521,5.414,5.414,0,0,0,2.256.475,4.6,4.6,0,0,0,2.052-.475,7.131,7.131,0,0,0,1.776-1.236A8.815,8.815,0,0,0,42.513,17.1a10.133,10.133,0,0,0,.924-1.807l3.6,1.973A23.759,23.759,0,0,1,45.5,19.657a12.547,12.547,0,0,1-2.088,2.234,10.071,10.071,0,0,1-2.771,1.64,9.722,9.722,0,0,1-3.635.63" transform="translate(-0.006 -0.03)" fill="#fff"/>
      <path id="パス_2428" data-name="パス 2428" d="M70.939,14.865V25.134H67.292V23.8H54.887v1.332H51.335V14.865h3.551v5.562H59.11v-6.7H52.3V4.787h3.5v5.586H59.11V2.862h3.623v7.511h3.551V4.763h3.7v8.961H62.733v6.7h4.559V14.865Z" transform="translate(-0.011 -0.028)" fill="#fff"/>
      <path id="パス_2429" data-name="パス 2429" d="M75.984,10.613,75.12,7.261q1.752-.475,3.8-.833t4.223-.593q2.172-.238,4.259-.358c-.129-.522-.26-.982-.4-1.378s-.26-.721-.372-.976l3.671-.094a4.781,4.781,0,0,1,.4.986q.18.606.324,1.342h.528q1.56,0,2.867.084t2.267.226l-.384,3.423a29.456,29.456,0,0,0-4.919-.333c.015.46.024.911.024,1.355a15.388,15.388,0,0,1-.264,2.852,6.238,6.238,0,0,1,.864,1.841,8.489,8.489,0,0,1,.312,2.389,8.068,8.068,0,0,1-.7,3.353,8.463,8.463,0,0,1-1.9,2.686A8.586,8.586,0,0,1,87,24.994l-3.311-2.044a8.53,8.53,0,0,0,2.9-1.438,6.712,6.712,0,0,0,1.656-1.866,6.366,6.366,0,0,0,.72-1.759,5.833,5.833,0,0,1-1.824,1.4,5.391,5.391,0,0,1-2.423.523,5.8,5.8,0,0,1-2.675-.606,4.948,4.948,0,0,1-1.884-1.628,4,4,0,0,1-.7-2.306,5.636,5.636,0,0,1,.576-2.318,4.7,4.7,0,0,1,.984-1.331A4.838,4.838,0,0,1,82.714,10.6a7.406,7.406,0,0,1,2.579-.391,8.924,8.924,0,0,1,1.38.107,8.466,8.466,0,0,1,1.332.32V10.35q0-.759-.048-1.5-2.16.119-4.343.357T79.451,9.8a30.923,30.923,0,0,0-3.467.808m6.958,4.54a1.041,1.041,0,0,0,.54,1.057,2.529,2.529,0,0,0,1.068.25,2.568,2.568,0,0,0,1.872-.676,4.182,4.182,0,0,0,1.032-1.628,3.756,3.756,0,0,0-1.212-.57,4.5,4.5,0,0,0-1.116-.166,2.482,2.482,0,0,0-1.536.487,1.5,1.5,0,0,0-.648,1.248" transform="translate(-0.017 -0.029)" fill="#fff"/>
      <path id="パス_2430" data-name="パス 2430" d="M105.19,24.763l-3.143-2.757a10.375,10.375,0,0,0,3.239-2.485,10.55,10.55,0,0,0,1.9-3.138,8.849,8.849,0,0,0,.624-3.125,5.343,5.343,0,0,0-.6-2.567l3.863-.784a10.1,10.1,0,0,1,.672,3.327,13.746,13.746,0,0,0,2.843-1.64,7.134,7.134,0,0,0,1.6-1.627,2.541,2.541,0,0,0,.5-1.3.832.832,0,0,0-.564-.8,4.332,4.332,0,0,0-1.356-.321q-.792-.071-1.512-.07a23.261,23.261,0,0,0-3.719.333,34.256,34.256,0,0,0-4.211.974,37.438,37.438,0,0,0-4.259,1.546L99.359,6.6q1.128-.452,2.747-.938t3.515-.915q1.9-.428,3.863-.689A28.967,28.967,0,0,1,113.3,3.8a17.182,17.182,0,0,1,2.843.227,8.371,8.371,0,0,1,2.411.76,4.268,4.268,0,0,1,1.668,1.463,4.143,4.143,0,0,1,.612,2.328,4.7,4.7,0,0,1-.552,2.2,9.049,9.049,0,0,1-1.416,1.985,16.01,16.01,0,0,1-1.836,1.688,19.015,19.015,0,0,1-1.836,1.284q-.864.521-1.392.784l-2.064-3.162v.261a12.339,12.339,0,0,1-.672,3.9,13.292,13.292,0,0,1-2.112,3.9,14.344,14.344,0,0,1-3.767,3.353" transform="translate(-0.022 -0.037)" fill="#fff"/>
      <path id="パス_2431" data-name="パス 2431" d="M126.358,18.292,123.5,15.7a18.681,18.681,0,0,1,1.74-2.032q1.092-1.129,2.507-2.366t3.011-2.471q1.6-1.236,3.275-2.341t3.287-1.973a19.6,19.6,0,0,1,3.023-1.344l2.591,2.971a25.5,25.5,0,0,0-3.131,1.4q-1.572.833-3.083,1.808a23.5,23.5,0,0,1,.408,2.472q.168,1.426.24,3.043t.072,3.257q0,1.664-.072,3.221t-.216,2.793l-4.127-.215q.1-1,.156-2.4t.06-2.948q0-1.688-.084-3.387a29.386,29.386,0,0,0-.3-3.078,48.83,48.83,0,0,0-3.755,3.245,32.8,32.8,0,0,0-2.747,2.936" transform="translate(-0.027 -0.031)" fill="#fff"/>
      <path id="パス_2432" data-name="パス 2432" d="M150.766,24.217l-2.04-3.612a9.9,9.9,0,0,0,5.4-2.175,7.2,7.2,0,0,0,2.351-4.1,52.166,52.166,0,0,0-5.267.4,30.688,30.688,0,0,0-4.619.928l-.984-3.708a47.707,47.707,0,0,1,6.239-1.059,64.491,64.491,0,0,1,6.862-.368q2.088,0,4.091.132a36.861,36.861,0,0,1,3.8.439l-.744,3.828q-1.176-.214-2.519-.358t-2.783-.214a13.032,13.032,0,0,1-1.511,4.742,9.018,9.018,0,0,1-3.156,3.21,16.3,16.3,0,0,1-5.123,1.913M148.486,8.673l-.5-3.685a20.913,20.913,0,0,1,3.839-.749,40.991,40.991,0,0,1,4.559-.25,40.52,40.52,0,0,1,4.332.227,21.373,21.373,0,0,1,3.586.653l-.624,3.661a17.787,17.787,0,0,0-3.311-.665,34.809,34.809,0,0,0-4.15-.239,35.343,35.343,0,0,0-4.248.25,14.63,14.63,0,0,0-3.479.8" transform="translate(-0.032 -0.039)" fill="#fff"/>
      <path id="パス_2433" data-name="パス 2433" d="M174,23.643a1.65,1.65,0,0,1-.287.024h-.288a4.173,4.173,0,0,1-3.119-1.058,3.7,3.7,0,0,1-1.033-2.7,10.94,10.94,0,0,1,.348-2.056,33.975,33.975,0,0,1,1.141-3.672,52.456,52.456,0,0,1,2.1-4.9,56.634,56.634,0,0,1,3.228-5.729l4.15,1.306q-1.534,2.282-2.747,4.493t-2.063,4.077q-.853,1.866-1.309,3.173a6.782,6.782,0,0,0-.456,1.783.9.9,0,0,0,1.009,1.023,11.814,11.814,0,0,0,2.77-.655,39.293,39.293,0,0,0,5.652-2.483,32.231,32.231,0,0,1-1.225-3.448l3.648-.879a26.574,26.574,0,0,0,1.883,4.446,42.235,42.235,0,0,0,3.035,4.944L187,23.476q-.552-.783-1.093-1.664t-1.044-1.807q-3.119,1.5-5.711,2.472A18.485,18.485,0,0,1,174,23.643" transform="translate(-0.038 -0.034)" fill="#fff"/>
      <path id="パス_2434" data-name="パス 2434" d="M203.589,24.3a22.344,22.344,0,0,1-2.375-.132,12.984,12.984,0,0,1-2.339-.464,6.763,6.763,0,0,1-2-.962,4.524,4.524,0,0,1-1.4-1.616,5.2,5.2,0,0,1-.517-2.436,5.959,5.959,0,0,1,.217-1.509,5.62,5.62,0,0,1,.863-1.747,8.656,8.656,0,0,1,1.92-1.879,9.041,9.041,0,0,1-.527-1.7A9.482,9.482,0,0,1,197.23,9.9v-.4q-.985.166-1.872.368t-1.632.416L193.1,7.141q.958-.309,2.148-.582t2.507-.487q.192-.737.468-1.521c.183-.524.4-1.07.66-1.641l3.766.69a12.193,12.193,0,0,0-.912,1.973q2.064-.19,4.092-.285t3.755-.1c.607,0,1.176.009,1.7.025s1.008.04,1.44.071l-.48,3.209q-1.081-.073-2.424-.071-1.992,0-4.306.142t-4.595.405a8.29,8.29,0,0,0-.048.879,5.077,5.077,0,0,0,.336,1.879A34.755,34.755,0,0,1,205,10.337q2.182-.677,5.062-1.294l1.393,3.493q-.672.12-1.908.368t-2.747.631a28.152,28.152,0,0,0-2.976.926,11.754,11.754,0,0,0,2.16.857q1.153.331,2.208.546l-.887,3.329a19.5,19.5,0,0,1-4-1,10.857,10.857,0,0,1-3.227-1.831,4.308,4.308,0,0,0-1.02,1.082,2.283,2.283,0,0,0-.372,1.249q0,.927,1.248,1.5a8.73,8.73,0,0,0,3.527.57,22.437,22.437,0,0,0,3.19-.214,18.827,18.827,0,0,0,2.964-.678,23.241,23.241,0,0,0,3.107-1.247l.312,4.041q-1.68.57-3.143.926a24.666,24.666,0,0,1-2.975.535,28.607,28.607,0,0,1-3.335.179" transform="translate(-0.043 -0.028)" fill="#fff"/>
      <path id="パス_2435" data-name="パス 2435" d="M75.62,50.38l-3.191-2.02a3.009,3.009,0,0,0-1.616-.468,3.014,3.014,0,0,0-2.2.957q-.27-.538-.558-.991a6.955,6.955,0,0,0-2.573-2.489,6.624,6.624,0,0,0-2.068-.682c.4-1.012.873-2.153,1.422-3.409a2.942,2.942,0,0,0-.047-2.465,2.988,2.988,0,0,0-1.91-1.581l-3.839-1.047A3.015,3.015,0,0,0,55.474,37.9c-.441,1.041-.9,2.264-1.379,3.631s-.934,2.806-1.373,4.29c-.28.945-.533,1.89-.794,2.836V47.582a2.972,2.972,0,0,0-.036-.465,6.433,6.433,0,0,0,.809-2.261,2.953,2.953,0,0,0-.892-2.664V38.644a2.986,2.986,0,0,0-3-2.971H41.443c-.1,0-.209.006-.312.016-.1-.01-.206-.016-.312-.016H33.67a3,3,0,0,0-1.878.655,3.021,3.021,0,0,0-3.554-.272L25.48,37.766a2.955,2.955,0,0,0-.614,4.533q.513.55,1.046,1.205c.234.288.456.576.66.86a2.976,2.976,0,0,0-2.189,2.86v3.186a2.978,2.978,0,0,0,2.232,2.873V53.7l-.119.088q-.591.44-1.14.8A2.956,2.956,0,0,0,24.3,58.357l1.608,3.3a3,3,0,0,0,2.158,1.631,3.063,3.063,0,0,0,.545.05,3.015,3.015,0,0,0,2.059-.81q.49-.459.933-.881a8.244,8.244,0,0,0,1.265.619,14.118,14.118,0,0,0,4.5.857q1.23.046,2.782.073,1.03.016,2.115.016l1.1,0q1.654-.013,3.214-.049,1.594-.037,2.863-.111a2.992,2.992,0,0,0,2.531-1.71l3.708.993a2.967,2.967,0,0,0,.783.1A3.027,3.027,0,0,0,58,62.021a2.98,2.98,0,0,0,1.385-1.869A36.283,36.283,0,0,1,60.6,56c.07-.187.138-.354.2-.5.032.108.066.224.1.346a10.39,10.39,0,0,0,2.286,4.2A6.8,6.8,0,0,0,68.341,62.2a6.933,6.933,0,0,0,3.9-1.117,8.449,8.449,0,0,0,2.427-2.452,15.072,15.072,0,0,0,1.344-2.573q.475-1.171.835-2.215A2.956,2.956,0,0,0,75.62,50.38" transform="translate(-0.005 -0.341)" fill="#000333"/>
      <path id="パス_2436" data-name="パス 2436" d="M181.358,49.129a3.01,3.01,0,0,0-5.49.642c-.051.178-.1.342-.157.493-.119-.29-.244-.626-.371-1.014a27.467,27.467,0,0,1-.981-4.226,41.607,41.607,0,0,1-.481-5.171,2.954,2.954,0,0,0-1.07-2.181,3.015,3.015,0,0,0-1.928-.7,2.948,2.948,0,0,0-.427.031l-3.84.547a2.982,2.982,0,0,0-2.015,1.235c-.033,0-.062-.014-.095-.017-.62-.056-1.313-.083-2.119-.083s-1.693.025-2.634.075l-.609.035c-.178-.5-.331-1-.454-1.459a3,3,0,0,0-2.9-2.218,2.95,2.95,0,0,0-.425.031l-3.718.523A3,3,0,0,0,149.553,37a2.948,2.948,0,0,0-.368,2.433q.067.236.14.475-.753.123-1.479.255c-1.148.208-2.131.419-3,.637a2.953,2.953,0,0,0-1.02-2.031,5.4,5.4,0,0,1-.674-.714,5.2,5.2,0,0,1-.524-.742,3.016,3.016,0,0,0-4.236-1.086,3.022,3.022,0,0,0-1.969.079l-1.7.666a2.973,2.973,0,0,0-1.169.821,3.853,3.853,0,0,0-.491-.031h-.152c-.022-.049-.046-.1-.071-.145a3,3,0,0,0-2.173-1.551l-3.959-.642a3.087,3.087,0,0,0-.485-.039,3,3,0,0,0-2.733,1.753c-.181.4-.387.919-.632,1.6-.066.185-.134.379-.2.581q-.5.123-.983.245c-.908.231-1.654.451-2.279.67a3.016,3.016,0,0,0-.59.29,2.861,2.861,0,0,0-.2-.323l-2.639-3.328a3.018,3.018,0,0,0-3.99-.658q-.8.513-1.887,1.185-1.141.706-2.382,1.508t-2.455,1.63q-1.249.848-2.282,1.623c-.714.535-1.325,1.025-1.84,1.479-.294.264-.564.523-.818.779a2.974,2.974,0,0,0-.474-.538A2.935,2.935,0,0,0,99.952,43l-.072-3.234a2.984,2.984,0,0,0-2.719-2.893c-1.112-.1-2.319-.155-3.59-.155-1.514,0-3.109.062-4.74.186s-3.225.288-4.784.493-3.062.443-4.441.7c-1.4.265-2.649.547-3.719.837a2.971,2.971,0,0,0-2.193,3.157l.359,3.614a2.965,2.965,0,0,0,1.238,2.122,3.015,3.015,0,0,0,1.748.557,2.98,2.98,0,0,0,.679-.077q1.47-.339,2.767-.623c-.042.1-.082.205-.12.308a11.205,11.205,0,0,0-.759,3.863,9.491,9.491,0,0,0,.881,3.988A9.946,9.946,0,0,0,83.2,59.307a13.5,13.5,0,0,0,4.4,2.35,22.164,22.164,0,0,0,5.969,1.011l.143,0a3,3,0,0,0,2.805-1.923l1.439-3.779a2.943,2.943,0,0,0-.32-2.711A3.007,3.007,0,0,0,95.22,52.95c-.648-.014-1.337-.051-2.071-.11a14.182,14.182,0,0,1-1.92-.284,6.669,6.669,0,0,1-1.438-.473,1.33,1.33,0,0,1-.325-.2,2.056,2.056,0,0,1,.335-1.043,6.577,6.577,0,0,1,.7-.966c.306.3.618.584.933.853.453.385.789.647,1,.791a3.018,3.018,0,0,0,4.16-.722l.045-.064q.132.012.264.012a3.015,3.015,0,0,0,.647-.085c.218,2.007,1.511,3.916,3.848,5.663a24.966,24.966,0,0,0,3.315,2.138c1.156.628,2.361,1.212,3.583,1.736,1.2.513,2.381.979,3.522,1.38,1.094.386,2.123.728,3.059,1.015a3.017,3.017,0,0,0,3.553-1.477l.266-.513a3,3,0,0,0,1.563.833l3.863.737a3.025,3.025,0,0,0,2.3-.49,2.967,2.967,0,0,0,1.236-1.98q.069-.443.151-.925c.035.03.071.057.108.085a13.646,13.646,0,0,0,2.271,1.349,21.132,21.132,0,0,0,2.824,1.11,23.662,23.662,0,0,0,3.232.778,20.786,20.786,0,0,0,3.444.292c.22,0,.441,0,.679-.016.213-.011.428-.025.643-.044a2.985,2.985,0,0,0,2.724-2.721l.2-2.423a15.068,15.068,0,0,0,1.575,1.622,16.379,16.379,0,0,0,4.654,2.845,18.146,18.146,0,0,0,5.7,1.275c.066,0,.132.007.2.007a3,3,0,0,0,2.829-1.989l1.295-3.662c.018-.049.034-.1.049-.149a3.061,3.061,0,0,0,.529.047,3,3,0,0,0,2.093-.844l2.759-2.662a3,3,0,0,0,.534-.725c.095.27.179.556.28.818a17.923,17.923,0,0,0,1.974,3.8,10.784,10.784,0,0,0,2.992,2.959,7.816,7.816,0,0,0,4.317,1.269A7.611,7.611,0,0,0,180.681,60a12.741,12.741,0,0,0,3.056-4.061,2.945,2.945,0,0,0-.075-2.795Z" transform="translate(-0.016 -0.337)" fill="#000333"/>
      <path id="パス_2437" data-name="パス 2437" d="M191.282,44.168c-.4-.4-.907-.865-1.509-1.392q-.873-.767-1.928-1.609c-.712-.569-1.46-1.122-2.219-1.641a21.145,21.145,0,0,0-2.365-1.414,3.023,3.023,0,0,0-3.639.705l-2.544,2.924a2.957,2.957,0,0,0,.909,4.587,15.765,15.765,0,0,1,1.851,1.105c.653.454,1.272.924,1.844,1.4q.913.758,1.646,1.427c.484.444.885.82,1.2,1.13a3.011,3.011,0,0,0,2.121.871l.142,0a3.01,3.01,0,0,0,2.17-1.076l2.518-3.019a2.95,2.95,0,0,0-.193-4" transform="translate(-0.039 -0.362)" fill="#000333"/>
      <path id="パス_2438" data-name="パス 2438" d="M46.556,56.618q1.032-.046,1.98-.1T50.3,56.4c-.113.255-.24.57-.384.951s-.272.773-.384,1.178-.2.764-.264,1.081q-1.224.071-2.759.108t-3.167.048q-1.633.01-3.143-.012t-2.711-.071a11.246,11.246,0,0,1-3.527-.655,5.748,5.748,0,0,1-2.5-1.937q-.625.667-1.32,1.344T28.608,59.9L27,56.6q.624-.406,1.3-.9t1.32-1.022V49.94H27.384V46.753h5.471v7.63a3.877,3.877,0,0,0,1.176,1.307,5.045,5.045,0,0,0,1.728.738q-.481-.452-1.1-.94t-1.08-.8a20.867,20.867,0,0,0,2.076-.63,12.243,12.243,0,0,0,1.788-.8H33.455V50.772h3.671V49.558h-3V47.11h3V46.088h3.263V47.11h2.136V46.088h3.311V47.11h3.1v2.448h-3.1v1.213h3.839v2.495H45.62q1.152.547,2.3,1.153t1.9,1.082ZM30.071,43.926a7.686,7.686,0,0,0-.732-1.3q-.492-.724-1.092-1.462t-1.176-1.355l2.759-1.71q.6.569,1.224,1.259t1.164,1.367A6.967,6.967,0,0,1,33.047,42Zm7.846-3.637H33.671V38.172h7.15v4.921H39.6a5.626,5.626,0,0,0,1.068.452c.439.142.835.254,1.188.333a2.562,2.562,0,0,1-.828,1.688,3.039,3.039,0,0,1-1.812.452H36.982a5.26,5.26,0,0,1-1.824-.25,1.559,1.559,0,0,1-.912-.868,4.455,4.455,0,0,1-.264-1.712V40.954h3.935Zm3.167,13.643a11.673,11.673,0,0,1-2.076,1.463,19.493,19.493,0,0,1-2.435,1.176c.144.017.292.028.444.036s.308.021.468.036q1.054.049,2.459.059t2.987,0q1.584-.012,3.143-.059-.672-.521-1.752-1.2a21.046,21.046,0,0,0-2.184-1.2l1.776-.976H39.141Zm-2.232-10.15a.568.568,0,0,0,.432-.131,1.181,1.181,0,0,0,.192-.558H36.814v.07a.73.73,0,0,0,.12.512.812.812,0,0,0,.5.106Zm1.536,6.989h2.136V49.558H40.389ZM45.86,40.289H41.445V38.172h7.366v4.921h-1.32a5.626,5.626,0,0,0,1.068.452c.439.142.835.254,1.188.333a2.562,2.562,0,0,1-.828,1.688,3.039,3.039,0,0,1-1.812.452H44.876a5.26,5.26,0,0,1-1.824-.25,1.559,1.559,0,0,1-.912-.868,4.455,4.455,0,0,1-.264-1.712V40.954H45.86Zm.888,3.493a.568.568,0,0,0,.432-.131,1.181,1.181,0,0,0,.192-.558H44.708v.07a.73.73,0,0,0,.12.512.812.812,0,0,0,.5.106Z" transform="translate(-0.006 -0.365)" fill="#fff"/>
      <path id="パス_2439" data-name="パス 2439" d="M62.086,39.628Q60.694,42.813,59.926,45t-1.2,3.731a6.089,6.089,0,0,1,1.824-1.294,4.182,4.182,0,0,1,1.584-.346,4.063,4.063,0,0,1,1.932.429,4.011,4.011,0,0,1,1.452,1.45,13.352,13.352,0,0,1,1.248,2.78q.264.762.5,1.438a4.966,4.966,0,0,0,.528,1.106.985.985,0,0,0,.72.475q.624-.025,1.212-1.105A13.58,13.58,0,0,0,70.82,50.4l3.191,2.02q-.336.975-.78,2.068a12.15,12.15,0,0,1-1.08,2.068,5.45,5.45,0,0,1-1.572,1.592,3.957,3.957,0,0,1-2.232.618,3.8,3.8,0,0,1-2.939-1.188,7.423,7.423,0,0,1-1.62-3.02,11.851,11.851,0,0,0-1.044-2.722,1.672,1.672,0,0,0-1.308-.962,2.9,2.9,0,0,0-2.1.927,7.753,7.753,0,0,0-1.548,2.7,38.933,38.933,0,0,0-1.32,4.5l-3.815-1.023q.24-1.4.7-3.315t1.032-4.1q.576-2.188,1.224-4.374t1.332-4.16q.684-1.973,1.308-3.448Z" transform="translate(-0.012 -0.37)" fill="#fff"/>
      <path id="パス_2440" data-name="パス 2440" d="M93.715,59.245a19.141,19.141,0,0,1-5.147-.856,10.513,10.513,0,0,1-3.431-1.808,6.963,6.963,0,0,1-1.92-2.424,6.532,6.532,0,0,1-.612-2.757,8.263,8.263,0,0,1,.576-2.841,9.888,9.888,0,0,1,1.92-3.079,12.075,12.075,0,0,1,3.647-2.686,37.961,37.961,0,0,0-4.463.618q-2.807.524-7.246,1.546l-.36-3.613q1.488-.4,3.491-.784t4.271-.677q2.267-.3,4.619-.475t4.511-.178q1.776,0,3.311.142l.072,3.234a8.049,8.049,0,0,0-2.375.559,16.3,16.3,0,0,0-2.771,1.366A17.13,17.13,0,0,0,89.18,46.5a10.362,10.362,0,0,0-1.968,2.377,4.956,4.956,0,0,0-.744,2.542,2.746,2.746,0,0,0,.552,1.735,3.967,3.967,0,0,0,1.488,1.153,9.738,9.738,0,0,0,2.076.69,17.175,17.175,0,0,0,2.327.344q1.188.1,2.243.119Zm.432-10.626q-.24-.165-.756-.605t-1.008-.939a5.729,5.729,0,0,1-.708-.832l1.44-1.165a7.526,7.526,0,0,0,.948,1.058,7.4,7.4,0,0,0,1.188.939Zm2.759-1.306a6.671,6.671,0,0,1-.816-.44q-.528-.321-1.056-.713a4.954,4.954,0,0,1-.792-.7l1.128-1.427a9.472,9.472,0,0,0,1.128.88,7.08,7.08,0,0,0,1.344.736Z" transform="translate(-0.017 -0.376)" fill="#fff"/>
      <path id="パス_2441" data-name="パス 2441" d="M115.772,59.282q-1.32-.4-2.939-.975T109.5,57q-1.716-.737-3.335-1.616a21.755,21.755,0,0,1-2.915-1.878q-2.735-2.044-2.735-3.922a3.679,3.679,0,0,1,.66-2,11.479,11.479,0,0,1,1.98-2.211q.648-.57,1.632-1.307t2.172-1.545q1.188-.808,2.4-1.593t2.327-1.474q1.116-.688,1.932-1.212l2.639,3.328q-1.561.808-3.107,1.7t-2.951,1.771q-1.4.879-2.519,1.664t-1.812,1.355a1.866,1.866,0,0,0-.792,1.307,1.6,1.6,0,0,0,.744,1.165,17.089,17.089,0,0,0,3,1.771,41.811,41.811,0,0,0,4.211,1.735q2.315.82,4.715,1.462Z" transform="translate(-0.022 -0.367)" fill="#fff"/>
      <path id="パス_2442" data-name="パス 2442" d="M124.7,58.78l-3.863-.737q.168-1.07.48-2.544t.72-3.184q.408-1.711.876-3.506t.948-3.507q-1.656.382-2.639.666l-.816-3.4q.816-.287,2.028-.594t2.579-.618q.36-1.189.684-2.092t.54-1.379l3.959.642q-.408.856-.84,2.044,1.008-.144,1.908-.226t1.572-.083h.24a.9.9,0,0,1,.216.024l.336,3.542h-.192a19.745,19.745,0,0,0-2.363.178q-1.428.178-3.011.464-.552,1.783-1.056,3.708t-.948,3.827q-.444,1.9-.792,3.637T124.7,58.78m16.052.119c-.176.016-.352.027-.528.036s-.352.012-.528.012a17.6,17.6,0,0,1-2.939-.25,20.612,20.612,0,0,1-2.819-.678,18.05,18.05,0,0,1-2.423-.951,10.783,10.783,0,0,1-1.776-1.045l2.016-3.114a11.278,11.278,0,0,0,2.232,1.058,18.971,18.971,0,0,0,3.035.82,17.443,17.443,0,0,0,3.227.309h.408a3.322,3.322,0,0,0,.408-.024Zm-8.806-9.08-1.3-3.542a6.417,6.417,0,0,1,1.716-.892,21.7,21.7,0,0,1,2.447-.737q1.332-.319,2.591-.5a15.679,15.679,0,0,1,2.148-.177h.348a1.431,1.431,0,0,1,.276.024l.5,3.732q-.168-.024-.372-.036t-.42-.012a12.489,12.489,0,0,0-1.992.178,21.958,21.958,0,0,0-2.208.475,20.739,20.739,0,0,0-2.088.677,9.36,9.36,0,0,0-1.656.808m5.495-7.535a8.272,8.272,0,0,1-.54-.808c-.232-.381-.452-.78-.66-1.2a5.426,5.426,0,0,1-.408-1.009l1.7-.666a9.317,9.317,0,0,0,.588,1.284,6.785,6.785,0,0,0,.852,1.259Zm3.047-.428a5.336,5.336,0,0,1-.648-.666q-.408-.475-.792-1.01a6.087,6.087,0,0,1-.552-.891l1.512-1.022a9.535,9.535,0,0,0,1.872,2.282Z" transform="translate(-0.027 -0.363)" fill="#fff"/>
      <path id="パス_2443" data-name="パス 2443" d="M145.583,47.01l-1.032-3.517a35.119,35.119,0,0,1,3.851-.88q2.363-.428,4.979-.761a36.441,36.441,0,0,1-1.3-3.708l3.719-.523q.24.9.588,1.866t.78,1.961q1.416-.119,2.759-.19t2.471-.07q1.056,0,1.848.07l.144,3.708q-.888-.071-2.064-.07c-.513,0-1.056.011-1.632.035s-1.168.052-1.776.083a29.806,29.806,0,0,0,2.124,3.269,21.2,21.2,0,0,0,2.483,2.792l-2.759,2.662a26.342,26.342,0,0,1-3.143-3.851,42.378,42.378,0,0,1-2.663-4.516q-1.8.214-3.551.476t-3.251.558q-1.5.3-2.579.606M156.068,59.49a15.091,15.091,0,0,1-4.751-1.057,13.333,13.333,0,0,1-3.8-2.319,11.085,11.085,0,0,1-2.531-3.161l3.239-1.878a9.093,9.093,0,0,0,1.116,1.438,9.7,9.7,0,0,0,1.86,1.533,10.845,10.845,0,0,0,2.663,1.224,13.168,13.168,0,0,0,3.5.559Z" transform="translate(-0.032 -0.361)" fill="#fff"/>
      <path id="パス_2444" data-name="パス 2444" d="M175.725,58.367a4.819,4.819,0,0,1-2.675-.784,7.809,7.809,0,0,1-2.16-2.151,14.916,14.916,0,0,1-1.644-3.174,27.987,27.987,0,0,1-1.164-3.85,39.383,39.383,0,0,1-.721-4.184q-.252-2.139-.3-4.184l3.839-.547a44.449,44.449,0,0,0,.515,5.538,30.473,30.473,0,0,0,1.092,4.683,12.069,12.069,0,0,0,1.512,3.221,1.824,1.824,0,0,0,3.372.1,8.519,8.519,0,0,0,1.379-2.888l2.3,4.017a9.793,9.793,0,0,1-2.316,3.126,4.557,4.557,0,0,1-3.034,1.082m10.918-9.556c-.336-.333-.766-.737-1.285-1.212s-1.1-.982-1.752-1.521-1.332-1.058-2.051-1.557a18.726,18.726,0,0,0-2.209-1.319l2.544-2.924a18.155,18.155,0,0,1,2.027,1.212q1.044.713,2.041,1.509t1.823,1.521q.828.725,1.381,1.272Z" transform="translate(-0.037 -0.379)" fill="#fff"/>
    </g>
  </g>
</svg>
