<svg xmlns="http://www.w3.org/2000/svg" width="18" height="18" viewBox="0 0 18 18">
  <g id="レイヤー_2" data-name="レイヤー 2" transform="translate(0 0)">
    <g id="レイヤー_1" data-name="レイヤー 1" transform="translate(0 0)">
      <circle id="楕円形_115" data-name="楕円形 115" cx="8.556" cy="8.556" r="8.556" transform="translate(0.444 0.444)" fill="#f2b705"/>
      <path id="パス_3803" data-name="パス 3803" d="M9,18a9,9,0,1,1,9-9,9,9,0,0,1-9,9ZM9,.889A8.111,8.111,0,1,0,17.111,9,8.111,8.111,0,0,0,9,.889Z" transform="translate(0 0)" fill="#d38d11"/>
      <path id="パス_3804" data-name="パス 3804" d="M37.569,46.636q-.03-.689-.03-1.52,0-.8.03-1.7t.091-1.829q.061-.927.162-1.809l-.309.076q-.147.036-.269.076l-.517-1.612a18.459,18.459,0,0,1,4.085-.578q3.314,0,3.314,2.524a2.375,2.375,0,0,1-.791,1.88,4.208,4.208,0,0,1-2.321.877,10.721,10.721,0,0,0,1.86,1.282,14.06,14.06,0,0,0,1.9.846l-1.115,1.49a6.737,6.737,0,0,1-1.125-.537q-.588-.344-1.166-.76t-1.1-.841q-.522-.426-.927-.791-.01.7-.015,1.414T39.323,46.6l-.061.061q-.385,0-.826.005t-.8.035Zm3.152-7.287q-.284,0-.588.025t-.608.066q-.041.568-.071,1.12t-.051,1.1q.446-.01.968-.056a5.069,5.069,0,0,0,.988-.182,1.984,1.984,0,0,0,.765-.4.887.887,0,0,0,.3-.7.788.788,0,0,0-.416-.74A2.731,2.731,0,0,0,40.721,39.348Z" transform="translate(-32.064 -32.945)" fill="#fff"/>
      <path id="パス_3805" data-name="パス 3805" d="M95.21,30.526a2.079,2.079,0,0,0-1.148,1.148.033.033,0,0,1-.06,0,2.078,2.078,0,0,0-1.148-1.148.033.033,0,0,1,0-.06A2.078,2.078,0,0,0,94,29.318a.033.033,0,0,1,.06,0,2.079,2.079,0,0,0,1.148,1.148.033.033,0,0,1,0,.06Z" transform="translate(-81.45 -25.982)" fill="#fff"/>
      <path id="パス_3806" data-name="パス 3806" d="M102.383,27.388a.981.981,0,0,0-.541.541.016.016,0,0,1-.028,0,.98.98,0,0,0-.541-.541.016.016,0,0,1,0-.028.98.98,0,0,0,.541-.541.016.016,0,0,1,.028,0,.981.981,0,0,0,.541.541.016.016,0,0,1,0,.028Z" transform="translate(-88.049 -23.97)" fill="#fff"/>
      <path id="パス_3807" data-name="パス 3807" d="M7.754,15.789A8.077,8.077,0,0,1,21.8,10.35,8.077,8.077,0,1,0,9.338,20.593,8.04,8.04,0,0,1,7.754,15.789Z" transform="translate(-6.314 -6.179)" fill="#fff" opacity="0.44"/>
      <path id="パス_3808" data-name="パス 3808" d="M34.958,26.81A8.1,8.1,0,0,1,22.991,37.72,8.1,8.1,0,1,0,34.958,26.81Z" transform="translate(-20.072 -23.405)" fill="#754c24" opacity="0.44"/>
    </g>
  </g>
</svg>
