<svg xmlns="http://www.w3.org/2000/svg" width="16" height="16" viewBox="0 0 16 16">
  <g id="定番ペンのフリーアイコン素材" transform="translate(0 -0.48)">
    <path id="パス_3069" data-name="パス 3069" d="M5.148,55.132l.057-.057,6.053-6.066.063-.063.063-.063,3.207-3.214a0,0,0,0,0,0,0l-3.58-3.588h0L7.8,45.293l-.063.063-.063.063-6.11,6.123h0L0,56.7a0,0,0,0,0,0,0l5.069-1.546Zm-4.006.424.782-2.575h0l1.788,1.791a0,0,0,0,1,0,0l-2.57.784A0,0,0,0,1,1.142,55.556Z" transform="translate(0 -40.222)" fill="#000333"/>
    <path id="パス_3070" data-name="パス 3070" d="M388.085,3.919a1.092,1.092,0,0,0,0-1.54L386.5.8a1.093,1.093,0,0,0-1.54,0l-.79.789a0,0,0,0,0,0,0l3.119,3.119h0Z" transform="translate(-372.403 0)" fill="#000333"/>
  </g>
</svg>
