<svg xmlns="http://www.w3.org/2000/svg" xmlns:xlink="http://www.w3.org/1999/xlink" width="23" height="20" viewBox="0 0 23 20">
  <defs>
    <clipPath id="clip-path">
      <rect id="長方形_487" data-name="長方形 487" width="23" height="20" transform="translate(0.48)" fill="#fff" stroke="#707070" stroke-width="1"/>
    </clipPath>
    <clipPath id="clip-path-2">
      <rect id="長方形_486" data-name="長方形 486" width="13.455" height="18.74" fill="none"/>
    </clipPath>
  </defs>
  <g id="マスクグループ_297" data-name="マスクグループ 297" transform="translate(-0.48)" clip-path="url(#clip-path)">
    <g id="グループ_602" data-name="グループ 602" transform="translate(5.411 0.601)">
      <rect id="長方形_485" data-name="長方形 485" width="12.143" height="17.365" transform="translate(0 1.375)" fill="#041a56"/>
      <path id="パス_3328" data-name="パス 3328" d="M1.311,0,0,1.375H12.143L13.454,0Z" transform="translate(0 0)" fill="#203369"/>
      <path id="パス_3329" data-name="パス 3329" d="M157.618,0l-1.311,1.375V18.741l1.311-.956Z" transform="translate(-144.164 0)" fill="#01091d"/>
      <g id="グループ_601" data-name="グループ 601" transform="translate(0)">
        <g id="グループ_600" data-name="グループ 600" clip-path="url(#clip-path-2)">
          <path id="パス_3330" data-name="パス 3330" d="M22.934,134.338a.5.5,0,0,1-.265-.917l6.163-3.884a.5.5,0,1,1,.53.841L23.2,134.261a.5.5,0,0,1-.264.077" transform="translate(-20.693 -119.402)" fill="#f2f2f2"/>
          <path id="パス_3331" data-name="パス 3331" d="M27.255,127.615a.5.5,0,0,1,.265.917l-6.163,3.884a.5.5,0,0,1-.53-.841l6.163-3.884a.5.5,0,0,1,.264-.077m0-.155h0a.651.651,0,0,0-.347.1l-6.163,3.884a.652.652,0,1,0,.7,1.1l6.163-3.884a.652.652,0,0,0-.348-1.2" transform="translate(-18.852 -117.558)" fill="#d19411"/>
          <path id="パス_3332" data-name="パス 3332" d="M33.827,144.212a.5.5,0,0,1-.266-.918l6.163-3.884a.5.5,0,1,1,.53.841l-6.163,3.884a.5.5,0,0,1-.264.077" transform="translate(-30.74 -128.509)" fill="#f2f2f2"/>
          <path id="パス_3333" data-name="パス 3333" d="M38.148,137.489a.5.5,0,0,1,.265.917l-6.163,3.884a.5.5,0,0,1-.53-.841l6.163-3.884a.5.5,0,0,1,.264-.077m0-.155h0a.651.651,0,0,0-.347.1l-6.163,3.884a.652.652,0,1,0,.7,1.1l6.163-3.884a.652.652,0,0,0-.348-1.2" transform="translate(-28.899 -126.665)" fill="#d19411"/>
          <path id="パス_3334" data-name="パス 3334" d="M44.16,154.906a.5.5,0,0,1-.265-.918l6.163-3.884a.5.5,0,1,1,.53.841l-6.163,3.884a.5.5,0,0,1-.264.077" transform="translate(-40.27 -138.372)" fill="#f2f2f2"/>
          <path id="パス_3335" data-name="パス 3335" d="M48.48,148.182a.5.5,0,0,1,.265.917l-6.163,3.884a.5.5,0,0,1-.53-.841l6.163-3.884a.5.5,0,0,1,.264-.077m0-.155h0a.651.651,0,0,0-.347.1l-6.163,3.884a.652.652,0,1,0,.7,1.1l6.163-3.884a.652.652,0,0,0-.348-1.2" transform="translate(-38.428 -136.527)" fill="#d19411"/>
          <path id="パス_3336" data-name="パス 3336" d="M30.865,51.262h.468v1.312a.207.207,0,0,0,.037.119.221.221,0,0,0,.1.08.2.2,0,0,0,.125.013l1.266-.242v.268l-1.349.258a.541.541,0,0,1-.552-.232.528.528,0,0,1-.091-.3Z" transform="translate(-28.467 -47.279)" fill="#fff"/>
          <path id="パス_3337" data-name="パス 3337" d="M65.951,51.452v-.19h1.385l-.9.814h.9a.325.325,0,0,1,.325.325v.355a.325.325,0,0,1-.325.325h-1.39v-.19h1.136a.163.163,0,0,0,.162-.162v-.3a.163.163,0,0,0-.162-.162H65.674l.9-.814Z" transform="translate(-60.572 -47.279)" fill="#fff"/>
          <path id="パス_3338" data-name="パス 3338" d="M100.483,51.262h.416v1.065a1.764,1.764,0,0,0,.045.4l.431-.143v.208l-.788.286a2.16,2.16,0,0,1-.1-.753Zm1.576,1.524v-.8a1.6,1.6,0,0,0-.147-.615h.424a1.693,1.693,0,0,1,.139.615v.8Z" transform="translate(-92.677 -47.279)" fill="#fff"/>
          <path id="パス_3339" data-name="パス 3339" d="M32.2,86.962v-.19h.08a.163.163,0,0,0,.162-.162v-.351a.162.162,0,0,0-.162-.162h-.357v.866H31.19a.325.325,0,0,1-.325-.325v-.407a.325.325,0,0,1,.325-.325h.316V85.5h-.589v-.19h.589v-.165h.416v.165H32.3v.19h-.381v.407h.61a.325.325,0,0,1,.325.325v.407a.325.325,0,0,1-.325.325Zm-.693-.19V86.1h-.063a.163.163,0,0,0-.162.162v.351a.163.163,0,0,0,.162.162Zm1.1-1.117-.182-.442h.242l.182.442Z" transform="translate(-28.467 -78.529)" fill="#fff"/>
          <path id="パス_3340" data-name="パス 3340" d="M65.674,85.69V85.5h.355l.061-.355h.416l-.061.355h.472a.325.325,0,0,1,.325.325v.814a.325.325,0,0,1-.325.325h-.489v-.19h.236a.163.163,0,0,0,.162-.162v-.758a.163.163,0,0,0-.162-.162h-.251l-.219,1.273h-.416L66,85.69Zm1.8.242-.32-.788h.19l.32.788Z" transform="translate(-60.572 -78.529)" fill="#fff"/>
          <path id="パス_3341" data-name="パス 3341" d="M100.483,85.144h.468v1.312a.207.207,0,0,0,.037.119.221.221,0,0,0,.1.08.2.2,0,0,0,.125.013l1.266-.242v.268l-1.349.258a.541.541,0,0,1-.552-.232.528.528,0,0,1-.091-.3Z" transform="translate(-92.677 -78.529)" fill="#fff"/>
        </g>
      </g>
    </g>
  </g>
</svg>
