<svg xmlns="http://www.w3.org/2000/svg" xmlns:xlink="http://www.w3.org/1999/xlink" width="65" height="70" viewBox="0 0 65 70">
  <defs>
    <clipPath id="clip-path">
      <rect id="長方形_504" data-name="長方形 504" width="65" height="70" transform="translate(-373 1911)" fill="#fff" stroke="#707070" stroke-width="1"/>
    </clipPath>
    <clipPath id="clip-path-2">
      <rect id="長方形_503" data-name="長方形 503" width="56.849" height="60.417" transform="translate(0 0)" fill="none"/>
    </clipPath>
  </defs>
  <g id="present" transform="translate(373 -1911)" clip-path="url(#clip-path)">
    <g id="グループ_623" data-name="グループ 623" transform="translate(-369 1916)">
      <g id="グループ_622" data-name="グループ 622">
        <g id="グループ_621" data-name="グループ 621" clip-path="url(#clip-path-2)">
          <path id="パス_3422" data-name="パス 3422" d="M27.887,8.352S22.409,2.874,18.091,3,12.226,8.352,14.74,9.834s2.578,1.676,2.062,3.094-.838,2.384,2.642,1.675S27.178,14.346,27.887,8.352Z" fill="none" stroke="#fff" stroke-linecap="round" stroke-linejoin="round" stroke-width="6"/>
          <path id="パス_3423" data-name="パス 3423" d="M28.87,8.352S34.348,2.874,38.666,3s5.865,5.349,3.351,6.831-2.577,1.676-2.062,3.094.838,2.384-2.642,1.675S29.579,14.346,28.87,8.352Z" fill="none" stroke="#fff" stroke-linecap="round" stroke-linejoin="round" stroke-width="6"/>
          <rect id="長方形_497" data-name="長方形 497" width="4.833" height="4.898" rx="1.722" transform="translate(25.962 6.293)" fill="none" stroke="#fff" stroke-linecap="round" stroke-linejoin="round" stroke-width="6"/>
          <rect id="長方形_498" data-name="長方形 498" width="43.308" height="37.535" rx="1.904" transform="translate(6.724 10.655)" fill="none" stroke="#fff" stroke-linecap="round" stroke-linejoin="round" stroke-width="6"/>
          <rect id="長方形_499" data-name="長方形 499" width="5.244" height="37.612" transform="translate(25.757 10.589)" fill="none" stroke="#fff" stroke-linecap="round" stroke-linejoin="round" stroke-width="6"/>
          <rect id="長方形_500" data-name="長方形 500" width="43.27" height="5.244" transform="translate(6.855 26.773)" fill="none" stroke="#fff" stroke-linecap="round" stroke-linejoin="round" stroke-width="6"/>
          <path id="パス_3424" data-name="パス 3424" d="M27.887,8.352S22.409,2.874,18.091,3,12.226,8.352,14.74,9.834s2.578,1.676,2.062,3.094-.838,2.384,2.642,1.675,7.734-.257,8.443-6.251" fill="#ffd76a"/>
          <path id="パス_3425" data-name="パス 3425" d="M28.87,8.352S34.348,2.874,38.666,3s5.865,5.349,3.351,6.831-2.577,1.676-2.062,3.094.838,2.384-2.642,1.675-7.734-.257-8.443-6.251" fill="#ffd76a"/>
          <path id="パス_3426" data-name="パス 3426" d="M29.073,11.191H27.684a1.722,1.722,0,0,1-1.722-1.722V8.015a1.722,1.722,0,0,1,1.722-1.722h1.389A1.722,1.722,0,0,1,30.8,8.015V9.469a1.722,1.722,0,0,1-1.722,1.722" fill="#f4c551"/>
          <path id="パス_3427" data-name="パス 3427" d="M48.128,48.19H8.628a1.9,1.9,0,0,1-1.9-1.9V12.559a1.9,1.9,0,0,1,1.9-1.9h39.5a1.9,1.9,0,0,1,1.9,1.9V46.286a1.9,1.9,0,0,1-1.9,1.9" fill="#ff767b"/>
          <rect id="長方形_501" data-name="長方形 501" width="5.244" height="37.612" transform="translate(25.757 10.589)" fill="#ffd76a"/>
          <rect id="長方形_502" data-name="長方形 502" width="43.27" height="5.244" transform="translate(6.855 26.773)" fill="#ffd76a"/>
          <path id="パス_3428" data-name="パス 3428" d="M11.6,46.053a.39.39,0,0,1,0-.54.349.349,0,0,1,.264-.113.367.367,0,0,1,.276.116.393.393,0,0,1,0,.54.363.363,0,0,1-.278.112A.348.348,0,0,1,11.6,46.053ZM3.091,48.43a22.757,22.757,0,0,1,3.33-.9,14.675,14.675,0,0,1,2.641-.266,2.288,2.288,0,0,1,.893.156.6.6,0,0,1,.35.62,2.821,2.821,0,0,1-.313,1.072,8.392,8.392,0,0,1-.926,1.5,12.51,12.51,0,0,1-1.535,1.671A13.246,13.246,0,0,1,5.4,53.869L7.116,55.38a15.144,15.144,0,0,0,2.558-2.205,12.916,12.916,0,0,0,1.639-2.2,9.351,9.351,0,0,0,.877-1.951,5.476,5.476,0,0,0,.266-1.462c0-.064,0-.126-.005-.186s-.009-.118-.017-.174a1.324,1.324,0,0,1-.576.116,1.45,1.45,0,0,1-.766-.215,1.553,1.553,0,0,1-.549-.561,1.484,1.484,0,0,1-.2-.769,1.105,1.105,0,0,1,.02-.209c.012-.068.026-.135.042-.2a7.029,7.029,0,0,0-.719-.088c-.248-.017-.491-.027-.732-.028a16.09,16.09,0,0,0-2.065.131,22.162,22.162,0,0,0-2.246.4,22.952,22.952,0,0,0-2.248.64ZM12.7,46.617a1.141,1.141,0,0,0,.347-.825,1.118,1.118,0,0,0-.337-.824,1.136,1.136,0,0,0-.832-.348A1.168,1.168,0,0,0,10.7,45.778a1.143,1.143,0,0,0,.337.829,1.11,1.11,0,0,0,.82.353A1.123,1.123,0,0,0,12.7,46.617Z" fill="none" stroke="#ff9239" stroke-linecap="round" stroke-linejoin="round" stroke-width="4"/>
          <path id="パス_3429" data-name="パス 3429" d="M17.68,55a11.6,11.6,0,0,0,1.731-.583,13.369,13.369,0,0,0,1.83-.949,13.108,13.108,0,0,0,1.748-1.292l-.659-2.128a15.8,15.8,0,0,1-1.881,1.429,15.026,15.026,0,0,1-1.727.967,10.291,10.291,0,0,1-1.377.544,3.319,3.319,0,0,1-.842.169.677.677,0,0,1-.6-.28,1.452,1.452,0,0,1-.224-.673,7.159,7.159,0,0,1-.037-.757c0-.551.034-1.164.1-1.835s.148-1.377.264-2.116.258-1.481.422-2.224l-2.026-.348q-.2.958-.366,2.085t-.278,2.249q-.109,1.121-.115,2.093a10.188,10.188,0,0,0,.082,1.363,4.126,4.126,0,0,0,.346,1.238,2.125,2.125,0,0,0,.781.9,2.534,2.534,0,0,0,1.384.344A6.028,6.028,0,0,0,17.68,55Z" fill="none" stroke="#ff9239" stroke-linecap="round" stroke-linejoin="round" stroke-width="4"/>
          <path id="パス_3430" data-name="パス 3430" d="M31.557,55.072a9.545,9.545,0,0,0,2.448-.9l-.432-2.1a6.272,6.272,0,0,1-1.462.753,8.284,8.284,0,0,1-1.526.393,8.623,8.623,0,0,1-1.363.111A2.892,2.892,0,0,1,28.2,53.18a.98.98,0,0,1-.525-.448,2.019,2.019,0,0,1-.2-.787c-.025-.325-.038-.714-.035-1.17q0-.708.07-1.572,1.453-.411,2.4-.609a7.448,7.448,0,0,1,1.267-.2c.256,0,.383.086.382.255a.918.918,0,0,1-.212.485,4.164,4.164,0,0,1-.539.6,6.466,6.466,0,0,1-.7.566l1.649,1.246a13.868,13.868,0,0,0,1.262-1.318,6.857,6.857,0,0,0,.86-1.279,2.623,2.623,0,0,0,.313-1.144,1.17,1.17,0,0,0-.277-.831,1.565,1.565,0,0,0-.73-.43,3.506,3.506,0,0,0-.941-.131,7.906,7.906,0,0,0-1.05.1q-.7.1-1.6.266t-1.863.379q.15-1.08.362-2.133l-2.053-.037c-.074.5-.144.977-.206,1.421s-.115.865-.158,1.265q-.612.165-1.13.329t-.9.318l.336,2.031q.4-.143.776-.266l.739-.241q-.027.444-.029.875a12.586,12.586,0,0,0,.136,2.1,3.271,3.271,0,0,0,.55,1.426,2.355,2.355,0,0,0,1.165.811,6.38,6.38,0,0,0,2,.27A10.692,10.692,0,0,0,31.557,55.072Zm1.875-9.3a3.328,3.328,0,0,1-.41-.548,3.29,3.29,0,0,1-.291-.572l-.746.343a2.7,2.7,0,0,0,.213.458c.1.185.209.359.321.523a2.6,2.6,0,0,0,.262.344Zm1.286-.34a3.671,3.671,0,0,1-.5-.477,3.992,3.992,0,0,1-.393-.512l-.639.5a2.218,2.218,0,0,0,.267.4c.123.152.251.3.382.434a3.274,3.274,0,0,0,.3.289Z" fill="none" stroke="#ff9239" stroke-linecap="round" stroke-linejoin="round" stroke-width="4"/>
          <path id="パス_3431" data-name="パス 3431" d="M42.439,53.573a12.918,12.918,0,0,0,1.4-1.216,13.65,13.65,0,0,0,1.148-1.307,8.165,8.165,0,0,0,.793-1.231v-.012l-1.516-1.414a10.779,10.779,0,0,1-1.356,2.068,9.315,9.315,0,0,1-1.449,1.4,7.993,7.993,0,0,1-1.355.85,6.2,6.2,0,0,1-1.088.42,2.965,2.965,0,0,1-.649.115,1.054,1.054,0,0,1-.778-.316,2.1,2.1,0,0,1-.474-1l-1.817.805a2.893,2.893,0,0,0,2.961,2.55,5.183,5.183,0,0,0,1.092-.137,6.452,6.452,0,0,0,1.528-.591A10.971,10.971,0,0,0,42.439,53.573Zm-2.3-5.625a8.8,8.8,0,0,0-1.431-1.485,13.875,13.875,0,0,0-1.517-1.077L35.8,46.842a9.626,9.626,0,0,1,1.523,1.1,9.2,9.2,0,0,1,1.329,1.436Z" fill="none" stroke="#ff9239" stroke-linecap="round" stroke-linejoin="round" stroke-width="4"/>
          <path id="パス_3432" data-name="パス 3432" d="M48.625,55.5q-.127-.926-.181-1.939T48.4,51.478q0-.6.032-1.211.8.317,1.694.766t1.733.988a11.483,11.483,0,0,1,1.5,1.131l1.127-1.7a14.022,14.022,0,0,0-1.721-1.192,19.672,19.672,0,0,0-2.046-1.056,18.836,18.836,0,0,0-2.155-.812q.09-.97.221-1.811t.267-1.438l-2.039-.216q-.111.7-.225,1.594t-.2,1.9q-.084,1-.138,2.033t-.06,2c0,.56.009,1.109.038,1.644s.073,1.017.135,1.441Z" fill="none" stroke="#ff9239" stroke-linecap="round" stroke-linejoin="round" stroke-width="4"/>
        </g>
      </g>
      <text id="プレゼント" transform="matrix(1, 0.006, -0.006, 1, 2.034, 54.544)" font-size="12" font-family="MochiyPopPOne-Regular, Mochiy Pop P One"><tspan x="0" y="0">プレゼント</tspan></text>
      <text id="プレゼント-2" data-name="プレゼント" transform="matrix(1, 0.006, -0.006, 1, 2.034, 54.544)" fill="#fff" font-size="12" font-family="MochiyPopPOne-Regular, Mochiy Pop P One"><tspan x="0" y="0">プレゼント</tspan></text>
    </g>
  </g>
</svg>
