<svg xmlns="http://www.w3.org/2000/svg" xmlns:xlink="http://www.w3.org/1999/xlink" width="145.511" height="44" viewBox="0 0 145.511 44">
  <defs>
    <radialGradient id="radial-gradient" cx="-0.191" cy="-0.045" r="2.24" gradientTransform="translate(-1.694) scale(4.387 1)" gradientUnits="objectBoundingBox">
      <stop offset="0" stop-color="#ef5467"/>
      <stop offset="1" stop-color="#ec1c25"/>
    </radialGradient>
    <radialGradient id="radial-gradient-2" cx="0.479" cy="0.103" r="3.351" gradientTransform="translate(-0.005) scale(1.01 1)" gradientUnits="objectBoundingBox">
      <stop offset="0" stop-color="#f7798d"/>
      <stop offset="1" stop-color="#c10914"/>
    </radialGradient>
    <radialGradient id="radial-gradient-3" cx="0.233" cy="-8.818" r="16.96" gradientTransform="translate(0.477) scale(0.046 1)" gradientUnits="objectBoundingBox">
      <stop offset="0" stop-color="#efb4ca"/>
      <stop offset="1" stop-color="#ef3243"/>
    </radialGradient>
    <radialGradient id="radial-gradient-4" cx="0.68" cy="-2.764" r="8.222" gradientTransform="translate(-0.005) scale(1.01 1)" gradientUnits="objectBoundingBox">
      <stop offset="0" stop-color="#ef6476"/>
      <stop offset="1" stop-color="#c10914"/>
    </radialGradient>
    <radialGradient id="radial-gradient-5" cx="0.755" cy="-0.655" r="2.241" gradientTransform="translate(-1.693) scale(4.386 1)" xlink:href="#radial-gradient"/>
    <radialGradient id="radial-gradient-6" cx="-0.576" cy="-0.837" r="1.981" gradientTransform="translate(-0.005) scale(1.01 1)" gradientUnits="objectBoundingBox">
      <stop offset="0" stop-color="#ef1c2d"/>
      <stop offset="1" stop-color="#ce0925"/>
    </radialGradient>
    <radialGradient id="radial-gradient-7" cx="0.218" cy="-10.271" r="19.121" gradientTransform="translate(0.477) scale(0.046 1)" gradientUnits="objectBoundingBox">
      <stop offset="0" stop-color="#f71e2f"/>
      <stop offset="1" stop-color="#b70b20"/>
    </radialGradient>
    <radialGradient id="radial-gradient-8" cx="-0.534" cy="-0.398" r="3.082" gradientTransform="translate(-0.005) scale(1.01 1)" gradientUnits="objectBoundingBox">
      <stop offset="0" stop-color="#ef5f70"/>
      <stop offset="1" stop-color="#d60a14"/>
    </radialGradient>
    <radialGradient id="radial-gradient-9" cx="0.5" cy="0.5" r="17.577" gradientTransform="translate(0.477) scale(0.046 1)" gradientUnits="objectBoundingBox">
      <stop offset="0" stop-color="#ef6476"/>
      <stop offset="1" stop-color="#01000a"/>
    </radialGradient>
    <radialGradient id="radial-gradient-10" cx="1.186" cy="1.315" r="1.688" gradientTransform="translate(-0.005) scale(1.01 1)" gradientUnits="objectBoundingBox">
      <stop offset="0" stop-color="#f73d4e"/>
      <stop offset="1" stop-color="#dcdcff"/>
    </radialGradient>
    <radialGradient id="radial-gradient-11" cx="0.817" cy="1.137" r="2.479" gradientTransform="translate(-0.005) scale(1.01 1)" gradientUnits="objectBoundingBox">
      <stop offset="0" stop-color="#d1223b"/>
      <stop offset="1" stop-color="#dcdcff"/>
    </radialGradient>
    <radialGradient id="radial-gradient-12" cx="0.648" cy="0.197" r="1.835" gradientTransform="translate(-0.005) scale(1.01 1)" gradientUnits="objectBoundingBox">
      <stop offset="0" stop-color="#c240e5"/>
      <stop offset="1" stop-color="#dcdcff"/>
    </radialGradient>
    <radialGradient id="radial-gradient-13" cx="0.5" cy="0.5" r="87.604" gradientTransform="translate(0.495) scale(0.01 1)" gradientUnits="objectBoundingBox">
      <stop offset="0" stop-color="#f72b3d"/>
      <stop offset="1" stop-color="#01000a"/>
    </radialGradient>
    <linearGradient id="linear-gradient" x1="0.021" y1="0.085" x2="0.974" y2="0.91" gradientUnits="objectBoundingBox">
      <stop offset="0" stop-color="#f7315d"/>
      <stop offset="1" stop-color="#d80e51"/>
    </linearGradient>
    <radialGradient id="radial-gradient-14" cx="1.036" cy="1.025" r="8.553" gradientTransform="translate(0.38) scale(0.24 1)" gradientUnits="objectBoundingBox">
      <stop offset="0" stop-color="#f76f82"/>
      <stop offset="1" stop-color="#01000a"/>
    </radialGradient>
    <radialGradient id="radial-gradient-15" cx="0.031" cy="0.981" r="10.145" xlink:href="#radial-gradient-14"/>
    <radialGradient id="radial-gradient-16" cx="0.049" cy="0.893" r="5.346" xlink:href="#radial-gradient-14"/>
    <radialGradient id="radial-gradient-17" cx="0.92" cy="1.287" r="5.241" xlink:href="#radial-gradient-14"/>
    <radialGradient id="radial-gradient-18" cx="0.001" cy="0.001" r="2.124" gradientTransform="translate(0.35) scale(0.301 1)" gradientUnits="objectBoundingBox">
      <stop offset="0" stop-color="#f75264"/>
      <stop offset="1" stop-color="#01000a"/>
    </radialGradient>
    <radialGradient id="radial-gradient-19" cx="0.448" cy="-1.57" r="7.077" gradientTransform="translate(0.432) scale(0.136 1)" gradientUnits="objectBoundingBox">
      <stop offset="0" stop-color="#f77a8d"/>
      <stop offset="1" stop-color="#01000a"/>
    </radialGradient>
    <radialGradient id="radial-gradient-20" cx="1.01" cy="0.488" r="2.977" xlink:href="#radial-gradient-18"/>
    <radialGradient id="radial-gradient-21" cx="0.419" cy="3.66" r="5.244" gradientTransform="translate(0.432) scale(0.136 1)" xlink:href="#radial-gradient-18"/>
    <radialGradient id="radial-gradient-22" cx="0.007" cy="-0.069" r="6.359" gradientTransform="translate(0.349) scale(0.302 1)" gradientUnits="objectBoundingBox">
      <stop offset="0" stop-color="#ef5d6d"/>
      <stop offset="1" stop-color="#01000a"/>
    </radialGradient>
    <radialGradient id="radial-gradient-23" cx="0.008" cy="-0.04" r="5.167" gradientTransform="translate(0.434) scale(0.132 1)" xlink:href="#radial-gradient-22"/>
    <radialGradient id="radial-gradient-24" cx="0.985" cy="-0.026" r="2.704" gradientTransform="translate(0.349) scale(0.302 1)" gradientUnits="objectBoundingBox">
      <stop offset="0" stop-color="#ef8a9d"/>
      <stop offset="1" stop-color="#01000a"/>
    </radialGradient>
    <radialGradient id="radial-gradient-25" cx="1.029" cy="1.145" r="7.592" gradientTransform="translate(0.434) scale(0.132 1)" xlink:href="#radial-gradient-22"/>
    <radialGradient id="radial-gradient-26" cx="0.274" cy="-0.374" r="1.745" gradientTransform="translate(0.092) scale(0.817 1)" gradientUnits="objectBoundingBox">
      <stop offset="0" stop-color="#ef7182"/>
      <stop offset="1" stop-color="#01000a"/>
    </radialGradient>
    <radialGradient id="radial-gradient-27" cx="0.614" cy="-0.592" r="2.019" gradientTransform="translate(0.104) scale(0.791 1)" xlink:href="#radial-gradient-26"/>
    <radialGradient id="radial-gradient-28" cx="0.231" cy="-1.103" r="2.614" gradientTransform="translate(0.155) scale(0.69 1)" xlink:href="#radial-gradient-26"/>
  </defs>
  <g id="グループ_920" data-name="グループ 920" transform="translate(-133 -73)">
    <g id="アートワーク_1" data-name="アートワーク 1" transform="translate(205.755 95)">
      <g id="グループ_644" data-name="グループ 644" transform="translate(-72.755 -22)">
        <path id="パス_3492" data-name="パス 3492" d="M145.137,9.863c.224,2.451.374,6.968.374,12.137s-.15,9.686-.374,12.137a45.738,45.738,0,0,1-4.375,4.9,45.442,45.442,0,0,1-4.9,4.374c-12.741.351-36.23.586-63.1.586s-50.362-.235-63.1-.586a45.554,45.554,0,0,1-4.9-4.374,45.841,45.841,0,0,1-4.374-4.9C.15,31.686,0,27.168,0,22S.15,12.314.374,9.863a45.714,45.714,0,0,1,4.374-4.9A45.6,45.6,0,0,1,9.653.584C22.394.235,45.882,0,72.755,0s50.362.235,63.1.584a45.486,45.486,0,0,1,4.9,4.375,45.611,45.611,0,0,1,4.375,4.9Z" fill="#770e1d" fill-rule="evenodd"/>
        <path id="パス_3493" data-name="パス 3493" d="M5.3,19.7c0-3.3.005-6.8.232-10.143L.374,7.561C.15,10.012,0,14.529,0,19.7s.15,9.686.374,12.137l5.159-2C5.306,26.5,5.3,23,5.3,19.7Z" transform="translate(0 2.302)" fill-rule="evenodd" fill="url(#radial-gradient)"/>
        <path id="パス_3494" data-name="パス 3494" d="M5.446,11.721c.925-1.1,2.032-2.217,2.965-3.149.9-.9,1.971-1.966,3.037-2.87L9.565.448a45.6,45.6,0,0,0-4.9,4.375,45.714,45.714,0,0,0-4.374,4.9l5.159,1.994Z" transform="translate(0.087 0.136)" fill-rule="evenodd" fill="url(#radial-gradient-2)"/>
        <path id="パス_3495" data-name="パス 3495" d="M9.282,5.838c8.136-.206,16.283-.3,24.42-.376q18.4-.174,36.8-.16t36.8.16c8.137.077,16.284.17,24.42.376L133.606.584C120.864.235,97.376,0,70.5,0S20.141.235,7.4.584L9.282,5.838Z" transform="translate(2.253)" fill-rule="evenodd" fill="url(#radial-gradient-3)"/>
        <path id="パス_3496" data-name="パス 3496" d="M102.711,5.7c1.066.9,2.137,1.97,3.037,2.87.933.931,2.041,2.047,2.964,3.149l5.16-1.994a45.611,45.611,0,0,0-4.375-4.9,45.486,45.486,0,0,0-4.9-4.375L102.711,5.7Z" transform="translate(31.265 0.136)" fill-rule="evenodd" fill="url(#radial-gradient-4)"/>
        <path id="パス_3497" data-name="パス 3497" d="M107.311,9.555c.228,3.343.232,6.84.232,10.143s0,6.8-.232,10.142l5.16,2c.224-2.451.374-6.969.374-12.137s-.15-9.686-.374-12.137l-5.16,1.994Z" transform="translate(32.665 2.302)" fill-rule="evenodd" fill="url(#radial-gradient-5)"/>
        <path id="パス_3498" data-name="パス 3498" d="M108.711,24.641c-.922,1.1-2.031,2.219-2.964,3.15-.9.9-1.971,1.966-3.037,2.87l1.882,5.253a45.442,45.442,0,0,0,4.9-4.374,45.738,45.738,0,0,0,4.375-4.9l-5.16-2Z" transform="translate(31.265 7.501)" fill-rule="evenodd" fill="url(#radial-gradient-6)"/>
        <path id="パス_3499" data-name="パス 3499" d="M131.724,29.256c-8.136.206-16.283.3-24.42.376q-18.4.174-36.8.16t-36.8-.16c-8.137-.077-16.284-.17-24.42-.376L7.4,34.509c12.741.351,36.23.586,63.1.586s50.362-.235,63.1-.586l-1.882-5.253Z" transform="translate(2.253 8.906)" fill-rule="evenodd" fill="url(#radial-gradient-7)"/>
        <path id="パス_3500" data-name="パス 3500" d="M11.447,30.661c-1.066-.9-2.137-1.97-3.037-2.87-.933-.931-2.04-2.047-2.965-3.15l-5.159,2a45.841,45.841,0,0,0,4.374,4.9,45.554,45.554,0,0,0,4.9,4.374l1.882-5.253Z" transform="translate(0.087 7.501)" fill-rule="evenodd" fill="url(#radial-gradient-8)"/>
        <path id="パス_3501" data-name="パス 3501" d="M70.5,33.3c-33.811,0-61.221-1.809-61.221-4.04L7.4,34.509c12.741.351,36.23.586,63.1.586s50.362-.235,63.1-.586l-1.882-5.253c0,2.231-27.409,4.04-61.221,4.04Z" transform="translate(2.253 8.906)" fill-rule="evenodd" opacity="0.5" fill="url(#radial-gradient-9)" style="mix-blend-mode: screen;isolation: isolate"/>
        <path id="パス_3502" data-name="パス 3502" d="M9.565.448C11.222,6.7,4.779,11.218.287,9.726l5.159,1.994c.925-1.1,2.032-2.217,2.965-3.149.9-.9,1.971-1.966,3.037-2.87L9.565.448Z" transform="translate(0.087 0.136)" fill-rule="evenodd" fill="url(#radial-gradient-10)" style="mix-blend-mode: multiply;isolation: isolate"/>
        <path id="パス_3503" data-name="パス 3503" d="M11.315,5.6c8.136-.206,16.283-.3,24.42-.376q18.4-.174,36.8-.16t36.8.16l2.232.021c-32.933-.62-66.5-.822-99.78-.247l-.376-.237c-.634-1.383-1.2-2.613-1.83-4,.374,1.469.419,2.525.793,3.994l-.1.462A14.681,14.681,0,0,1,5.04,10.621l-.449.1c-1.4-.429-2.469-.446-3.869-.875,1.315.605,2.544,1.21,3.858,1.816l.237.376c-.1,6.552-.108,13.014.007,19.353l-.23.391c-.819.44-1.552.879-2.371,1.32.905-.231,1.769-.413,2.674-.644l.445.123c1.774,1.774,3.689,3.633,5.426,5.407l.12.447c-.177.707-.291,1.274-.475,2.006.339-.67.7-1.229,1.038-1.9l.385-.231c14.171.3,32.482.314,46.63.13-6.231-.026-16.5-.081-22.732-.14-8.137-.077-16.284-.17-24.42-.376-1.066-.9-2.137-1.97-3.037-2.87-.933-.931-2.04-2.047-2.965-3.15-.227-3.343-.232-6.839-.232-10.142s.005-6.8.232-10.143c.925-1.1,2.032-2.217,2.965-3.149.9-.9,1.971-1.966,3.037-2.87Z" transform="translate(0.22 0.234)" fill="#b49dff" fill-rule="evenodd" style="mix-blend-mode: screen;isolation: isolate"/>
        <path id="パス_3504" data-name="パス 3504" d="M104.593.448c-1.657,6.251,4.786,10.77,9.278,9.278l-5.16,1.994c-.922-1.1-2.031-2.217-2.964-3.149-.9-.9-1.971-1.966-3.037-2.87L104.593.448Z" transform="translate(31.265 0.136)" fill-rule="evenodd" fill="url(#radial-gradient-11)" style="mix-blend-mode: multiply;isolation: isolate"/>
        <path id="パス_3505" data-name="パス 3505" d="M104.593,35.914c-1.657-6.249,4.786-10.77,9.278-9.277l-5.16-2c-.922,1.1-2.031,2.219-2.964,3.15-.9.9-1.971,1.966-3.037,2.87l1.882,5.253Z" transform="translate(31.265 7.501)" fill-rule="evenodd" fill="url(#radial-gradient-12)" style="mix-blend-mode: multiply;isolation: isolate"/>
        <path id="パス_3506" data-name="パス 3506" d="M117.832,30.578c-.922,1.1-2.031,2.219-2.964,3.15-.9.9-1.971,1.966-3.037,2.87-8.136.206-16.283.3-24.42.376q-7.331.068-14.663.106,19.308.08,38.648-.057l.37.241q.906,2.107,1.813,4.215-.655-2.166-1.31-4.331l.1-.449q2.618-2.843,5.382-5.54l.445-.111,3.449,1.007-3.21-1.488-.232-.377q.329-9.718.007-19.438l.23-.381L121.5,8.877l-3.268,1.011-.434-.113c-1.548-1.629-3.287-3.141-4.992-4.637.732.676,1.44,1.381,2.065,2.007.933.931,2.041,2.047,2.964,3.149.228,3.343.232,6.84.232,10.143s0,6.8-.232,10.142Z" transform="translate(22.145 1.564)" fill="#ff65c4" fill-rule="evenodd" style="mix-blend-mode: screen;isolation: isolate"/>
        <path id="パス_3507" data-name="パス 3507" d="M7.4.591c.28.39,28.424.706,63.1.706S133.324.981,133.6.591V.584C120.864.235,97.376,0,70.5,0S20.141.235,7.4.584V.591Z" transform="translate(2.253)" fill-rule="evenodd" fill="url(#radial-gradient-13)" style="mix-blend-mode: screen;isolation: isolate"/>
        <path id="パス_3508" data-name="パス 3508" d="M4.3,30.9c.925,1.1,2.032,2.219,2.964,3.15.9.9,1.972,1.966,3.038,2.87,8.136.206,16.283.3,24.42.376q18.4.174,36.8.16t36.8-.16c8.137-.077,16.283-.17,24.42-.376,1.066-.9,2.137-1.97,3.037-2.87.933-.931,2.041-2.047,2.964-3.15.228-3.343.232-6.839.232-10.142s0-6.8-.232-10.143c-.922-1.1-2.031-2.217-2.964-3.149-.9-.9-1.971-1.966-3.037-2.87-8.137-.206-16.283-.3-24.42-.376q-18.4-.174-36.8-.16t-36.8.16C26.581,4.3,18.433,4.4,10.3,4.6c-1.066.9-2.138,1.97-3.037,2.87C6.328,8.4,5.221,9.517,4.3,10.62c-.227,3.343-.232,6.84-.232,10.143s.005,6.8.232,10.142Z" transform="translate(1.237 1.237)" fill-rule="evenodd" fill="url(#linear-gradient)"/>
        <g id="グループ_643" data-name="グループ 643" transform="translate(5.301 5.302)" opacity="0.5">
          <path id="パス_3509" data-name="パス 3509" d="M4.242,10.494,71.464,20.638,10.244,4.476c-1.066.9-2.138,1.97-3.037,2.87-.933.931-2.04,2.047-2.965,3.149Z" transform="translate(-4.01 -3.94)" fill-rule="evenodd" opacity="0.5" fill="url(#radial-gradient-14)" style="mix-blend-mode: screen;isolation: isolate"/>
          <path id="パス_3510" data-name="パス 3510" d="M123,10.494,55.777,20.638,117,4.476c1.066.9,2.137,1.97,3.037,2.87.933.931,2.041,2.047,2.964,3.149Z" transform="translate(11.677 -3.94)" fill-rule="evenodd" opacity="0.5" fill="url(#radial-gradient-15)" style="mix-blend-mode: screen;isolation: isolate"/>
          <path id="パス_3511" data-name="パス 3511" d="M4.242,27.008,71.464,16.866,10.244,33.028c-1.066-.9-2.137-1.97-3.037-2.87-.933-.931-2.04-2.047-2.965-3.15Z" transform="translate(-4.01 -0.168)" fill-rule="evenodd" opacity="0.75" fill="url(#radial-gradient-16)" style="mix-blend-mode: screen;isolation: isolate"/>
          <path id="パス_3512" data-name="パス 3512" d="M123,27.008,55.777,16.866,117,33.028c1.066-.9,2.137-1.97,3.037-2.87.933-.931,2.041-2.047,2.964-3.15Z" transform="translate(11.677 -0.168)" fill-rule="evenodd" fill="url(#radial-gradient-17)" style="mix-blend-mode: screen;isolation: isolate"/>
          <path id="パス_3513" data-name="パス 3513" d="M4.3,29.375,71.518,19.233,4.3,9.09c-.227,3.343-.232,6.84-.232,10.143s.005,6.8.232,10.142Z" transform="translate(-4.064 -2.535)" fill-rule="evenodd" opacity="0.3" fill="url(#radial-gradient-18)" style="mix-blend-mode: screen;isolation: isolate"/>
          <path id="パス_3514" data-name="パス 3514" d="M8.843,4.6,70.064,20.763,131.284,4.6c-8.137-.206-16.283-.3-24.42-.376q-18.4-.174-36.8-.16t-36.8.16c-8.137.077-16.284.17-24.42.376Z" transform="translate(-2.609 -4.065)" fill-rule="evenodd" opacity="0.75" fill="url(#radial-gradient-19)" style="mix-blend-mode: screen;isolation: isolate"/>
          <path id="パス_3515" data-name="パス 3515" d="M123,9.09,55.777,19.233,123,29.375c.228-3.343.232-6.839.232-10.142s0-6.8-.232-10.143Z" transform="translate(11.677 -2.535)" fill-rule="evenodd" opacity="0.5" fill="url(#radial-gradient-20)" style="mix-blend-mode: screen;isolation: isolate"/>
          <path id="パス_3516" data-name="パス 3516" d="M131.284,33.028,70.064,16.866,8.843,33.028c8.136.206,16.283.3,24.42.376q18.4.174,36.8.16t36.8-.16c8.137-.077,16.283-.17,24.42-.376Z" transform="translate(-2.609 -0.168)" fill-rule="evenodd" opacity="0.8" fill="url(#radial-gradient-21)" style="mix-blend-mode: screen;isolation: isolate"/>
          <path id="パス_3517" data-name="パス 3517" d="M13.693,27.081,68.587,18.8,13.693,10.516V27.081Z" transform="translate(-1.133 -2.101)" fill-rule="evenodd" opacity="0.5" fill="url(#radial-gradient-22)" style="mix-blend-mode: screen;isolation: isolate"/>
          <path id="パス_3518" data-name="パス 3518" d="M31.724,10.516,63.1,18.8l31.375-8.282Z" transform="translate(4.356 -2.101)" fill-rule="evenodd" fill="url(#radial-gradient-23)" style="mix-blend-mode: screen;isolation: isolate"/>
          <path id="パス_3519" data-name="パス 3519" d="M110.671,10.516,55.777,18.8l54.894,8.283V10.516Z" transform="translate(11.677 -2.101)" fill-rule="evenodd" opacity="0.5" fill="url(#radial-gradient-24)" style="mix-blend-mode: screen;isolation: isolate"/>
          <path id="パス_3520" data-name="パス 3520" d="M94.474,25.148,63.1,16.866,31.724,25.148Z" transform="translate(4.356 -0.168)" fill-rule="evenodd" opacity="0.7" fill="url(#radial-gradient-25)" style="mix-blend-mode: screen;isolation: isolate"/>
        </g>
        <path id="パス_3521" data-name="パス 3521" d="M11.426,36.932l32.8-32.8q-4.756.031-9.513.077-5.9.055-11.794.133L4.068,23.194c.01,2.551.056,5.165.227,7.691.925,1.1,2.032,2.219,2.965,3.15.9.9,1.971,1.966,3.037,2.87l1.13.027Z" transform="translate(1.238 1.257)" fill-rule="evenodd" opacity="0.65" fill="url(#radial-gradient-26)" style="mix-blend-mode: screen;isolation: isolate"/>
        <path id="パス_3522" data-name="パス 3522" d="M56.16,4.074,23,37.238q2.98.033,5.958.061l2.82.025L65.035,4.065q-4.438,0-8.875.009Z" transform="translate(7 1.237)" fill-rule="evenodd" opacity="0.65" fill="url(#radial-gradient-27)" style="mix-blend-mode: screen;isolation: isolate"/>
        <path id="パス_3523" data-name="パス 3523" d="M101.679,4.3,68.626,37.358q9.216-.035,18.434-.116L116.513,7.788c-.133-.133-.262-.263-.39-.39-.9-.9-1.971-1.966-3.037-2.87q-5.7-.145-11.407-.226Z" transform="translate(20.89 1.31)" fill-rule="evenodd" opacity="0.65" fill="url(#radial-gradient-28)" style="mix-blend-mode: screen;isolation: isolate"/>
      </g>
    </g>
    <text id="令和クイズ" transform="translate(207 104)" fill="#fff" font-size="22" font-family="MochiyPopPOne-Regular, Mochiy Pop P One" letter-spacing="0.07em"><tspan x="-54.34" y="0">令和クイズ</tspan></text>
  </g>
</svg>
