<svg xmlns="http://www.w3.org/2000/svg" xmlns:xlink="http://www.w3.org/1999/xlink" width="309.046" height="65.149" viewBox="0 0 309.046 65.149">
  <defs>
    <clipPath id="clip-path">
      <rect id="長方形_414" data-name="長方形 414" width="309.046" height="65.149" transform="translate(0 0)" fill="none"/>
    </clipPath>
    <clipPath id="clip-path-2">
      <rect id="長方形_413" data-name="長方形 413" width="309.046" height="65.149" fill="none"/>
    </clipPath>
    <clipPath id="clip-path-3">
      <rect id="長方形_411" data-name="長方形 411" width="309.046" height="30.149" fill="none"/>
    </clipPath>
    <clipPath id="clip-path-4">
      <rect id="長方形_412" data-name="長方形 412" width="168.167" height="30.028" transform="translate(70.547 35.121)" fill="none"/>
    </clipPath>
  </defs>
  <g id="グループ_418" data-name="グループ 418" transform="translate(0 0)">
    <g id="グループ_417" data-name="グループ 417" clip-path="url(#clip-path)">
      <g id="グループ_416" data-name="グループ 416" style="isolation: isolate">
        <g id="グループ_415" data-name="グループ 415">
          <g id="グループ_414" data-name="グループ 414" clip-path="url(#clip-path-2)">
            <g id="グループ_410" data-name="グループ 410" style="isolation: isolate">
              <g id="グループ_409" data-name="グループ 409">
                <g id="グループ_408" data-name="グループ 408" clip-path="url(#clip-path-3)">
                  <path id="パス_1090" data-name="パス 1090" d="M308.725,19.044a3,3,0,0,0-4.3-2.469l-.232.112a2.979,2.979,0,0,0,0-.453q.475-.093.809-.153a3,3,0,0,0,2.257-4.054l-.221-.56a3,3,0,0,0,1.19-1.978l.48-3.24a3,3,0,0,0-2.745-3.431q-.705-.053-1.574-.08c-.556-.015-1.154-.025-1.793-.025-1.194,0-2.506.033-3.9.1l-.325.016a3,3,0,0,0-2.17-1.674l-3.767-.7a3.092,3.092,0,0,0-.547-.05,3,3,0,0,0-2.741,1.782c-.276.623-.517,1.224-.717,1.792-.291.061-.576.123-.854.188-.871.2-1.678.424-2.4.658a2.974,2.974,0,0,0-.611.287A8.06,8.06,0,0,0,281.578,3.1a10.749,10.749,0,0,0-3.923-.722,16.58,16.58,0,0,0-2.588.2,3.009,3.009,0,0,0-1.331-.823L269.871.607A3,3,0,0,0,266.529,1.8a29.267,29.267,0,0,0-3.159,6.191c-.27.725-.512,1.5-.742,2.284l-1.877-1.729a3,3,0,0,0-2.033-.794,3.071,3.071,0,0,0-.53.047,3,3,0,0,0-2.143,1.591,18.729,18.729,0,0,1-2.306,3.579,15.835,15.835,0,0,1-2.414,2.362,13.189,13.189,0,0,1-2.183,1.4,9.4,9.4,0,0,1-1.627.649l-.082.021c-.019-.062-.038-.131-.057-.211a3,3,0,0,0-1.064-1.647,2.979,2.979,0,0,0,.972.241c.075.006.151.009.226.009a3,3,0,0,0,2.1-.853l2.952-2.879a3,3,0,0,0,.277-3.985,20.538,20.538,0,0,0-3.379-3.459,30.343,30.343,0,0,0-3.384-2.368,3,3,0,0,0-3.72.519L239.592,5.7a2.959,2.959,0,0,0-.165,3.9,6.008,6.008,0,0,0-1.2-1.044l.451-2.557a3,3,0,0,0-2.111-3.4c-.756-.222-1.612-.421-2.62-.61-.958-.179-1.994-.338-3.076-.473s-2.193-.237-3.307-.3-2.184-.1-3.194-.1q-1.03,0-1.915.039a15,15,0,0,0-1.9.2,3,3,0,0,0-2.479,2.641l-.408,3.865a3.005,3.005,0,0,0,.137,1.26c-.309.1-.611.195-.906.3-.147-.31-.28-.63-.452-.923a11.8,11.8,0,0,0-5.025-4.664,15.66,15.66,0,0,0-6.994-1.509,13.873,13.873,0,0,0-5.611,1.081,13.3,13.3,0,0,0-4.129,2.8A15.23,15.23,0,0,0,192.02,9.8a16.6,16.6,0,0,0-1.459,3.779,16.093,16.093,0,0,0-.393,2.248c-.031-.06-.066-.121-.1-.181a24.364,24.364,0,0,1-1.68-3.983,3,3,0,0,0-2.87-2.135,3.059,3.059,0,0,0-.712.086l-3.647.888a3.043,3.043,0,0,0-.723.279c.686-1.225,1.457-2.481,2.3-3.741a3,3,0,0,0-1.588-4.522L177,1.2a3.036,3.036,0,0,0-.908-.14,3,3,0,0,0-2.539,1.4,60.437,60.437,0,0,0-3.4,6.088c-.3.63-.578,1.238-.842,1.836a2.885,2.885,0,0,0-2.192-1.674l-.326-.055.469-2.778A3,3,0,0,0,165.14,2.5a23.91,23.91,0,0,0-4.1-.761,43.308,43.308,0,0,0-4.656-.246,43.779,43.779,0,0,0-4.9.271,23.794,23.794,0,0,0-4.4.875,2.989,2.989,0,0,0-1.957,1.978l-2.507-2.9a3,3,0,0,0-3.234-.88,22.411,22.411,0,0,0-3.5,1.563c-1.142.622-2.324,1.337-3.513,2.128s-2.341,1.623-3.465,2.5c-1.1.861-2.158,1.738-3.147,2.608-.927.817-1.756,1.61-2.492,2.367a7.7,7.7,0,0,0,.564-2.877,7.172,7.172,0,0,0-1.1-3.994,7.27,7.27,0,0,0-2.817-2.507,11.375,11.375,0,0,0-3.276-1.053A20.224,20.224,0,0,0,113.3,1.3a31.918,31.918,0,0,0-4.214.291c-1.392.186-2.783.437-4.13.744-1.319.3-2.571.629-3.723.98-.908.276-1.7.54-2.4.8a2.967,2.967,0,0,0-1.7-.887c-.724-.109-1.571-.195-2.518-.255q-.621-.04-1.3-.063a6.727,6.727,0,0,0-.4-.847A3,3,0,0,0,90.312.529l-3.75.1a3,3,0,0,0-2.9,2.665q-.421.042-.841.089c-1.5.165-2.984.376-4.413.626-1.454.256-2.827.559-4.079.9a2.976,2.976,0,0,0-1.342.8v-.43a3,3,0,0,0-3-3h-3.7a3.054,3.054,0,0,0-.721.087A3,3,0,0,0,62.736.361H59.112a3,3,0,0,0-2.824,1.984,3.022,3.022,0,0,0-.488-.039H52.295a3,3,0,0,0-3,3v7.976a2.985,2.985,0,0,0-.931,1.927l-3.472-1.921a3,3,0,0,0-4.259,1.567,7.418,7.418,0,0,1-.656,1.285,5.956,5.956,0,0,1-.924,1.132A4.153,4.153,0,0,1,38.018,18a1.583,1.583,0,0,1-.722.168,2.386,2.386,0,0,1-1.013-.21.924.924,0,0,1-.415-.4,2.555,2.555,0,0,1-.2-1.194,13.336,13.336,0,0,1,.3-2.483,27.152,27.152,0,0,1,1-3.539,35.675,35.675,0,0,1,1.727-4.071A3,3,0,0,0,37,2.115L33.18.772a3,3,0,0,0-3.73,1.6c-.733,1.622-1.35,3.18-1.873,4.675V5.665a3,3,0,0,0-2.9-3,3,3,0,0,0-2.063-1.7L18.772.078A3,3,0,0,0,15.207,2.19c-.04.145-.092.3-.155.475h-.779a11.157,11.157,0,0,0-1.114-1.536A3,3,0,0,0,9.821.3l-3,1.151A3,3,0,0,0,5.348,2.665H4.9a3,3,0,0,0-3,3V8.642a2.988,2.988,0,0,0,.584,1.779A3,3,0,0,0,.913,13.058v3.023a3,3,0,0,0,2.421,2.944A6.867,6.867,0,0,1,1.4,20.864a3,3,0,0,0,.039,5.1,8.883,8.883,0,0,1,.739.523q.505.391.983.8c.26.227.468.418.619.58a3,3,0,0,0,4.029.332l.02-.014a3.022,3.022,0,0,0,1.1.208H25.152a3,3,0,0,0,3-3v-1.5c.1.131.2.268.3.394a10,10,0,0,0,3.671,2.661,12.308,12.308,0,0,0,4.881.916,12.661,12.661,0,0,0,4.761-.854,13.129,13.129,0,0,0,3.59-2.152,15.645,15.645,0,0,0,2.582-2.792c.14-.194.262-.387.394-.582V25.85a3,3,0,0,0,3,3h3.553a3,3,0,0,0,2.5-1.345h7.4a3,3,0,0,0,2.5,1.345h3.649a3,3,0,0,0,3-3V15.481a2.993,2.993,0,0,0-.96-2.2V11.563l.093.365a3,3,0,0,0,2.907,2.258,3.06,3.06,0,0,0,.7-.082c-.017.07-.031.141-.045.211a8.44,8.44,0,0,0-.174,1.575,7.041,7.041,0,0,0,1.21,4.006,7.95,7.95,0,0,0,3,2.632c.065.034.13.066.2.1a3.038,3.038,0,0,0-.152.627A3,3,0,0,0,82.1,26.188l3.312,2.063a3,3,0,0,0,2.715.233,11.585,11.585,0,0,0,6.244-6.044,11.229,11.229,0,0,0,.956-4.607,11.659,11.659,0,0,0-.433-3.255,9.993,9.993,0,0,0-.619-1.6c.023-.184.042-.367.059-.552.543.046,1.029.106,1.454.182a3.014,3.014,0,0,0,2.321-.553c.047-.036.084-.081.129-.12l.091.2a3,3,0,0,0,3.936,1.513c.76-.333,1.538-.639,2.325-.917a2.565,2.565,0,0,1,.216,1.12,6.107,6.107,0,0,1-.432,2.1A7.757,7.757,0,0,1,103,18.232a7.461,7.461,0,0,1-2.319,1.78,3,3,0,0,0-.622,4.916l3.145,2.784a3,3,0,0,0,3.606.28,17.422,17.422,0,0,0,4.539-4.1,16.939,16.939,0,0,0,2.186-3.771c.091.009.183.013.275.013a2.986,2.986,0,0,0,1.337-.316c.425-.212.954-.511,1.62-.918a22.111,22.111,0,0,0,2.13-1.5,18.679,18.679,0,0,0,1.645-1.487,2.989,2.989,0,0,0,.936,2.617l2.856,2.616a3,3,0,0,0,2.027.789c.076,0,.154,0,.231-.009a3.005,3.005,0,0,0,2.111-1.117c.42-.525.938-1.106,1.545-1.735v.149q0,1.5-.056,2.848-.057,1.326-.146,2.269a3,3,0,0,0,2.829,3.278l4.128.217c.054,0,.107,0,.16,0a3,3,0,0,0,2.978-2.657c.1-.9.182-1.921.232-3.027s.076-2.235.076-3.388c0-1.136-.026-2.287-.076-3.42-.05-1.156-.137-2.262-.257-3.286q-.039-.339-.083-.663.6-.346,1.193-.666a22.4,22.4,0,0,1,2.76-1.249,2.978,2.978,0,0,0,1.368-1.061l.142,1.047c-.206.048-.408.1-.609.145a3,3,0,0,0-2.18,3.674l.984,3.744a3,3,0,0,0,2.8,2.237,3,3,0,0,0-.376,3.459l2.04,3.647a3,3,0,0,0,3.255,1.467,19.253,19.253,0,0,0,6.07-2.316,12.044,12.044,0,0,0,4.179-4.3,14.423,14.423,0,0,0,1.29-3.082l.077.007c.819.089,1.594.2,2.3.33a3.046,3.046,0,0,0,.543.049,2.968,2.968,0,0,0,.694-.092,10.722,10.722,0,0,0-.29,2.131,6.76,6.76,0,0,0,1.874,4.808,7.027,7.027,0,0,0,5.278,1.984h.288a4.638,4.638,0,0,0,.624-.041,21.489,21.489,0,0,0,5.889-1.354c1.073-.407,2.221-.884,3.433-1.425.294.467.592.918.89,1.346a3,3,0,0,0,4.058.821l3.432-2.159a2.99,2.99,0,0,0,.575-.487,7.516,7.516,0,0,0,.561.539,6.8,6.8,0,0,0,4.417,1.537,8.2,8.2,0,0,0,3.716-.922,11.9,11.9,0,0,0,2.174-1.424,2.994,2.994,0,0,0,1,1.138l3.528,2.376a3,3,0,0,0,3.332.012,16.3,16.3,0,0,0,3.6-3.22,14.917,14.917,0,0,0,2.384-4.011q.219-.557.385-1.118a2.876,2.876,0,0,0,1.895-.049,24.946,24.946,0,0,1,2.953-.877c1.1-.256,2.2-.473,3.273-.643.88-.14,1.719-.252,2.5-.331l-.075.063c-.627.519-1.288,1.025-1.965,1.5a18.477,18.477,0,0,1-1.819,1.149,3,3,0,0,0-.809,4.62l2.76,3.12a3,3,0,0,0,3.926.5,40.557,40.557,0,0,0,3.839-2.943,33.408,33.408,0,0,0,3.348-3.324c.213-.245.411-.49.607-.734,1.324,4.249,4.368,6.58,8.647,6.58a13.23,13.23,0,0,0,2.836-.36,15.711,15.711,0,0,0,3.786-1.469,25.061,25.061,0,0,0,3.533-2.25,28.71,28.71,0,0,0,3.111-2.737A30.46,30.46,0,0,0,262.4,18.1a2.985,2.985,0,0,0,1.233.7l3.816,1.056a3,3,0,0,0,3.761-2.406c.162-.987.355-1.931.574-2.806.115-.459.236-.911.362-1.35q.525-.219,1.075-.394a16.58,16.58,0,0,1,2.3-.559l.019,0c-.052.128-.107.26-.165.4a27.016,27.016,0,0,1-1.341,2.678,26.86,26.86,0,0,1-1.988,3,25.082,25.082,0,0,1-2.679,2.988,3,3,0,0,0,.7,4.833l3.865,1.993a3,3,0,0,0,3.541-.591,35.35,35.35,0,0,0,4.08-5.095,37.355,37.355,0,0,0,2.738-4.924,30,30,0,0,0,1.492-3.94,2.988,2.988,0,0,0,.947.172c.073,0,.145,0,.218-.008-.136.168-.262.338-.382.509a8.666,8.666,0,0,0-1.3,2.711,9.009,9.009,0,0,0-.314,2.284,8.268,8.268,0,0,0,.851,3.839,7.527,7.527,0,0,0,2.322,2.692,9.781,9.781,0,0,0,2.887,1.4,15.837,15.837,0,0,0,2.882.577,25.2,25.2,0,0,0,2.7.151,31.631,31.631,0,0,0,3.691-.2,27.631,27.631,0,0,0,3.335-.605c1.054-.259,2.2-.6,3.4-1.012a3,3,0,0,0,2.019-3.067Z" fill="#000333"/>
                  <text id="差し出すアイテムのランクを" transform="translate(2.688 23.069)" fill="#fff" font-size="24" font-family="MochiyPopPOne-Regular, Mochiy Pop P One"><tspan x="0" y="0" letter-spacing="0.059em">差し出すアイテムのランク</tspan><tspan y="0">を</tspan></text>
                </g>
              </g>
            </g>
            <g id="グループ_413" data-name="グループ 413" style="isolation: isolate">
              <g id="グループ_412" data-name="グループ 412">
                <g id="グループ_411" data-name="グループ 411" clip-path="url(#clip-path-4)">
                  <path id="パス_1091" data-name="パス 1091" d="M122.179,50.522l-3.192-2.04a3,3,0,0,0-2.753-.249,3.02,3.02,0,0,0-1.068.742q-.27-.543-.558-1a6.986,6.986,0,0,0-2.574-2.513,6.583,6.583,0,0,0-2.068-.689c.4-1.022.873-2.174,1.422-3.442a3,3,0,0,0-1.957-4.085l-3.84-1.057a3,3,0,0,0-3.562,1.732c-.441,1.051-.9,2.286-1.379,3.666s-.934,2.833-1.373,4.331c-.28.954-.533,1.908-.794,2.863V47.7a3.028,3.028,0,0,0-.036-.469,6.535,6.535,0,0,0,.809-2.283,3,3,0,0,0-.892-2.69V38.672a3,3,0,0,0-3-3H88c-.105,0-.209.006-.312.016-.1-.01-.206-.016-.312-.016H80.22a2.983,2.983,0,0,0-1.878.661,3,3,0,0,0-3.555-.275l-2.759,1.728a3,3,0,0,0-.614,4.577q.513.555,1.046,1.217c.234.291.456.582.66.868a3,3,0,0,0-2.189,2.888v3.217a3,3,0,0,0,2.232,2.9v.417l-.119.089q-.591.444-1.14.8a3,3,0,0,0-1.059,3.813l1.608,3.336a3,3,0,0,0,2.158,1.647,3.036,3.036,0,0,0,.545.05,3,3,0,0,0,2.059-.818q.491-.464.933-.89a8.214,8.214,0,0,0,1.265.625,14.005,14.005,0,0,0,4.5.865q1.23.047,2.783.074,1.031.017,2.115.016l1.1,0q1.654-.014,3.215-.049,1.595-.038,2.864-.112a2.993,2.993,0,0,0,2.532-1.727l3.709,1a2.942,2.942,0,0,0,.783.1,3,3,0,0,0,2.92-2.309,36.9,36.9,0,0,1,1.213-4.2c.07-.189.138-.357.2-.508.032.109.066.226.1.349a10.52,10.52,0,0,0,2.287,4.244,6.767,6.767,0,0,0,5.158,2.18,6.887,6.887,0,0,0,3.9-1.128,8.492,8.492,0,0,0,2.428-2.476,15.27,15.27,0,0,0,1.344-2.6q.476-1.182.835-2.236a3,3,0,0,0-1.223-3.5" fill="#000333"/>
                  <path id="パス_1092" data-name="パス 1092" d="M227.931,49.264a3,3,0,0,0-5.49.647q-.078.27-.158.5c-.12-.293-.245-.633-.372-1.025a28.126,28.126,0,0,1-.981-4.267,42.6,42.6,0,0,1-.481-5.223,3,3,0,0,0-3-2.9,2.921,2.921,0,0,0-.427.031l-3.84.552a2.981,2.981,0,0,0-2.016,1.247c-.032,0-.062-.014-.094-.017-.621-.057-1.314-.084-2.119-.084s-1.693.025-2.635.076l-.61.035c-.178-.509-.33-1.005-.453-1.473a3,3,0,0,0-2.9-2.239,2.911,2.911,0,0,0-.424.031l-3.72.528a3,3,0,0,0-2.463,3.793q.069.239.141.48-.753.125-1.48.257c-1.147.21-2.13.423-3,.643a2.989,2.989,0,0,0-1.021-2.051,5.432,5.432,0,0,1-.674-.721,5.339,5.339,0,0,1-.524-.749,3,3,0,0,0-4.237-1.1,3,3,0,0,0-1.969.08l-1.7.672a2.989,2.989,0,0,0-1.169.829,3.792,3.792,0,0,0-.49-.031h-.152c-.023-.049-.046-.1-.072-.146a3,3,0,0,0-2.172-1.566l-3.96-.648a3.081,3.081,0,0,0-.486-.039,3,3,0,0,0-2.734,1.77c-.18.4-.386.928-.631,1.619q-.1.281-.2.587-.5.125-.982.247c-.908.233-1.654.455-2.281.676a2.97,2.97,0,0,0-.589.293,3.055,3.055,0,0,0-.2-.326l-2.64-3.36a3,3,0,0,0-3.99-.664q-.8.518-1.888,1.2-1.142.712-2.382,1.523T151.8,40.593q-1.248.857-2.283,1.639c-.714.54-1.325,1.035-1.84,1.493-.293.267-.563.528-.817.787a2.962,2.962,0,0,0-.475-.543,2.958,2.958,0,0,0,.117-.9l-.072-3.265a3,3,0,0,0-2.72-2.921c-1.112-.1-2.32-.156-3.592-.156-1.514,0-3.109.063-4.741.188-1.616.124-3.225.291-4.784.5s-3.063.447-4.442.711c-1.4.268-2.651.552-3.721.845a3,3,0,0,0-2.193,3.188l.36,3.649a3,3,0,0,0,2.985,2.705,2.963,2.963,0,0,0,.68-.078q1.47-.342,2.767-.629c-.041.1-.082.207-.12.311a11.407,11.407,0,0,0-.759,3.9,9.66,9.66,0,0,0,.882,4.027,10.017,10.017,0,0,0,2.715,3.5,13.453,13.453,0,0,0,4.4,2.373,21.974,21.974,0,0,0,5.969,1.021l.143,0A3,3,0,0,0,143.074,61l1.44-3.816a3,3,0,0,0-2.74-4.058c-.649-.014-1.338-.051-2.071-.111a14.039,14.039,0,0,1-1.92-.287,6.627,6.627,0,0,1-1.438-.478,1.315,1.315,0,0,1-.326-.206,2.1,2.1,0,0,1,.335-1.053,6.648,6.648,0,0,1,.7-.975c.305.3.618.59.933.861.453.389.788.653,1,.8a3,3,0,0,0,4.161-.729l.045-.065c.089.008.177.012.265.012a2.989,2.989,0,0,0,.646-.086c.219,2.026,1.511,3.954,3.85,5.718a24.947,24.947,0,0,0,3.316,2.159c1.156.634,2.362,1.224,3.584,1.753,1.195.518,2.382.988,3.522,1.393,1.094.39,2.123.735,3.061,1.025a3,3,0,0,0,3.553-1.491l.267-.518a2.983,2.983,0,0,0,1.563.841l3.863.744a3,3,0,0,0,2.3-.5,3,3,0,0,0,1.236-2q.067-.447.151-.934c.035.03.071.058.107.086a13.635,13.635,0,0,0,2.273,1.362,21,21,0,0,0,2.824,1.121,23.5,23.5,0,0,0,3.234.786,20.6,20.6,0,0,0,3.445.3c.22,0,.44-.005.678-.016.214-.011.428-.025.643-.044a3,3,0,0,0,2.725-2.747l.2-2.446a15.055,15.055,0,0,0,1.575,1.638,16.351,16.351,0,0,0,4.654,2.873,18.013,18.013,0,0,0,5.7,1.287c.066.005.132.007.2.007a3,3,0,0,0,2.83-2.008l1.3-3.7q.027-.073.048-.15a3.033,3.033,0,0,0,.529.047,2.986,2.986,0,0,0,2.093-.852l2.76-2.688a2.963,2.963,0,0,0,.534-.733c.1.275.18.563.282.829a18.226,18.226,0,0,0,1.973,3.833,10.879,10.879,0,0,0,2.994,2.988,7.777,7.777,0,0,0,4.316,1.279,7.578,7.578,0,0,0,4.979-1.807,12.882,12.882,0,0,0,3.056-4.1,3,3,0,0,0-.075-2.824Z" fill="#000333"/>
                  <path id="パス_1093" data-name="パス 1093" d="M237.835,44.232q-.606-.606-1.514-1.41-.874-.775-1.926-1.623c-.723-.583-1.471-1.142-2.221-1.658a21.03,21.03,0,0,0-2.364-1.426,3,3,0,0,0-3.641.712l-2.543,2.952a3,3,0,0,0,.908,4.63,15.6,15.6,0,0,1,1.851,1.118c.644.45,1.264.926,1.844,1.412.608.511,1.157.99,1.647,1.443s.884.828,1.2,1.14a3,3,0,0,0,2.121.879q.07,0,.141,0a3,3,0,0,0,2.171-1.085l2.52-3.048a3,3,0,0,0-.191-4.033" fill="#000333"/>
                  <text id="選んでください" transform="translate(73.164 58.069)" fill="#fff" font-size="24" font-family="MochiyPopPOne-Regular, Mochiy Pop P One"><tspan x="0" y="0" letter-spacing="0.059em">選んでくださ</tspan><tspan y="0">い</tspan></text>
                </g>
              </g>
            </g>
          </g>
        </g>
      </g>
    </g>
  </g>
</svg>
