<svg xmlns="http://www.w3.org/2000/svg" width="89.573" height="89.614" viewBox="0 0 89.573 89.614">
  <path id="合体_12" data-name="合体 12" d="M3158.142,104.573l-30.415-30.415-29.784,29.784a8.507,8.507,0,1,1-12.021-12.02l29.784-29.784-29.193-29.193a8.507,8.507,0,1,1,12.02-12.021l29.194,29.193,29.823-29.823a8.507,8.507,0,1,1,12.021,12.02l-29.824,29.824,30.414,30.414a8.682,8.682,0,0,1,.248,12.27,8.3,8.3,0,0,1-5.906,2.418A9,9,0,0,1,3158.142,104.573Z" transform="translate(-3083.257 -17.626)" fill="#fff"/>
</svg>
