<svg xmlns="http://www.w3.org/2000/svg" xmlns:xlink="http://www.w3.org/1999/xlink" width="240.287" height="30.628" viewBox="0 0 240.287 30.628">
  <defs>
    <clipPath id="clip-path">
      <rect id="長方形_342" data-name="長方形 342" width="240.287" height="30.628" transform="translate(0 0)" fill="none"/>
    </clipPath>
  </defs>
  <g id="グループ_316" data-name="グループ 316" transform="translate(0 0)">
    <g id="グループ_315" data-name="グループ 315" clip-path="url(#clip-path)">
      <g id="グループ_314" data-name="グループ 314" style="isolation: isolate">
        <g id="グループ_313" data-name="グループ 313">
          <g id="グループ_312" data-name="グループ 312" clip-path="url(#clip-path)">
            <path id="パス_256" data-name="パス 256" d="M23.39,18.189A3,3,0,0,0,18.9,16.332a13.711,13.711,0,0,1-1.872.926,16.336,16.336,0,0,1-2.454.788,10.4,10.4,0,0,1-2.431.289c-.232,0-.523-.017-.884-.049a6.852,6.852,0,0,1-1-.169l-.038-.009a7.757,7.757,0,0,1,.712-.54,18.21,18.21,0,0,1,2.275-1.3c.9-.435,1.822-.833,2.739-1.182.963-.366,1.877-.686,2.715-.95s1.533-.457,2.09-.579a3,3,0,0,0,2.3-3.546l-.159-.76a2.991,2.991,0,0,0,1.872-.831l1.247-1.2a3,3,0,0,0-.139-4.449,3.937,3.937,0,0,1-.524-.567,6.361,6.361,0,0,1-.5-.712A3,3,0,0,0,20.784.381,3.009,3.009,0,0,0,18.95.493l-1.537.6A3,3,0,0,0,15.6,4.659l.007.025q-.705.247-1.436.513c-.791.289-1.576.6-2.347.924-.439-.5-.889-1-1.351-1.493q-.786-.835-1.5-1.522-.749-.72-1.264-1.153a3,3,0,0,0-4.064.182L.87,4.943A3,3,0,0,0,1.418,9.6a8.875,8.875,0,0,1,1.171.916c.266.237.535.485.8.74A15.525,15.525,0,0,0,2,12.791a8.918,8.918,0,0,0-2,5.64,9.038,9.038,0,0,0,.974,4.286A8.536,8.536,0,0,0,3.5,25.654,11.207,11.207,0,0,0,6.565,27.23a16.1,16.1,0,0,0,2.986.693,19.964,19.964,0,0,0,2.546.18,25.692,25.692,0,0,0,3.368-.242,23.326,23.326,0,0,0,3.763-.825,16.452,16.452,0,0,0,3.743-1.676A3,3,0,0,0,24.326,22.1Z" fill="#000333"/>
            <path id="パス_257" data-name="パス 257" d="M239.114,5.939a7.735,7.735,0,0,0-4.494-3.493A15.747,15.747,0,0,0,231.3,1.7a28.071,28.071,0,0,0-3.2-.188,30.2,30.2,0,0,0-3.522.2,18.294,18.294,0,0,0-3.085.611,9,9,0,0,0-3.56,1.857,7.59,7.59,0,0,0-2.03,2.8,8.5,8.5,0,0,0-.314.94c-.051-.074-.1-.158-.154-.23-.586-.82-1.211-1.619-1.861-2.374s-1.378-1.535-2.193-2.349a3,3,0,0,0-4.021-.2l-2.012,1.647a3,3,0,0,0-2.249-2.976L199.469.5a3,3,0,0,0-3.524,1.762q-.515,1.251-1.067,2.673-.266.684-.527,1.395-.571.137-1.1.293c-.625.185-1.158.357-1.62.523L191.645,7a3,3,0,0,0-2.538-3.3c-.724-.109-1.572-.194-2.517-.255-.414-.027-.848-.048-1.3-.063a6.725,6.725,0,0,0-.4-.851,3,3,0,0,0-2.613-1.529l-3.751.1a3,3,0,0,0-2.9,2.665c-.281.028-.561.058-.841.088-1.5.166-2.982.377-4.413.627-1.285.226-2.492.495-3.624.791a2.993,2.993,0,0,0-2.467-2.244,37.652,37.652,0,0,0-5.282-.3h-.326A3,3,0,0,0,155.81.624a2.968,2.968,0,0,0-.4.027l-3.792.5a3,3,0,0,0-2.481,2.117c-.315.036-.628.072-.938.111-1.347.167-2.6.365-3.726.586A3,3,0,0,0,142.1,7.444l.6,3.336a3,3,0,0,0,.449,1.121l.081,2.663a2.96,2.96,0,0,0,.211.973l-3.2-1.77a3,3,0,0,0-4.259,1.564,7.343,7.343,0,0,1-.657,1.288,5.943,5.943,0,0,1-.924,1.131,4.114,4.114,0,0,1-1.034.729,1.578,1.578,0,0,1-.723.169,2.4,2.4,0,0,1-1.013-.21.924.924,0,0,1-.415-.4,2.555,2.555,0,0,1-.2-1.194,13.256,13.256,0,0,1,.3-2.483,26.907,26.907,0,0,1,1-3.538,35.613,35.613,0,0,1,1.727-4.072,3,3,0,0,0-1.692-4.16l-3.816-1.344A3,3,0,0,0,124.8,2.846c-.4.886-.758,1.749-1.1,2.6a2.991,2.991,0,0,0-2.283-2.009q-.645-.122-1.334-.184-.669-.06-1.383-.061a20.38,20.38,0,0,0-3.924.393,27.144,27.144,0,0,0-3.648.973c-.27.094-.533.19-.789.29-.024-.054-.05-.106-.077-.158A3,3,0,0,0,108.409,3.2l-3.671-1.008a3.041,3.041,0,0,0-.795-.107,3,3,0,0,0-2.835,2.02c-.059.172-.117.359-.174.543-.08-.11-.145-.215-.232-.327-.389-.5-.808-1.012-1.262-1.53s-.917-1-1.364-1.43a3,3,0,0,0-3.636-.4l-.725.442a2.985,2.985,0,0,0-1.651-.5H88.511a3,3,0,0,0-2.125.882L83.526.849A3,3,0,0,0,79.8,2.588a21.04,21.04,0,0,1-1.5,3.023A25.434,25.434,0,0,1,76.749,7.88a2.991,2.991,0,0,0-2.685-1.688h-.5V4.008a3,3,0,0,0-3-3H67.031a2.972,2.972,0,0,0-1,.171A2.984,2.984,0,0,0,64.56.793H61.031a2.992,2.992,0,0,0-1.809.606,3.016,3.016,0,0,0-.782-.1h-3.6a3,3,0,0,0-3,3v1.9h-.36a3,3,0,0,0-2.508,1.359A11.84,11.84,0,0,0,44.914,4.3a15.647,15.647,0,0,0-6.994-1.51,13.873,13.873,0,0,0-5.611,1.081A13.286,13.286,0,0,0,28.18,6.661a15.243,15.243,0,0,0-2.671,3.617A16.532,16.532,0,0,0,24.05,14.06a14.222,14.222,0,0,0-.458,3.389,12.31,12.31,0,0,0,.66,4.075,7.955,7.955,0,0,0,2.41,3.556,6.794,6.794,0,0,0,4.417,1.537,8.2,8.2,0,0,0,3.716-.922,11.864,11.864,0,0,0,2.174-1.424,3,3,0,0,0,1,1.138L41.5,27.785a3,3,0,0,0,3.332.013,16.363,16.363,0,0,0,3.6-3.222,14.922,14.922,0,0,0,2.384-4.012,12.266,12.266,0,0,0,.881-4.508c0-.173-.024-.333-.029-.5h.173V26.329a3,3,0,0,0,3,3h3.6a3,3,0,0,0,2.533-1.393H73.2a3,3,0,0,0,3-3V21.577A3,3,0,0,0,73.56,18.6V15.552h.5c.091,0,.178-.019.267-.027q.327.585.616,1.171c.177.361.313.654.4.882a3,3,0,0,0,1.883,1.769v6.934a3,3,0,0,0,3,3h3.624a3,3,0,0,0,3-3V18.806q.306,1.419.69,2.639a13.226,13.226,0,0,0,2.883,5.21,8.314,8.314,0,0,0,5.308,2.585c.034,0,.068.007.1.009.114.008.229.012.343.012a5.221,5.221,0,0,0,2.877-.885,5.767,5.767,0,0,0,1.674-1.758,3,3,0,0,0,2.536,1.415,2.965,2.965,0,0,0,.651-.072l3.792-.84a3.008,3.008,0,0,0,2.268-2.228,12.367,12.367,0,0,0,2.458,1.418,15.023,15.023,0,0,0,3.329,1,18,18,0,0,0,3.128.286q.714,0,1.383-.059.648-.06,1.195-.145a3,3,0,0,0,2.484-2.474,10.006,10.006,0,0,0,3.52,2.506,12.3,12.3,0,0,0,4.881.916,12.665,12.665,0,0,0,4.761-.854,13.1,13.1,0,0,0,3.59-2.152,15.692,15.692,0,0,0,2.327-2.48,7.482,7.482,0,0,0,3.5,4.553,8.138,8.138,0,0,0,4.2,1.078,12.7,12.7,0,0,0,4.042-.613,7.8,7.8,0,0,0,3.633-2.532l.009-.012q.286.363.577.768a2.994,2.994,0,0,0,1.99,1.225,2.88,2.88,0,0,0,.453.035,3,3,0,0,0,1.812-.609l2.976-2.256a3,3,0,0,0,.5-4.3,31.248,31.248,0,0,0-3.289-3.4c.118-.018.232-.037.345-.056a2.992,2.992,0,0,0,2.473-2.606c.073.049.138.108.216.152a2.992,2.992,0,0,0,2.168.3c-.016.071-.031.142-.044.212a8.433,8.433,0,0,0-.174,1.575,7.041,7.041,0,0,0,1.209,4.006,7.966,7.966,0,0,0,3,2.632c.065.034.13.066.2.1a3.038,3.038,0,0,0-.152.627,3,3,0,0,0,1.389,2.935l3.312,2.064a3,3,0,0,0,2.715.232,11.579,11.579,0,0,0,6.243-6.044,11.235,11.235,0,0,0,.956-4.607,11.67,11.67,0,0,0-.432-3.254,9.959,9.959,0,0,0-.62-1.6q.035-.276.06-.554c.542.046,1.028.107,1.454.183a3.058,3.058,0,0,0,.522.045,2.976,2.976,0,0,0,.589-.065l.409,1.667a3,3,0,0,0,1.481,1.922,2.835,2.835,0,0,0,.278.133c-.022.08-.043.16-.064.24-.443,1.665-.85,3.356-1.21,5.023a3,3,0,0,0,2.436,3.591l3.864.648a3.04,3.04,0,0,0,.5.042,3,3,0,0,0,2.221-.987l3.046,2.615a3,3,0,0,0,4.146-.228,22.457,22.457,0,0,0,4.088-5.889,15.5,15.5,0,0,0,1.333-4.681l.115,0a2.993,2.993,0,0,0,1.707-.534l3.121-2.16c.037-.026.066-.059.1-.087a9.367,9.367,0,0,0,1.534,2.111,3,3,0,0,0,3.641.513l1.36-.778a11.767,11.767,0,0,0-.258,2.59c0,.36.005.725.014,1.089.008.4.024.736.043,1a3,3,0,0,0,.156.767,5.382,5.382,0,0,0-.5,2.306,5.324,5.324,0,0,0,1.33,3.558,5.018,5.018,0,0,0,3.927,1.7,5.173,5.173,0,0,0,3.81-1.524,5.236,5.236,0,0,0,1.47-3.755,5.547,5.547,0,0,0-.521-2.4,3,3,0,0,0,.1-1.114c-.011-.109-.019-.218-.025-.336,0-.076-.007-.152-.008-.227.3-.052.6-.107.9-.171a8.2,8.2,0,0,0,5.32-3.4,10.194,10.194,0,0,0,1.51-5.675,9.656,9.656,0,0,0-1.125-4.693" fill="#000333"/>
            <text id="どの世代にしますか_" data-name="どの世代にしますか?" transform="translate(2.376 23.548)" fill="#fff" font-size="24" font-family="MochiyPopPOne-Regular, Mochiy Pop P One"><tspan x="0" y="0" letter-spacing="0.059em">どの世代にしますか</tspan><tspan y="0">?</tspan></text>
          </g>
        </g>
      </g>
    </g>
  </g>
</svg>
