<svg xmlns="http://www.w3.org/2000/svg" xmlns:xlink="http://www.w3.org/1999/xlink" width="220" height="66" viewBox="0 0 220 66">
  <defs>
    <clipPath id="clip-path">
      <rect id="長方形_443" data-name="長方形 443" width="220" height="66" fill="none"/>
    </clipPath>
  </defs>
  <g id="グループ_519" data-name="グループ 519" transform="translate(0 0)">
    <g id="グループ_518" data-name="グループ 518" transform="translate(0 0)" clip-path="url(#clip-path)">
      <path id="パス_2807" data-name="パス 2807" d="M11.929,64.014a6.01,6.01,0,0,1-4.813-2.392L1.183,53.728a5.889,5.889,0,0,1,1.683-8.592c2.884-1.744,5.663-3.6,8.258-5.51s5.022-3.861,7.195-5.778c1.865-1.645,3.529-3.225,4.959-4.709-1.447.333-2.953.713-4.5,1.135-2.441.669-4.845,1.361-7.141,2.06a6.051,6.051,0,0,1-4.8-.558,5.927,5.927,0,0,1-2.822-3.882L2.179,19.3a5.922,5.922,0,0,1,4.279-6.939c4.54-1.232,9-2.31,13.256-3.2A65.259,65.259,0,0,1,33.066,7.726a26.884,26.884,0,0,1,7.105.883,13.374,13.374,0,0,1,6.814,4.22,12.672,12.672,0,0,1,2.805,8.452,22.438,22.438,0,0,1-2.925,10.437,52.079,52.079,0,0,1-2.894,4.78q1.7,1.48,3.463,3.149c2.767,2.624,5.466,5.446,8.025,8.385a5.885,5.885,0,0,1-.848,8.535l-7.443,5.761a6.036,6.036,0,0,1-8.445-1.056,84.536,84.536,0,0,0-6-6.875q-1.285-1.329-2.551-2.573c-1.815,1.634-3.678,3.2-5.573,4.69a87.228,87.228,0,0,1-9.625,6.673,6.015,6.015,0,0,1-3.05.828" transform="translate(0 -0.095)" fill="#36ade8"/>
      <path id="パス_2808" data-name="パス 2808" d="M78.754,65.835a6.034,6.034,0,0,1-3.231-.936l-7.658-4.854a5.888,5.888,0,0,1-.931-9.253,71.276,71.276,0,0,0,5.448-5.8q.451-.542.891-1.083c-.624-.322-1.28-.645-1.964-.964q-.626-.295-1.268-.578A5.942,5.942,0,0,1,67.8,45.027a6.048,6.048,0,0,1-4.848.758L54.8,43.6a5.927,5.927,0,0,1-4.37-6.5,65.286,65.286,0,0,1,1.687-8.27,78.526,78.526,0,0,1,2.743-8.282,70.215,70.215,0,0,1,3.567-7.69,45.93,45.93,0,0,1,4.282-6.583,6.036,6.036,0,0,1,6.738-1.928l8.144,2.88a6,6,0,0,1,2.232,1.4,38.571,38.571,0,0,1,6.212-.522,28.446,28.446,0,0,1,8.7,1.276,16.9,16.9,0,0,1,7.572,4.776,13.7,13.7,0,0,1,3.365,9.315,28.563,28.563,0,0,1-1.838,9.349,66.713,66.713,0,0,1-4.672,10.2A91.569,91.569,0,0,1,92.1,53.779a93.226,93.226,0,0,1-9.133,10.345,6.024,6.024,0,0,1-4.215,1.711" transform="translate(-0.063 -0.049)" fill="#36ade8"/>
      <path id="パス_2809" data-name="パス 2809" d="M106.97,48.479a6.039,6.039,0,0,1-3.224-.931,5.923,5.923,0,0,1-2.656-3.853l-1.835-9.229a5.925,5.925,0,0,1,4.353-6.874,69.384,69.384,0,0,1,7.372-1.439c2.655-.385,5.558-.729,8.628-1.022s6.236-.514,9.438-.661,6.346-.219,9.365-.219c2.867,0,5.616.075,8.172.223,2.625.153,4.991.388,7.034.7a5.94,5.94,0,0,1,5.045,6.495l-1.025,9.388a5.916,5.916,0,0,1-2.362,4.105,6.039,6.039,0,0,1-3.6,1.185,5.973,5.973,0,0,1-1.05-.092,44.174,44.174,0,0,0-4.99-.531c-2.053-.118-4.306-.178-6.69-.178-2.677,0-5.511.07-8.423.207s-5.784.337-8.574.595c-2.769.255-5.379.556-7.762.9-2.285.328-4.235.686-5.793,1.064a6.045,6.045,0,0,1-1.428.171" transform="translate(-0.125 -0.296)" fill="#36ade8"/>
      <path id="パス_2810" data-name="パス 2810" d="M159.024,64.9a5.971,5.971,0,0,1-5.923-5.042c-.314-2.054-.55-4.386-.7-6.933-.151-2.476-.227-5.054-.227-7.661,0-2.973.075-6.063.222-9.185s.341-6.22.577-9.226c.24-3.038.53-5.965.862-8.7.329-2.715.665-5.17,1-7.3a5.973,5.973,0,0,1,5.916-5.017q.3,0,.6.029l9.168.907a6.015,6.015,0,0,1,4.256,2.419,5.881,5.881,0,0,1,1,4.753c-.365,1.636-.73,3.657-1.087,6.006q-.223,1.471-.416,3.051c1.894.68,3.786,1.43,5.663,2.244a95.686,95.686,0,0,1,9.845,4.954,69.1,69.1,0,0,1,8.506,5.762,5.883,5.883,0,0,1,1.242,7.853l-5.015,7.575a6.035,6.035,0,0,1-9,1.179,45.6,45.6,0,0,0-5.982-4.4c-2.049-1.278-4.172-2.476-6.323-3.57.042,1.746.114,3.465.215,5.141.169,2.835.442,5.569.812,8.129a5.883,5.883,0,0,1-1.348,4.657,6.02,6.02,0,0,1-4.41,2.106s-9.393.269-9.452.269" transform="translate(-0.191 -0.072)" fill="#36ade8"/>
      <path id="パス_2811" data-name="パス 2811" d="M208.485,66.076a10.71,10.71,0,0,1-7.847-3.282,10.836,10.836,0,0,1-3.107-7.714,10.693,10.693,0,0,1,1.645-5.8,5.851,5.851,0,0,1-.662-2.373c-.044-.72-.066-1.509-.066-2.413V41.959c0-2.965.047-6.23.138-9.7s.237-7.037.438-10.606c.2-3.547.45-6.933.744-10.058a5.968,5.968,0,0,1,5.962-5.38c.1,0,.2,0,.308.009l8.521.427a6.015,6.015,0,0,1,4.2,2.012,5.888,5.888,0,0,1,1.467,4.383q-.157,1.931-.342,4.875-.189,2.975-.347,6.516l-.322,7.272c-.107,2.407-.187,4.727-.24,6.9-.052,2.141-.079,4.058-.079,5.7V45.64a4.586,4.586,0,0,0,.016.462,5.87,5.87,0,0,1-.745,3.586,11.284,11.284,0,0,1,1.43,5.607,10.478,10.478,0,0,1-3.24,7.791,11.177,11.177,0,0,1-7.877,2.99" transform="translate(-0.248 -0.076)" fill="#36ade8"/>
      <path id="パス_2812" data-name="パス 2812" d="M11.929,60.014a6.01,6.01,0,0,1-4.813-2.392L1.183,49.728a5.889,5.889,0,0,1,1.683-8.592c2.884-1.744,5.663-3.6,8.258-5.51s5.022-3.861,7.195-5.778c1.865-1.645,3.529-3.225,4.959-4.709-1.447.333-2.953.713-4.5,1.135-2.441.669-4.845,1.361-7.141,2.06a6.051,6.051,0,0,1-4.8-.558,5.927,5.927,0,0,1-2.822-3.882L2.179,15.3A5.922,5.922,0,0,1,6.458,8.365c4.54-1.232,9-2.31,13.256-3.2A65.259,65.259,0,0,1,33.066,3.726a26.884,26.884,0,0,1,7.105.883,13.374,13.374,0,0,1,6.814,4.22,12.672,12.672,0,0,1,2.805,8.452,22.438,22.438,0,0,1-2.925,10.437,52.079,52.079,0,0,1-2.894,4.78q1.7,1.48,3.463,3.149c2.767,2.624,5.466,5.446,8.025,8.385a5.885,5.885,0,0,1-.848,8.535l-7.443,5.761a6.036,6.036,0,0,1-8.445-1.056,84.536,84.536,0,0,0-6-6.875q-1.285-1.329-2.551-2.573c-1.815,1.634-3.678,3.2-5.573,4.69a87.228,87.228,0,0,1-9.625,6.673,6.015,6.015,0,0,1-3.05.828" transform="translate(0 -0.046)" fill="#88d1fd"/>
      <path id="パス_2813" data-name="パス 2813" d="M78.754,61.835a6.034,6.034,0,0,1-3.231-.936l-7.658-4.854a5.888,5.888,0,0,1-.931-9.253,71.276,71.276,0,0,0,5.448-5.8q.451-.542.891-1.083c-.624-.322-1.28-.645-1.964-.964q-.626-.295-1.268-.578A5.942,5.942,0,0,1,67.8,41.027a6.048,6.048,0,0,1-4.848.758L54.8,39.6a5.927,5.927,0,0,1-4.37-6.5,65.286,65.286,0,0,1,1.687-8.27,78.526,78.526,0,0,1,2.743-8.282,70.215,70.215,0,0,1,3.567-7.69,45.93,45.93,0,0,1,4.282-6.583A6.036,6.036,0,0,1,69.449.347l8.144,2.88a6,6,0,0,1,2.232,1.4,38.571,38.571,0,0,1,6.212-.522,28.446,28.446,0,0,1,8.7,1.276,16.9,16.9,0,0,1,7.572,4.776,13.7,13.7,0,0,1,3.365,9.315,28.563,28.563,0,0,1-1.838,9.349,66.713,66.713,0,0,1-4.672,10.2A91.569,91.569,0,0,1,92.1,49.779a93.227,93.227,0,0,1-9.133,10.345,6.024,6.024,0,0,1-4.215,1.711" transform="translate(-0.063 0)" fill="#88d1fd"/>
      <path id="パス_2814" data-name="パス 2814" d="M106.97,44.479a6.039,6.039,0,0,1-3.224-.931,5.923,5.923,0,0,1-2.656-3.853l-1.835-9.229a5.925,5.925,0,0,1,4.353-6.874,69.385,69.385,0,0,1,7.372-1.439c2.655-.385,5.558-.729,8.628-1.022s6.236-.514,9.438-.661,6.346-.219,9.365-.219c2.867,0,5.616.075,8.172.223,2.625.153,4.991.388,7.034.7a5.94,5.94,0,0,1,5.045,6.495l-1.025,9.388a5.916,5.916,0,0,1-2.362,4.105,6.039,6.039,0,0,1-3.6,1.185,5.973,5.973,0,0,1-1.05-.092,44.175,44.175,0,0,0-4.99-.531c-2.053-.118-4.306-.178-6.69-.178-2.677,0-5.511.07-8.423.207s-5.784.337-8.574.595c-2.769.255-5.379.556-7.762.9-2.285.328-4.235.686-5.793,1.064a6.045,6.045,0,0,1-1.428.171" transform="translate(-0.125 -0.247)" fill="#88d1fd"/>
      <path id="パス_2815" data-name="パス 2815" d="M159.024,60.9a5.971,5.971,0,0,1-5.923-5.042c-.314-2.054-.55-4.386-.7-6.933-.151-2.476-.227-5.054-.227-7.661,0-2.973.075-6.063.222-9.185s.341-6.22.577-9.226c.24-3.038.53-5.965.862-8.7.329-2.715.665-5.17,1-7.3a5.973,5.973,0,0,1,5.916-5.017q.3,0,.6.029l9.168.907a6.015,6.015,0,0,1,4.256,2.419,5.881,5.881,0,0,1,1,4.753c-.365,1.636-.73,3.657-1.087,6.006q-.223,1.471-.416,3.051c1.894.68,3.786,1.43,5.663,2.244a95.686,95.686,0,0,1,9.845,4.954,69.1,69.1,0,0,1,8.506,5.762,5.883,5.883,0,0,1,1.242,7.853l-5.015,7.575a6.035,6.035,0,0,1-9,1.179,45.6,45.6,0,0,0-5.982-4.4c-2.049-1.278-4.172-2.476-6.323-3.57.042,1.746.114,3.465.215,5.141.169,2.835.442,5.569.812,8.129a5.883,5.883,0,0,1-1.348,4.657,6.02,6.02,0,0,1-4.41,2.106s-9.393.269-9.452.269" transform="translate(-0.191 -0.023)" fill="#88d1fd"/>
      <path id="パス_2816" data-name="パス 2816" d="M208.485,62.076a10.71,10.71,0,0,1-7.847-3.282,10.836,10.836,0,0,1-3.107-7.714,10.693,10.693,0,0,1,1.645-5.8,5.851,5.851,0,0,1-.662-2.373c-.044-.72-.066-1.509-.066-2.413V37.959c0-2.965.047-6.23.138-9.7s.237-7.037.438-10.606c.2-3.547.45-6.933.744-10.058a5.967,5.967,0,0,1,5.962-5.379c.1,0,.2,0,.308.008l8.521.428a6.014,6.014,0,0,1,4.2,2.011,5.888,5.888,0,0,1,1.467,4.383q-.157,1.931-.342,4.875-.189,2.975-.347,6.516l-.322,7.272c-.107,2.407-.187,4.727-.24,6.9-.052,2.141-.079,4.058-.079,5.7V41.64a4.586,4.586,0,0,0,.016.462,5.87,5.87,0,0,1-.745,3.586,11.284,11.284,0,0,1,1.43,5.607,10.478,10.478,0,0,1-3.24,7.791,11.177,11.177,0,0,1-7.877,2.99" transform="translate(-0.248 -0.027)" fill="#88d1fd"/>
      <path id="パス_2817" data-name="パス 2817" d="M11.934,56.16,6,48.265q4.581-2.772,8.709-5.814t7.605-6.108q3.477-3.067,6.04-5.814a37.13,37.13,0,0,0,3.964-4.907,7.047,7.047,0,0,0,1.4-3.441,1.566,1.566,0,0,0-.944-1.52,6.176,6.176,0,0,0-2.616-.453,29.95,29.95,0,0,0-5.745.693q-3.423.693-7.227,1.734T9.884,24.741L8.049,16.153q6.688-1.814,12.918-3.121a58.889,58.889,0,0,1,12.107-1.307,20.806,20.806,0,0,1,5.5.667,7.471,7.471,0,0,1,3.829,2.32,6.977,6.977,0,0,1,1.4,4.641,16.634,16.634,0,0,1-2.238,7.681,51.57,51.57,0,0,1-5.8,8.535A86.112,86.112,0,0,1,43.294,42q3.964,3.761,7.631,7.975l-7.443,5.761a90.255,90.255,0,0,0-6.418-7.361q-3.558-3.681-6.9-6.668a103.264,103.264,0,0,1-9.277,8.241,81.2,81.2,0,0,1-8.952,6.214" transform="translate(-0.008 -0.143)" fill="#36ade8"/>
      <path id="パス_2818" data-name="パス 2818" d="M64.526,38.138l-8.144-2.187a59.034,59.034,0,0,1,1.537-7.521,72.133,72.133,0,0,1,2.535-7.655,64.053,64.053,0,0,1,3.263-7.041A39.879,39.879,0,0,1,67.438,8l8.144,2.88a39.3,39.3,0,0,0-2.8,3.947A36.4,36.4,0,0,1,79.438,12.8a33.281,33.281,0,0,1,6.607-.694,22.337,22.337,0,0,1,6.849.987,10.94,10.94,0,0,1,4.935,3.067,7.778,7.778,0,0,1,1.861,5.388,23.134,23.134,0,0,1-1.51,7.415,60.412,60.412,0,0,1-4.261,9.282A85.02,85.02,0,0,1,87.312,48.3a86.721,86.721,0,0,1-8.548,9.682l-7.658-4.854a76.674,76.674,0,0,0,5.906-6.293q2.67-3.2,4.881-6.294a18.871,18.871,0,0,0-3.371-2.455q-2.076-1.227-4.638-2.427t-5.258-2.214l4.207-6.773a17.6,17.6,0,0,1,3.182.879q1.834.667,3.829,1.6t3.748,1.974a18.629,18.629,0,0,1,2.886,2.055,53.867,53.867,0,0,0,2.938-6.054,11.84,11.84,0,0,0,1-3.495,2.225,2.225,0,0,0-1.456-2.186,9.61,9.61,0,0,0-3.829-.641,29.73,29.73,0,0,0-5.42.561,58.357,58.357,0,0,0-6.093,1.493q-3.1.933-5.8,2a69.743,69.743,0,0,0-3.29,13.281" transform="translate(-0.071 -0.098)" fill="#36ade8"/>
      <path id="パス_2819" data-name="パス 2819" d="M106.978,40.625,105.143,31.4a62.612,62.612,0,0,1,6.716-1.306q3.855-.56,8.332-.987t9.142-.641q4.664-.212,9.087-.212,4.153,0,7.821.212t6.472.641l-1.025,9.388A49.948,49.948,0,0,0,146,37.878q-3.263-.187-7.038-.188-4.205,0-8.709.214t-8.846.613q-4.342.4-8.063.933t-6.363,1.174" transform="translate(-0.132 -0.345)" fill="#36ade8"/>
      <path id="パス_2820" data-name="パス 2820" d="M159.034,57.044q-.431-2.827-.646-6.4t-.216-7.309q0-4.321.216-8.908t.565-9.041q.351-4.454.837-8.455t.971-7.094l9.167.907q-.593,2.669-1.16,6.4t-.943,8.055a85.415,85.415,0,0,1,9.707,3.548,88.89,88.89,0,0,1,9.223,4.64,62.946,62.946,0,0,1,7.765,5.254l-5.015,7.575a51.489,51.489,0,0,0-6.769-4.987,88.382,88.382,0,0,0-7.82-4.347q-4.018-1.972-7.63-3.36-.111,2.719-.109,5.387,0,4.749.271,9.255t.862,8.615Z" transform="translate(-0.199 -0.12)" fill="#36ade8"/>
      <path id="パス_2821" data-name="パス 2821" d="M208.493,58.223a4.738,4.738,0,0,1-3.532-1.468,4.961,4.961,0,0,1-1.43-3.6,4.777,4.777,0,0,1,1.483-3.573,5.023,5.023,0,0,1,3.64-1.44,4.693,4.693,0,0,1,3.533,1.493,5.189,5.189,0,0,1,1.43,3.735,4.633,4.633,0,0,1-1.4,3.52,5.181,5.181,0,0,1-3.721,1.335m-2.751-48.009,8.521.428q-.16,1.974-.35,4.986t-.352,6.614q-.16,3.6-.323,7.281T213,36.538q-.082,3.334-.081,5.842v1.333a10.2,10.2,0,0,0,.053,1.12L204.5,44.62q-.055-.905-.055-2.054V40.033q0-4.376.136-9.548t.43-10.429q.3-5.253.728-9.842" transform="translate(-0.256 -0.125)" fill="#36ade8"/>
      <path id="パス_2822" data-name="パス 2822" d="M11.934,54.16,6,46.265q4.581-2.772,8.709-5.814t7.605-6.108q3.477-3.067,6.04-5.814a37.13,37.13,0,0,0,3.964-4.907,7.047,7.047,0,0,0,1.4-3.441,1.566,1.566,0,0,0-.944-1.52,6.176,6.176,0,0,0-2.616-.453,29.95,29.95,0,0,0-5.745.693q-3.423.693-7.227,1.734T9.884,22.741L8.049,14.153q6.688-1.814,12.918-3.121A58.889,58.889,0,0,1,33.074,9.726a20.806,20.806,0,0,1,5.5.667,7.471,7.471,0,0,1,3.829,2.32,6.977,6.977,0,0,1,1.4,4.641,16.634,16.634,0,0,1-2.238,7.681,51.57,51.57,0,0,1-5.8,8.535A86.111,86.111,0,0,1,43.294,40q3.964,3.761,7.631,7.975l-7.443,5.761a90.253,90.253,0,0,0-6.418-7.361q-3.558-3.681-6.9-6.668a103.265,103.265,0,0,1-9.277,8.241,81.2,81.2,0,0,1-8.952,6.214" transform="translate(-0.008 -0.119)" fill="#fff"/>
      <path id="パス_2823" data-name="パス 2823" d="M64.526,36.138l-8.144-2.187a59.035,59.035,0,0,1,1.537-7.521,72.133,72.133,0,0,1,2.535-7.655,64.053,64.053,0,0,1,3.263-7.041A39.88,39.88,0,0,1,67.438,6l8.144,2.88a39.3,39.3,0,0,0-2.8,3.947A36.4,36.4,0,0,1,79.438,10.8a33.281,33.281,0,0,1,6.607-.694,22.337,22.337,0,0,1,6.849.987,10.94,10.94,0,0,1,4.935,3.067,7.778,7.778,0,0,1,1.861,5.388,23.134,23.134,0,0,1-1.51,7.415,60.413,60.413,0,0,1-4.261,9.282A85.02,85.02,0,0,1,87.312,46.3a86.721,86.721,0,0,1-8.548,9.682l-7.658-4.854a76.674,76.674,0,0,0,5.906-6.293q2.67-3.2,4.881-6.294a18.871,18.871,0,0,0-3.371-2.455q-2.076-1.227-4.638-2.427t-5.258-2.214l4.207-6.773a17.6,17.6,0,0,1,3.182.879q1.834.667,3.829,1.6t3.748,1.974a18.628,18.628,0,0,1,2.886,2.055,53.867,53.867,0,0,0,2.938-6.054,11.84,11.84,0,0,0,1-3.495,2.225,2.225,0,0,0-1.456-2.186,9.61,9.61,0,0,0-3.829-.641,29.73,29.73,0,0,0-5.42.561,58.357,58.357,0,0,0-6.093,1.493q-3.1.933-5.8,2a69.743,69.743,0,0,0-3.29,13.281" transform="translate(-0.071 -0.074)" fill="#fff"/>
      <path id="パス_2824" data-name="パス 2824" d="M106.978,38.625,105.143,29.4a62.612,62.612,0,0,1,6.716-1.306q3.855-.56,8.332-.987t9.142-.641q4.664-.212,9.087-.212,4.153,0,7.821.212t6.472.641l-1.025,9.388A49.949,49.949,0,0,0,146,35.878q-3.263-.187-7.038-.188-4.205,0-8.709.214t-8.846.613q-4.342.4-8.063.933t-6.363,1.174" transform="translate(-0.132 -0.32)" fill="#fff"/>
      <path id="パス_2825" data-name="パス 2825" d="M159.034,55.044q-.431-2.827-.646-6.4t-.216-7.309q0-4.321.216-8.908t.565-9.041q.351-4.454.837-8.455t.971-7.095l9.167.907q-.593,2.669-1.16,6.4t-.943,8.055a85.415,85.415,0,0,1,9.707,3.548,88.891,88.891,0,0,1,9.223,4.64,62.946,62.946,0,0,1,7.765,5.254l-5.015,7.575a51.489,51.489,0,0,0-6.769-4.987,88.382,88.382,0,0,0-7.82-4.347q-4.018-1.972-7.63-3.36-.111,2.719-.109,5.387,0,4.749.271,9.255t.862,8.615Z" transform="translate(-0.199 -0.096)" fill="#fff"/>
      <path id="パス_2826" data-name="パス 2826" d="M208.493,56.223a4.738,4.738,0,0,1-3.532-1.468,4.961,4.961,0,0,1-1.43-3.6,4.777,4.777,0,0,1,1.483-3.573,5.023,5.023,0,0,1,3.64-1.44,4.693,4.693,0,0,1,3.533,1.493,5.189,5.189,0,0,1,1.43,3.735,4.633,4.633,0,0,1-1.4,3.52,5.181,5.181,0,0,1-3.721,1.335M205.742,8.214l8.521.428q-.16,1.974-.35,4.986t-.352,6.614q-.16,3.6-.323,7.281T213,34.538q-.082,3.334-.081,5.842v1.333a10.2,10.2,0,0,0,.053,1.12L204.5,42.62q-.055-.905-.055-2.054V38.033q0-4.376.136-9.548t.43-10.429q.3-5.253.728-9.842" transform="translate(-0.256 -0.101)" fill="#fff"/>
    </g>
  </g>
</svg>
