<svg xmlns="http://www.w3.org/2000/svg" xmlns:xlink="http://www.w3.org/1999/xlink" width="30" height="21" viewBox="0 0 30 21">
  <defs>
    <clipPath id="clip-path">
      <rect id="長方形_532" data-name="長方形 532" width="30" height="21" transform="translate(227 76)" fill="#fff" stroke="#707070" stroke-width="1"/>
    </clipPath>
    <clipPath id="clip-path-2">
      <rect id="長方形_531" data-name="長方形 531" width="23.978" height="17.296" fill="none"/>
    </clipPath>
    <clipPath id="clip-path-3">
      <rect id="長方形_530" data-name="長方形 530" width="23.978" height="17.296" transform="translate(0 0)" fill="none"/>
    </clipPath>
    <clipPath id="clip-path-4">
      <rect id="長方形_527" data-name="長方形 527" width="18.862" height="17.255" transform="translate(2.832 0.003)" fill="none"/>
    </clipPath>
    <clipPath id="clip-path-5">
      <rect id="長方形_528" data-name="長方形 528" width="11.866" height="16.35" transform="translate(1.45 0.94)" fill="none"/>
    </clipPath>
    <clipPath id="clip-path-6">
      <rect id="長方形_529" data-name="長方形 529" width="10.563" height="14.954" transform="translate(12.442 0.446)" fill="none"/>
    </clipPath>
  </defs>
  <g id="マスクグループ_306" data-name="マスクグループ 306" transform="translate(-227 -76)" clip-path="url(#clip-path)">
    <g id="グループ_678" data-name="グループ 678" transform="translate(230.011 78.352)">
      <g id="グループ_677" data-name="グループ 677" transform="translate(0 -1)" clip-path="url(#clip-path-2)">
        <g id="グループ_676" data-name="グループ 676">
          <g id="グループ_675" data-name="グループ 675" clip-path="url(#clip-path-3)">
            <path id="パス_3823" data-name="パス 3823" d="M.38,4.324C-.77,5.364.981,16.8,1.8,17.241c1.112.593,19.393-3.763,21.983-4.843.657-.273-.527-10.92-1.129-12.07C21.875-1.165,2.015,2.844.38,4.324" fill="#39f"/>
            <path id="パス_3824" data-name="パス 3824" d="M2.065,4.837l.077,1.274L.884,6.432a44.069,44.069,0,0,0,1.028,8.684,9.836,9.836,0,0,0,1.483-.307l.194,1.449a188.028,188.028,0,0,0,18.675-4.364,4.132,4.132,0,0,1-.2-1.039l1.276-.4s-.565-6.185-.974-8.383c-.767.1-1.279.2-1.279.2L20.73.848S7.128,2.587,2.065,4.837" fill="#69c6fd"/>
            <path id="パス_3825" data-name="パス 3825" d="M11.147,4.676A4.114,4.114,0,0,0,8.125,9.642,4.113,4.113,0,0,0,13.239,12.4a4.112,4.112,0,0,0,3.022-4.965,4.113,4.113,0,0,0-5.114-2.763m1.778,6.569a2.879,2.879,0,0,1-3.58-1.934A3.337,3.337,0,0,1,11.435,5.4a3.184,3.184,0,0,1,3.606,2.367,2.88,2.88,0,0,1-2.116,3.476" fill="#39f"/>
            <path id="パス_3826" data-name="パス 3826" d="M12.746,8.6c-.171.361,1.669,3.407,2.265,3.905.275.231,1.629-.742,1.518-1.013a20.427,20.427,0,0,0-2.45-3.511,1.216,1.216,0,0,0-1.333.619" fill="#39f"/>
            <g id="グループ_668" data-name="グループ 668" opacity="0.35">
              <g id="グループ_667" data-name="グループ 667">
                <g id="グループ_666" data-name="グループ 666" clip-path="url(#clip-path-4)">
                  <path id="パス_3827" data-name="パス 3827" d="M21.694.023A39.909,39.909,0,0,0,14.122.8L2.832,17.258c1.578-.149,4.7-.76,8.076-1.512Z" fill="#fff"/>
                </g>
              </g>
            </g>
            <g id="グループ_671" data-name="グループ 671" opacity="0.35">
              <g id="グループ_670" data-name="グループ 670">
                <g id="グループ_669" data-name="グループ 669" clip-path="url(#clip-path-5)">
                  <path id="パス_3828" data-name="パス 3828" d="M12.01,1.178,1.449,16.573a1.4,1.4,0,0,0,.353.667.8.8,0,0,0,.3.05L13.315.94c-.432.076-.868.156-1.3.238" fill="#fff"/>
                </g>
              </g>
            </g>
            <g id="グループ_674" data-name="グループ 674" opacity="0.35">
              <g id="グループ_673" data-name="グループ 673">
                <g id="グループ_672" data-name="グループ 672" clip-path="url(#clip-path-6)">
                  <path id="パス_3829" data-name="パス 3829" d="M13.8,15.084,23,1.666a7.729,7.729,0,0,0-.3-1.22L12.442,15.4q.68-.156,1.358-.316" fill="#fff"/>
                </g>
              </g>
            </g>
          </g>
        </g>
        <text id="T" transform="translate(2.732 12.564) rotate(-11.291)" fill="#0062a5" font-size="5.672" font-family="Helvetica"><tspan x="0" y="0">T</tspan></text>
        <text id="I" transform="translate(6.564 11.799) rotate(-11.291)" fill="#0062a5" font-size="5.672" font-family="Helvetica"><tspan x="0" y="0">I</tspan></text>
        <text id="C" transform="translate(8.389 11.435) rotate(-11.291)" fill="#0062a5" font-size="5.672" font-family="Helvetica"><tspan x="0" y="0">C</tspan></text>
        <text id="K" transform="translate(12.065 10.7) rotate(-11.291)" fill="#0062a5" font-size="5.672" font-family="Helvetica"><tspan x="0" y="0">K</tspan></text>
        <text id="E" transform="translate(15.709 9.973) rotate(-11.291)" fill="#0062a5" font-size="5.672" font-family="Helvetica"><tspan x="0" y="0">E</tspan></text>
        <text id="T-2" data-name="T" transform="translate(18.718 9.372) rotate(-11.291)" fill="#0062a5" font-size="5.672" font-family="Helvetica"><tspan x="0" y="0">T</tspan></text>
      </g>
    </g>
  </g>
</svg>
