<svg xmlns="http://www.w3.org/2000/svg" xmlns:xlink="http://www.w3.org/1999/xlink" width="182" height="54" viewBox="0 0 182 54">
  <defs>
    <clipPath id="clip-path">
      <rect id="長方形_209" data-name="長方形 209" width="182" height="54" fill="none"/>
    </clipPath>
    <clipPath id="clip-path-3">
      <rect id="長方形_205" data-name="長方形 205" width="13.481" height="13.384" transform="translate(6.56 6.27)" fill="none"/>
    </clipPath>
    <clipPath id="clip-path-4">
      <rect id="長方形_206" data-name="長方形 206" width="3.494" height="3.494" transform="translate(6.812 21.498)" fill="none"/>
    </clipPath>
    <clipPath id="clip-path-5">
      <rect id="長方形_207" data-name="長方形 207" width="13.481" height="13.383" transform="translate(162.667 34.189)" fill="none"/>
    </clipPath>
  </defs>
  <g id="グループ_236" data-name="グループ 236" transform="translate(-116 -61)">
    <g id="グループ_177" data-name="グループ 177" transform="translate(116 61)">
      <g id="グループ_176" data-name="グループ 176" clip-path="url(#clip-path)">
        <g id="グループ_175" data-name="グループ 175">
          <g id="グループ_174" data-name="グループ 174" clip-path="url(#clip-path)">
            <rect id="長方形_200" data-name="長方形 200" width="182" height="54" rx="7" fill="#28b0b0"/>
            <path id="パス_24" data-name="パス 24" d="M7,2H175a4,4,0,0,1,4,4V46a4,4,0,0,1-4,4H7a4,4,0,0,1-4-4V6A4,4,0,0,1,7,2" fill="#aee1e1"/>
            <rect id="長方形_201" data-name="長方形 201" width="174" height="46" rx="3" transform="translate(4 4)" fill="#5ec4c4"/>
            <g id="グループ_167" data-name="グループ 167" opacity="0.33">
              <g id="グループ_166" data-name="グループ 166">
                <g id="グループ_165" data-name="グループ 165" clip-path="url(#clip-path-3)">
                  <path id="パス_25" data-name="パス 25" d="M18.041,8.27,13.115,8.3c-.21,0-.423,0-.638.011A3.77,3.77,0,0,0,8.56,11.757v5.9" fill="none" stroke="#fff" stroke-linecap="round" stroke-linejoin="round" stroke-width="4"/>
                </g>
              </g>
            </g>
            <g id="グループ_170" data-name="グループ 170" opacity="0.33">
              <g id="グループ_169" data-name="グループ 169">
                <g id="グループ_168" data-name="グループ 168" clip-path="url(#clip-path-4)">
                  <path id="パス_26" data-name="パス 26" d="M10.307,23.245A1.747,1.747,0,1,1,8.56,21.5a1.747,1.747,0,0,1,1.747,1.747" fill="#fff"/>
                </g>
              </g>
            </g>
            <g id="グループ_173" data-name="グループ 173" opacity="0.33">
              <g id="グループ_172" data-name="グループ 172">
                <g id="グループ_171" data-name="グループ 171" clip-path="url(#clip-path-5)">
                  <path id="パス_27" data-name="パス 27" d="M164.667,45.572l4.926-.029c.21,0,.423,0,.638-.011a3.77,3.77,0,0,0,3.917-3.447v-5.9" fill="none" stroke="#fff" stroke-linecap="round" stroke-linejoin="round" stroke-width="4"/>
                </g>
              </g>
            </g>
          </g>
        </g>
      </g>
    </g>
    <path id="合体_13" data-name="合体 13" d="M20.807,24.158l-8.451-8.451L4.081,23.983a2.412,2.412,0,0,1-3.409.069,2.412,2.412,0,0,1,.069-3.409l8.275-8.276L.905,4.256A2.412,2.412,0,0,1,.836.847,2.412,2.412,0,0,1,4.245.916l8.112,8.111L20.643.741A2.412,2.412,0,0,1,24.052.672a2.412,2.412,0,0,1-.069,3.409L15.7,12.368l8.451,8.451a2.412,2.412,0,0,1,.069,3.409,2.306,2.306,0,0,1-1.641.672A2.5,2.5,0,0,1,20.807,24.158Z" transform="translate(167.3 75.55)" fill="#fff"/>
    <path id="パス_43" data-name="パス 43" d="M13.721,3.742A9.979,9.979,0,1,0,23.7,13.721a9.99,9.99,0,0,0-9.979-9.979m0-3.742A13.721,13.721,0,1,1,0,13.721,13.721,13.721,0,0,1,13.721,0Z" transform="translate(133.834 74.279)" fill="#fff"/>
    <text id="クイズ" transform="translate(240 99)" fill="#fff" font-size="30" font-family="MochiyPopPOne-Regular, Mochiy Pop P One" letter-spacing="0.07em"><tspan x="-42" y="0">クイズ</tspan></text>
  </g>
</svg>
