<svg xmlns="http://www.w3.org/2000/svg" xmlns:xlink="http://www.w3.org/1999/xlink" width="70" height="60" viewBox="0 0 70 60">
  <defs>
    <clipPath id="clip-path">
      <rect id="長方形_482" data-name="長方形 482" width="70" height="60" transform="translate(1192 2605)" fill="#fff" stroke="#707070" stroke-width="1"/>
    </clipPath>
  </defs>
  <g id="マスクグループ_295" data-name="マスクグループ 295" transform="translate(-1192 -2605)" clip-path="url(#clip-path)">
    <g id="グループ_597" data-name="グループ 597" transform="translate(1135.905 2335)">
      <path id="パス_3308" data-name="パス 3308" d="M33.788,45.809H12.021A12.021,12.021,0,0,1,0,33.788V12.021A12.021,12.021,0,0,1,12.021,0H33.788A12.021,12.021,0,0,1,45.809,12.021V33.788A12.021,12.021,0,0,1,33.788,45.809" transform="translate(68.095 277.285)" fill="#b5b3f2"/>
      <path id="パス_3309" data-name="パス 3309" d="M17.944,8.972A8.972,8.972,0,1,1,8.972,0a8.972,8.972,0,0,1,8.972,8.972" transform="translate(82.028 293.378)" fill="#b5b3f2"/>
      <path id="パス_3310" data-name="パス 3310" d="M11.235,2.263a8.972,8.972,0,1,1-8.972,8.972,8.972,8.972,0,0,1,8.972-8.972m0-2.263A11.235,11.235,0,1,0,22.469,11.235,11.247,11.247,0,0,0,11.235,0" transform="translate(79.765 291.115)" fill="#9078c8"/>
      <path id="パス_3311" data-name="パス 3311" d="M1.166,4.719h0A1.166,1.166,0,0,1,0,3.553V1.166a1.166,1.166,0,0,1,2.333,0V3.553A1.166,1.166,0,0,1,1.166,4.719" transform="translate(73.756 282.741)" fill="#4d4d4d"/>
      <path id="パス_3312" data-name="パス 3312" d="M2.031,7.417h0A2.031,2.031,0,0,1,0,5.386V2.031a2.031,2.031,0,0,1,4.062,0V5.386A2.031,2.031,0,0,1,2.031,7.417" transform="translate(77.377 282.111)" fill="#f2e8b3"/>
      <path id="パス_3313" data-name="パス 3313" d="M3.279,1.64A1.64,1.64,0,1,1,1.64,0a1.64,1.64,0,0,1,1.64,1.64" transform="translate(105.176 282.446)" fill="#333"/>
      <path id="パス_3314" data-name="パス 3314" d="M3.279,1.64A1.64,1.64,0,1,1,1.64,0a1.64,1.64,0,0,1,1.64,1.64" transform="translate(105.176 286.248)" fill="#333"/>
      <path id="パス_3315" data-name="パス 3315" d="M7.927,3.964A3.964,3.964,0,1,1,3.964,0,3.964,3.964,0,0,1,7.927,3.964" transform="translate(87.036 298.386)" fill="#1a1a1a"/>
      <path id="パス_3316" data-name="パス 3316" d="M2.907,2.642H.493A.493.493,0,0,1,0,2.149V.493A.493.493,0,0,1,.493,0H2.907A.493.493,0,0,1,3.4.493V2.149a.493.493,0,0,1-.493.493" transform="translate(82.959 300.941)" fill="#d6d5f8"/>
      <path id="パス_3317" data-name="パス 3317" d="M3.152,1.576A1.576,1.576,0,1,1,1.576,0,1.576,1.576,0,0,1,3.152,1.576" transform="translate(88.036 299.365)" fill="#f7f7fe"/>
    </g>
  </g>
</svg>
