<svg xmlns="http://www.w3.org/2000/svg" xmlns:xlink="http://www.w3.org/1999/xlink" width="40" height="34" viewBox="0 0 40 34">
  <defs>
    <clipPath id="clip-path">
      <rect id="長方形_509" data-name="長方形 509" width="40" height="34" transform="translate(297 291)" fill="#fff" stroke="#707070" stroke-width="1"/>
    </clipPath>
    <clipPath id="clip-path-2">
      <rect id="長方形_508" data-name="長方形 508" width="22.938" height="31.949" fill="none"/>
    </clipPath>
  </defs>
  <g id="マスクグループ_301" data-name="マスクグループ 301" transform="translate(-297 -291)" clip-path="url(#clip-path)">
    <g id="グループ_629" data-name="グループ 629" transform="translate(306.225 292.025)">
      <rect id="長方形_507" data-name="長方形 507" width="20.702" height="29.605" transform="translate(0 2.344)" fill="#041a56"/>
      <path id="パス_3455" data-name="パス 3455" d="M2.235,0,0,2.344H20.7L22.938,0Z" transform="translate(0 0)" fill="#203369"/>
      <path id="パス_3456" data-name="パス 3456" d="M158.543,0l-2.235,2.344V31.95l2.235-1.629Z" transform="translate(-135.605 0)" fill="#01091d"/>
      <g id="グループ_628" data-name="グループ 628" transform="translate(0)">
        <g id="グループ_627" data-name="グループ 627" clip-path="url(#clip-path-2)">
          <path id="パス_3457" data-name="パス 3457" d="M23.285,137.776a.847.847,0,0,1-.453-1.564l10.507-6.621a.847.847,0,1,1,.9,1.434l-10.507,6.621a.843.843,0,0,1-.451.131" transform="translate(-19.465 -112.313)" fill="#f2f2f2"/>
          <path id="パス_3458" data-name="パス 3458" d="M32.058,127.725a.847.847,0,0,1,.453,1.564L22,135.91a.847.847,0,0,1-.9-1.434l10.507-6.621a.843.843,0,0,1,.451-.13m0-.265h0a1.11,1.11,0,0,0-.592.171l-10.507,6.621a1.112,1.112,0,1,0,1.186,1.882l10.507-6.621a1.112,1.112,0,0,0-.594-2.053" transform="translate(-17.733 -110.578)" fill="#d19411"/>
          <path id="パス_3459" data-name="パス 3459" d="M34.178,147.65a.847.847,0,0,1-.453-1.564l10.507-6.621a.847.847,0,1,1,.9,1.434l-10.507,6.621a.844.844,0,0,1-.451.131" transform="translate(-28.915 -120.879)" fill="#f2f2f2"/>
          <path id="パス_3460" data-name="パス 3460" d="M42.951,137.6a.847.847,0,0,1,.453,1.564L32.9,145.784a.847.847,0,0,1-.9-1.434L42.5,137.729a.843.843,0,0,1,.451-.13m0-.265h0a1.11,1.11,0,0,0-.592.171l-10.507,6.621a1.112,1.112,0,1,0,1.186,1.882l10.507-6.621a1.112,1.112,0,0,0-.594-2.053" transform="translate(-27.183 -119.145)" fill="#d19411"/>
          <path id="パス_3461" data-name="パス 3461" d="M44.511,158.344a.847.847,0,0,1-.453-1.564l10.507-6.621a.847.847,0,1,1,.9,1.434l-10.507,6.621a.844.844,0,0,1-.451.131" transform="translate(-37.88 -130.157)" fill="#f2f2f2"/>
          <path id="パス_3462" data-name="パス 3462" d="M53.283,148.292a.847.847,0,0,1,.453,1.564l-10.507,6.621a.847.847,0,0,1-.9-1.434l10.507-6.621a.843.843,0,0,1,.451-.13m0-.265h0a1.109,1.109,0,0,0-.592.171l-10.507,6.621A1.112,1.112,0,1,0,43.37,156.7l10.507-6.621a1.112,1.112,0,0,0-.594-2.053" transform="translate(-36.147 -128.421)" fill="#d19411"/>
          <path id="パス_3463" data-name="パス 3463" d="M30.865,51.262h.8V53.5a.353.353,0,0,0,.063.2.377.377,0,0,0,.164.137.348.348,0,0,0,.212.022l2.159-.413V53.9l-2.3.439a.923.923,0,0,1-.941-.395.9.9,0,0,1-.155-.509Z" transform="translate(-26.777 -44.473)" fill="#fff"/>
          <path id="パス_3464" data-name="パス 3464" d="M66.146,51.587v-.325h2.362L66.977,52.65h1.539a.554.554,0,0,1,.553.554v.605a.554.554,0,0,1-.553.553H66.146v-.325h1.937a.277.277,0,0,0,.277-.277v-.509a.277.277,0,0,0-.277-.277h-2.41l1.531-1.388Z" transform="translate(-56.976 -44.473)" fill="#fff"/>
          <path id="パス_3465" data-name="パス 3465" d="M100.483,51.262h.708v1.816a3.007,3.007,0,0,0,.077.686l.734-.243v.354l-1.343.487a3.683,3.683,0,0,1-.177-1.284Zm2.687,2.6V52.5a2.721,2.721,0,0,0-.251-1.048h.723a2.887,2.887,0,0,1,.236,1.048V53.86Z" transform="translate(-87.174 -44.473)" fill="#fff"/>
          <path id="パス_3466" data-name="パス 3466" d="M33.138,88.244v-.325h.137a.277.277,0,0,0,.277-.277v-.6a.277.277,0,0,0-.277-.277h-.609v1.476H31.418a.554.554,0,0,1-.553-.553V87a.554.554,0,0,1,.553-.554h.539v-.694h-1v-.325h1v-.281h.708v.281h.65v.325h-.65v.694h1.041A.554.554,0,0,1,34.26,87v.694a.554.554,0,0,1-.553.553Zm-1.181-.325V86.768H31.85a.277.277,0,0,0-.277.277v.6a.277.277,0,0,0,.277.277Zm1.875-1.9-.31-.753h.413l.31.753Z" transform="translate(-26.777 -73.867)" fill="#fff"/>
          <path id="パス_3467" data-name="パス 3467" d="M65.674,86.074v-.325h.605l.1-.605h.709l-.1.605h.8a.554.554,0,0,1,.553.553V87.69a.554.554,0,0,1-.553.553h-.834v-.324h.4a.278.278,0,0,0,.277-.277V86.351a.277.277,0,0,0-.277-.277h-.428l-.373,2.17h-.709l.373-2.17Zm3.07.413L68.2,85.144h.325l.546,1.343Z" transform="translate(-56.976 -73.867)" fill="#fff"/>
          <path id="パス_3468" data-name="パス 3468" d="M100.483,85.144h.8V87.38a.353.353,0,0,0,.063.2.377.377,0,0,0,.164.137.348.348,0,0,0,.212.022l2.159-.413v.458l-2.3.439a.923.923,0,0,1-.941-.395.9.9,0,0,1-.155-.509Z" transform="translate(-87.174 -73.867)" fill="#fff"/>
        </g>
      </g>
    </g>
  </g>
</svg>
